<svg xmlns="http://www.w3.org/2000/svg" id="Layer_1" viewBox="0 0 500 143.1">
    <style>
        .st0{fill:#FFFFFF;}
    </style>
    <path d="M500 129c0 7.8-6.4 14.2-14.3 14.2H14.3c-8 0-14.3-6.4-14.3-14.3V14.2C0 6.3 6.4 0 14.3 0h471.5c8 0 14.3 6.4 14.3 14.3V129z"/>
    <path d="M109.7 71c0-12 9.8-18 10.5-18.4-5.6-8.3-14.7-9.4-17.7-9.4-7.5-.8-14.7 4.5-18.4 4.5-3.7 0-9.7-4.5-15.7-4-8 0-15.4 4.8-19.5 12-8.6 14.6-2.3 36.3 6 48.4 4 6 9 12.5 15 12s8.3-3.7 15.8-3.7c7 0 9.4 3.8 15.8 3.8s10.5-6 14.7-11.5c5-6.8 7-13 7-13.5-.5-.8-13-5.7-13.3-20zM97.7 35.3c3.4-4 5.6-9.8 5-15.4-5 .3-10.7 3.3-14.4 7-3 3.4-5.6 9.4-5 14.7 5.7.7 11-2.3 14.4-6.4zM198 115h-8.6l-4.5-14.7h-16.3l-4.5 14.7H156l16-50h10l16 50zm-14.3-21l-4-13.2-2.7-9.4c-.4 2.3-1 5.3-2.3 9.4l-4 13h13zM239.7 96.5c0 6-1.5 11-5 14.7-3 3-6.7 5-10.8 5-5 0-8.4-2-10.2-5.4V130h-8V91.3c0-3.8 0-8-.3-12h7l.5 5.6c2.6-4.2 6.8-6.5 12-6.5 4 0 8 1.5 10.5 5 2.7 3 4.2 7.4 4.2 13zm-8.3 0c0-3.4-.8-6.4-2.3-8.6-1.8-2.4-4-3.5-7-3.5-2 0-3.8.8-5.3 2-1.5 1.4-2.6 3-3 5.2-.4 1-.4 2-.4 2.6v6c0 2.6.8 5 2.3 6.8 1.5 2 3.8 2.7 6.4 2.7 3 0 5.3-1 7-3.4 1.7-2.6 2.4-5.6 2.4-9.8zM281 96.5c0 6-1.5 11-5 14.7-3 3-6.7 5-10.8 5-5 0-8.3-2-10-5.4V130h-8V91.3c0-3.8 0-8-.4-12h7l.5 5.6c2.6-4.2 6.8-6.5 12-6.5 4 0 8 1.5 10.5 5 2.7 3 4.2 7.4 4.2 13zm-8.3 0c0-3.4-.8-6.4-2.3-8.6-2-2.4-4-3.5-7-3.5-2 0-4 .8-5.4 2-1.5 1.4-2.6 3-3 5.2-.4 1-.4 2-.4 2.6v6c0 2.6.8 5 2.3 6.8 1.4 2 3.7 2.7 6.3 2.7 3 0 5.3-1 7-3.4 1.7-2.6 2.4-5.6 2.4-9.8zM327.2 100.7c0 4-1.5 8-4.5 10.5-3.4 3-8 4.5-13.5 4.5-5.3 0-9.8-1-12.8-3l2-6.8c3.3 2.2 7.4 3.3 11.5 3.3 3 0 5.2-.8 7-2 1.5-1.4 2.6-3 2.6-5.5 0-2-.8-3.8-2.3-5.3-1.5-1.5-3.8-2.6-6.8-3.8-8.6-3.4-13-8-13-14.3 0-4 1.4-7.5 4.4-10 3-2.7 7-4 12.3-4 4.5 0 8.3 1 11.3 2.4l-2 6.4c-3-1.5-6-2.3-9.3-2.3-3 0-5 .7-6.8 2.2-1.5 1-2 2.6-2 4.5s1 3.8 2.4 5c1.4 1 3.7 2.5 7 3.7 4 2 7.5 3.8 9.4 6 2 2.3 2.8 5 2.8 8.3zM354 85h-8.7v17.6c0 4.5 1.5 6.8 4.5 6.8 1.5 0 2.6 0 3.4-.4l.4 6c-1.5.8-3.8.8-6.4.8-3 0-5.6-1-7.5-3s-2.6-5.3-2.6-9.8V85H332v-6h5.3v-6.8l8-2.3v9h9v6zM393.7 96.5c0 5.6-1.5 10-5 13.5-3.3 3.8-7.8 5.6-13 5.6s-9.4-2-12.8-5.3c-3.5-3.4-5-8-5-13 0-5.7 1.5-10.2 5-14 3.3-3.4 7.4-5.3 13-5.3 5.3 0 9.4 2 12.8 5.3 3.4 3.5 5 8 5 13.2zm-8.3.4c0-3.5-.8-6-2.3-8.7-1.4-3-4-4-7-4-3.4 0-5.6 1.4-7.5 4-1.5 2.3-2.3 5.3-2.3 8.6s.8 6 2.3 8.5c2 3 4 4 7 4s5.7-1.4 7.2-4.4c2-2 2.7-5 2.7-8zM419.6 86c-.8 0-1.5-.4-2.6-.4-3 0-5 1-6.4 3.4-1.5 2-2 4-2 7v19H401V90.2c0-4 0-8-.4-11.3h7l.5 6.7h.3c.8-2.3 2.3-4 4-5.6 2-1 4-1.8 5.7-1.8h2c-.4 0-.4 7.8-.4 7.8zM455.7 95c0 1.5 0 2.6-.4 3.8h-24c0 3.4 1 6.4 3.4 8.3 2 1.6 4.5 2.7 8 2.7 3.3 0 6.7-.8 9.7-2l1 5.7c-3.3 1.5-7.4 2.3-12 2.3-5.5 0-10-1.5-13-5-3-3.3-5-7.8-5-13 0-5.3 1.6-10 4.6-13.5 3-3.8 7-5.6 12.8-5.6 5.3 0 9 2 11.6 5.6 2 2.6 3.3 6.3 3.3 10.8zm-8-1.8c0-2.3-.3-4.5-1.4-6-1.5-2.3-3.4-3.4-6.4-3.4-2.7 0-5 1-6.5 3.4-1.5 2-2.3 3.8-2.3 6.4l16.6-.4z" class="st0"/>
    <g>
        <path d="M181 34.2c0 4.5-1.4 8-4 10s-6 3-10.5 3c-2.3 0-4 0-5.6-.3V23c2.2-.5 4.4-.5 6.7-.5 4 0 7.5.8 9.8 2.6 2 2 3.6 5 3.6 9.2zm-4.4 0c0-3-.8-5-2.3-6.8-1.5-1.5-3.8-2.3-6.8-2.3-1 0-2.3 0-3 .5V44h2.6c3 0 5.4-.8 7.2-2.6 1.6-1.6 2.4-3.8 2.4-7.2zM203 38c0 2.5-1 4.8-2.4 6.7-1.5 2-3.8 2.6-6.4 2.6-2.6 0-4.5-.8-6.4-2.6-1.5-2-2.3-3.8-2.3-6.4s.8-5 2.3-6.8c1.5-2 3.8-2.6 6.4-2.6 2.6 0 4.5.7 6.4 2.5C202 33 203 35.3 203 38zm-4.3 0c0-1.6-.4-3-1-4.2-1-1.5-2-2.3-3.5-2.3s-2.6.8-3.8 2.3c-.8 1-1 2.6-1 4s.3 3 1 4.2c.8 1.5 2 2.3 3.8 2.3 1.5 0 2.6-.8 3.4-2.3.7-.7 1-2.2 1-4zM232.5 29.3L227 47h-4l-2.2-7.5c-.8-2-1-3.8-1.5-5.6-.4 1.8-.8 3.7-1.5 5.5l-2.3 7.5h-3.8l-5.3-17.7h4l2 8.3c.4 2 .8 3.8 1 5.6l1.6-5.6 2.6-8.3h3.4l2.3 8.3c.8 2 1 4 1.5 6 .4-2 .8-3.8 1-6l2.4-8.3h4.3zM252.8 47H249V36.8c0-3-1-4.5-3.4-4.5-1 0-2.3.4-3 1-.8 1-1 2-1 3V47h-4V34.2v-5h3.5V32c.5-1 1.2-1.6 2-2.4 1-.8 2.3-1 3.4-1 1.5 0 3 .3 4 1.4 1.6 1 2 3.4 2 6v11h.4zM263.7 47H260V21h3.8v26zM287 38c0 2.5-.8 4.8-2.3 6.7-1.5 2-3.8 2.6-6.4 2.6-2.6 0-4.5-.8-6.4-2.6-1.6-2-2.4-3.8-2.4-6.4s.8-5 2.3-6.8c1.4-2 3.7-2.6 6.3-2.6 2.6 0 4.5.7 6.4 2.5 1.6 1.6 2.3 3.8 2.3 6.4zm-4 0c0-1.6-.5-3-1.2-4.2-.8-1.5-2-2.3-3.4-2.3-1.5 0-2.6.8-3.8 2.3-.8 1-1 2.6-1 4s.3 3 1 4.2c.8 1.5 2 2.3 3.8 2.3 1.5 0 2.6-.8 3.4-2.3.7-.7 1-2.2 1-4zM305.8 47h-3.4l-.4-2c-1 1.6-3 2.7-5.3 2.7-1.5 0-3-.4-4-1.5-1-1-1.6-2.3-1.6-3.8 0-2.3 1-3.8 2.7-5 2-1 4.5-1.8 7.5-1.4v-.4c0-2.3-1-3.4-3.8-3.4-2 0-3.4.4-4.5 1l-1-2.5c1.6-1 4-1.5 6-1.5 4.6 0 7 2.3 7 7v6.5c.8 1.6.8 3 .8 4.3zm-4-6v-2.7c-4.6 0-6.5 1-6.5 3.4 0 .8.4 1.5.8 2.3.5.4 1.2.8 2 .8s1.5-.4 2.3-.8c.8-.4 1-1 1.5-2.3V41zM328.3 47H325v-3c-1.2 2.3-3 3.4-5.7 3.4-2.3 0-3.8-.8-5.3-2.6-1.5-2-2.3-3.8-2.3-6.4 0-3 .8-5.3 2.3-7 1.5-1.6 3.4-2.7 5.6-2.7s4 .8 5 2.3V20.7h3.7v21c-.4 2.3 0 3.8 0 5.3zm-4-7.6v-3-1c-.5-1.2-1-2-1.6-2.4-.8-.8-1.5-1-2.6-1-1.4 0-2.5.7-3.3 1.8-.8 1-1 2.6-1 4.5 0 2 .3 3 1 4 .8 1.2 2 2 3.4 2 1.2 0 2.4-.4 3-1.5.8-1 1.2-2 1.2-3.4zM361.8 38c0 2.5-.8 4.8-2.3 6.7-1.5 2-3.8 2.6-6.4 2.6-2.5 0-4.4-.8-6.3-2.6-1.5-2-2.3-3.8-2.3-6.4s.8-5 2.3-6.8c1.5-2 3.8-2.6 6.4-2.6 2.7 0 4.6.7 6.5 2.5 1.5 1.6 2.3 3.8 2.3 6.4zm-3.8 0c0-1.6-.4-3-1-4.2-1-1.5-2-2.3-3.5-2.3s-2.6.8-3.8 2.3c-.8 1-1 2.6-1 4s.3 3 1 4.2c.8 1.5 2 2.3 3.8 2.3 1.5 0 2.6-.8 3.4-2.3.6-.7 1-2.2 1-4zM383.2 47h-3.8V36.8c0-3-1-4.5-3.8-4.5-1 0-2.3.4-3 1-.8 1-1 2-1 3V47h-4V34.2v-5h3.5V32c.5-1 1.2-1.6 2-2.4 1-.8 2.3-1 3.8-1s3 .3 4 1.4c1.6 1 2 3.4 2 6v11h.4zM409.5 32.3H405V41c0 2.2.8 3.3 2.3 3.3h2v3c-1 .4-2 .4-3 .4-1.6 0-2.7-.4-4-1.5-.7-1-1.4-2.6-1.4-5v-9h-2.7v-3h2.6V26l3.7-1.2v4.5h4.5l.3 3zM430.5 47h-3.8V36.8c0-3-1-5-3.4-5-2 0-3 1-3.8 2.7v12h-3.8V20.7h3.8v10.5c1-2 3-3 5.3-3 1.5 0 3 .4 4 1.5 1.6 1.5 2 3.4 2 6-.3.7-.3 11.3-.3 11.3zM452 37.2v2h-12c0 1.8.7 3 1.8 4 1 .8 2.3 1 3.8 1 2 0 3.4-.3 5-.7l.7 2.6c-1.5 1-3.8 1.2-6 1.2-2.6 0-5-.8-6.4-2.3-1.6-1.6-2.4-4-2.4-6.5 0-2.6.8-5 2.3-6.8 1.4-2 3.7-3 6-3 2.5 0 4.4 1 5.5 3 1 1.4 1.4 3.2 1.4 5.5zm-3.8-.8c0-1-.4-2.3-.8-3-.8-1-2-1.5-3-1.5s-2.3.3-3 1.4c-.8.8-1 2-1 3h7.8z" class="st0"/>
    </g>
</svg>
