<svg xmlns="http://www.w3.org/2000/svg" id="Layer_1" xmlns:xlink="http://www.w3.org/1999/xlink" viewBox="0 0 500 143.1">
    <style>
        .st0{clip-path:url(#SVGID_2_);fill:url(#SVGID_3_);} .st1{clip-path:url(#SVGID_5_);fill:url(#SVGID_6_);} .st2{clip-path:url(#SVGID_8_);fill:url(#SVGID_9_);} .st3{clip-path:url(#SVGID_11_);fill:url(#SVGID_12_);} .st4{fill:#F9F9F9;}
    </style>
    <path d="M500 129c0 7.8-6.4 14.2-14.3 14.2H14.3c-8 0-14.3-6.4-14.3-14.3V14.2C0 6.3 6.4 0 14.3 0h471.5c8 0 14.3 6.4 14.3 14.3V129z"/>
    <g id="PLAY_2_">
        <defs>
            <path id="SVGID_1_" d="M107 61.2l-18.7-11-36-20.6c-2-1-4.2-.4-4.2 2V116c0 2 1.6 2.6 3 1.5 2-1 37-21.4 37-21.4l18.7-10.8s15.8-9 18-10.5c2.3-1 2-3 0-3.8C123.2 71 107 61 107 61z"/>
        </defs>
        <clipPath id="SVGID_2_">
            <use xlink:href="#SVGID_1_" overflow="visible"/>
        </clipPath>
        <linearGradient id="SVGID_3_" x1="71.6" x2="71.6" y1="104.2" y2="12.5" gradientUnits="userSpaceOnUse" gradientTransform="matrix(1 0 0 -1 0 132)">
            <stop offset="0" stop-color="#257DB0"/>
            <stop offset=".2" stop-color="#3C90B3"/>
            <stop offset=".7" stop-color="#73BDB9"/>
            <stop offset="1" stop-color="#89CEBC"/>
        </linearGradient>
        <path d="M48.5 27.8v91.8l46.2-46z" class="st0"/>
        <g>
            <defs>
                <path id="SVGID_4_" d="M107 61.2l-18.7-11-36-20.6c-2-1-4.2-.4-4.2 2V116c0 2 1.6 2.6 3 1.5 2-1 37-21.4 37-21.4l18.7-10.8s15.8-9 18-10.5c2.3-1 2-3 0-3.8C123.2 71 107 61 107 61z"/>
            </defs>
            <clipPath id="SVGID_5_">
                <use xlink:href="#SVGID_4_" overflow="visible"/>
            </clipPath>
            <linearGradient id="SVGID_6_" x1="48.5" x2="107.1" y1="81.4" y2="81.4" gradientUnits="userSpaceOnUse" gradientTransform="matrix(1 0 0 -1 0 132)">
                <stop offset="0" stop-color="#51BFAC"/>
                <stop offset="1" stop-color="#DEE899"/>
            </linearGradient>
            <path d="M107 61.2L88.4 50.7 48.5 27.4v.4l46.2 45.8z" class="st1"/>
        </g>
        <g>
            <defs>
                <path id="SVGID_7_" d="M107 61.2l-18.7-11-36-20.6c-2-1-4.2-.4-4.2 2V116c0 2 1.6 2.6 3 1.5 2-1 37-21.4 37-21.4l18.7-10.8s15.8-9 18-10.5c2.3-1 2-3 0-3.8C123.2 71 107 61 107 61z"/>
            </defs>
            <clipPath id="SVGID_8_">
                <use xlink:href="#SVGID_7_" overflow="visible"/>
            </clipPath>
            <linearGradient id="SVGID_9_" x1="77.8" x2="77.8" y1="58.3" y2="12.2" gradientUnits="userSpaceOnUse" gradientTransform="matrix(1 0 0 -1 0 132)">
                <stop offset="0" stop-color="#EB403D"/>
                <stop offset=".2" stop-color="#D64252"/>
                <stop offset=".7" stop-color="#9F4887"/>
                <stop offset="1" stop-color="#894A9C"/>
            </linearGradient>
            <path d="M48.5 119.5v.3l39.8-23.3L107 86 94.8 73.6z" class="st2"/>
        </g>
        <g>
            <defs>
                <path id="SVGID_10_" d="M107 61.2l-18.7-11-36-20.6c-2-1-4.2-.4-4.2 2V116c0 2 1.6 2.6 3 1.5 2-1 37-21.4 37-21.4l18.7-10.8s15.8-9 18-10.5c2.3-1 2-3 0-3.8C123.2 71 107 61 107 61z"/>
            </defs>
            <clipPath id="SVGID_11_">
                <use xlink:href="#SVGID_10_" overflow="visible"/>
            </clipPath>
            <linearGradient id="SVGID_12_" x1="111.6" x2="111.6" y1="70.6" y2="46" gradientUnits="userSpaceOnUse" gradientTransform="matrix(1 0 0 -1 0 132)">
                <stop offset="0" stop-color="#F48779"/>
                <stop offset=".6" stop-color="#FAB076"/>
                <stop offset="1" stop-color="#FDC674"/>
            </linearGradient>
            <path d="M107 61.2L94.8 73.6 107 86l21.5-12.4z" class="st3"/>
        </g>
    </g>
    <path d="M378.7 100c-2 0-3.8-.5-5.3-1.2-1.5-.8-3-2-4-3.4h-.5c.3 2 .3 3.4.3 5v12h-4.5v-43h3.8l.8 4.2h.4c1-1.5 2.6-2.6 4-3.4 1.6-.8 3.5-1 5.4-1 3.8 0 7 1.4 9 4 2.3 2.6 3.4 6.4 3.4 11.3s-1 8.6-3.4 11.3c-2.8 2.6-5.8 4-9.5 4zm-.8-27c-3 0-5.4.7-6.5 2.5-1.5 1.5-2 4.5-2.3 8v1c0 4 .8 7 2.3 9 1.5 2 3.8 2.6 6.8 2.6 2.6 0 4.5-1 6-3 1.5-2.2 2.3-4.8 2.3-8.5s-.8-6.4-2.3-8.6c-2-2-3.8-3-6.4-3zM401.2 99.2h-4.5v-42h4.5v42zM426.7 99.2L426 95h-.4c-1.5 2-3 3-4.5 3.8-1.4.8-3.3 1-5.5 1-3 0-5.3-.7-6.8-2.2-1.5-1.5-2.6-3.8-2.6-6.4 0-6 5-9 14.4-9.4h5V80c0-2.3-.5-4-1.6-5.3-1-1-2.6-1.5-5-1.5-2.5 0-5.2.8-8.2 2.3L409 72c1.6-.7 3-1.4 5-1.8s3.4-.8 5.3-.8c3.4 0 6 .8 8 2.3 1.8 1.5 2.5 4 2.5 7.5v20.3h-3v-.3zm-10-3c2.5 0 4.8-.8 6.7-2.3 1.5-1.6 2.3-4 2.3-6.5V85h-4.5c-3.4 0-6 .7-8 1.4-1.4 1-2.2 2.6-2.2 4.5 0 1.4.4 3 1.5 3.7 1 1 2.6 1.5 4 1.5zM432.8 69.5h5l6.3 17c1.6 3.7 2.4 6.7 2.7 8.2h.4c.5-.8 1-2.6 1.6-5 .8-2.2 3-9 7.5-20.6h5l-12.8 34c-1 3.3-2.6 5.5-4.5 7-1.5 1.5-3.8 2.3-6 2.3-1.5 0-2.6 0-4-.4v-4c1 .5 2.2.5 3.3.5 3 0 5.3-2 6.8-5.3l1.5-4-12.5-29.7z" class="st4"/>
    <g>
        <path d="M295.3 72.5c1.5 1 4.5 3.8 4.5 8.3 0 4.5-2.6 6.8-5.3 8.6-.8.8-2 1.5-2 3s1 2.3 1.6 2.6l2.4 2c2.6 2.2 5.3 4.4 5.3 8.5 0 5.6-5.6 11.6-16.2 11.6-9 0-13-4-13-9 0-2.2 1-5.2 4.8-7.4s9-2.6 11.6-3c-1-1-2-2.3-2-4 0-1.2.4-1.6.8-2.4h-2c-6.3 0-10-5-10-9.8 0-3 1-6 4-8.3 3.5-3 8-3.3 11.4-3.3H304l-4 2.3h-4.6v.5zM291 100h-1.4c-.4 0-3.8 0-6.4 1-1.5.4-5.3 2-5.3 6.4 0 4.5 4 7.5 10.8 7.5 6 0 9-3 9-7 0-3.2-2.2-4.7-6.7-8zm2-11.7c1.5-1.5 1.5-3.4 1.5-4.5 0-4.5-2.6-11.3-8-11.3-1.4 0-3.3.8-4.4 2-1 1-1.4 3-1.4 4.4 0 4 2.3 10.8 8 10.8 1.4 0 3.3-.8 4.4-1.5zM256.6 98.8c-9.8 0-15-7.5-15-14.7 0-8.2 6.8-15 16.2-15 9 0 14.7 7.2 14.7 14.8 0 7.5-5.8 15-16 15zm7.5-5c1.6-1.8 2-4.4 2-6.7 0-5.2-2.6-15.7-10-15.7-2 0-4.2.8-5.7 2.3-2.3 2.3-3 5-3 7.5 0 6 3 16.3 10.5 16.3 2.5-.4 5.2-1.5 6.3-3.4zM223 98.8c-9.7 0-15-7.5-15-14.7 0-8.2 7-15 16.3-15 9 0 14.7 7.2 14.7 14.8-.5 7.5-6 15-16 15zm7.7-5c1.5-1.8 2-4.4 2-6.7 0-5.2-2.7-15.7-10.2-15.7-2 0-4 .8-5.6 2.3-2.4 2.3-3 5-3 7.5 0 6 3 16.3 10.4 16.3 2.5-.4 4.8-1.5 6.3-3.4zM203.2 98l-9 2c-3.8.3-6.8 1-10 1-17.4 0-23.8-12.8-23.8-22.5 0-12 9.4-23.3 25.2-23.3 3.4 0 6.8.4 9.4 1 4.5 1.2 6.8 3 8.3 4L198 65l-2.3.4 1.5-2.6c-2.3-2-6-6-13-6-10 0-17.4 7.5-17.4 18.4 0 11.6 8.3 22.5 22.2 22.5 4 0 6-.8 8-1.5V86l-9.5.4 5-2.6h13l-1.5 1.5-.8 1V98z" class="st4"/>
        <path d="M315.2 96.2c-2 0-2.6-.4-2.6-3V57.4c.4-2.3.8-2.6 2.6-3.8h-9l-4.5 2.3h5v38.4c0 1-.5 1.4-1.6 3.3h11l2.3-1.5h-3zM340.3 96.5l-2 1c-1.8 1-4 1.2-6 1.2s-4.8 0-8.2-2.3c-4.4-3-6.3-8.3-6.3-13 0-9.5 8-14.4 14.3-14.4 2.3 0 4.5.4 6.4 2 3 1.8 3.8 4.4 4 6L328 83l-5 .3c1.6 8 7 12.4 13 12.4 3 0 5.2-1 7.4-2.3l-3 3zM334.7 78c1-.3 2-.7 2-1.4 0-2.6-2.7-5.3-6-5.3-2.7 0-7.2 2-7.2 8.6v3.3l11.2-5.2zM346.4 70v4h-.4v-4h-1.5v-1h3v.5h-1v.4zM352 73.6v-4l-1 4h-.5l-1-4v4h-.5V69h.8l1 4 1.2-4h.8v4.6h-.8z" class="st4"/>
    </g>
    <g>
        <path d="M172.8 43.2h-3l-.8-3.8h-4.5c-.8 2-.8 3-.8 3.8h-3c0-.4.8-2.3 2.3-6 1.5-3.8 2.3-6 2.3-6.4h3.8c0 .4 1 2.6 2 6.4 1 3.7 1.8 5.6 1.8 6zm-4.5-5.6l-1.5-5.3c0 .4-.8 2-2 5.3h3.5zM185.2 43.2H183c0-.4-1-1.5-2.7-4-2-2.7-3-4.6-3-5.7 0 1.5.4 2.6.4 3.8V43h-2.3v-6.5-6h3c0 .4.8 2 2.3 4 2 2.7 2.6 4.2 3 5.4 0-1.6-.4-2.7-.4-4V31h2.3v6c-.4 2.3-.4 4.5-.4 6.4zM199 36.4c0 2-.7 3.4-1.8 5-1 1.4-2.6 1.8-5 1.8h-3.7v-6.4-6h3.7c2.3 0 4 .8 5 2 1.5.6 2 2 2 3.6zm-2.5.4c0-1-.4-2.3-1-3-1-.8-2-1-3.5-1h-1v8.5h1c1.5 0 2.3-.4 3-1 1-1.2 1.5-2 1.5-3.5zM212 43.2h-3c-1-2.3-1.6-3.8-2-4s-1-1-2-1h-1v5h-2.6v-6.4-6h4.5c3 0 4.4 1 4.4 3 0 1.5-.8 2.6-2.6 3.4.8 0 1 .8 2 1.5.6.7 1.3 2.2 2 4.5zm-3.5-9c0-1-.8-2-2.6-2h-1.6v4h.8c2.2.2 3.3-.5 3.3-2zM225.8 36.8c0 2-.8 3.8-2 5s-2.5 1.8-4.4 1.8c-2 0-3-.8-4-2-1.2-1-2-2.5-2-4.4 0-2 .8-3.8 2-5s2.5-1.8 4.4-1.8c2 0 3 .8 4 2 1.6 1 2 2.5 2 4.4zm-2.7 0c0-1.5-.3-2.3-1-3.4-.8-.8-1.5-1-2.6-1-1 0-2 .3-2.3 1-.7.8-1 2-1 3.4s.4 2.3 1 3.4c1 .8 1.6 1 2.7 1 .8 0 2-.3 2.3-1 .8-.8 1-2 1-3.4zM231.4 43.2h-2.6v-6.4-6h2.6v6c-.4 2.3 0 4.5 0 6.4zM245.3 36.4c0 2-.8 3.4-2 5-1 1.4-2.5 1.8-4.8 1.8h-3.8v-6.4-6h3.7c2.3 0 4 .8 5 2 1.5.6 2 2 2 3.6zm-2.6.4c0-1-.4-2.3-1-3-1-.8-2-1-3.5-1h-1v8.5h1c1.5 0 2.3-.4 3-1 1-1.2 1.5-2 1.5-3.5zM263.7 43.2h-3l-.8-3.8h-4.6c-.8 2-.8 3-.8 3.8h-3c0-.4.8-2.3 2.3-6 1.4-3.8 2.2-6 2.2-6.4h3.8c0 .4.8 2.6 2 6.4 1.3 3.7 1.7 5.6 1.7 6zm-4-5.6c-1.2-3.4-1.6-5.3-1.6-5.3 0 .4-.7 2-1.8 5.3h3.4zM275 33.8c0 1.5-.8 2.6-2 3.4-1 .8-2.5 1-4 1h-.8v5h-2.6v-6.4-6h5.1c1 0 2.2.4 3 .8 1 .3 1.4 1 1.4 2.2zm-2.3.8c0-1.5-.8-2-2.6-2h-1.4V37h.4c2.6 0 3.7-.7 3.7-2.2zM286.6 33.8c0 1.5-.8 2.6-2 3.4-1 .8-2.5 1-4 1h-.8v5h-2.6v-6.4-6h5c1 0 2.2.4 3 .8 1 .3 1.4 1 1.4 2.2zm-2.2.8c0-1.5-.8-2-2.6-2h-1.5V37h.4c2.2 0 3.7-.7 3.7-2.2zM305.8 36.8c0 2-.8 3.8-2 5s-2.5 1.8-4.4 1.8-3-.8-4-2c-1.2-1-2-2.5-2-4.4 0-2 .8-3.8 2-5s2.5-1.8 4.4-1.8c2 0 3 .8 4 2s2 2.5 2 4.4zm-3 0c0-1.5-.4-2.3-1-3.4-1-.8-1.6-1-2.7-1-1 0-1.8.3-2.2 1-.8.8-1 2-1 3.4s.3 2.3 1 3.4c.8.8 1.5 1 2.6 1 1 0 2-.3 2.3-1 1-.8 1-2 1-3.4zM318.6 43.2h-2.3c0-.4-.8-1.5-2.6-4-2-2.7-3-4.6-3-5.7 0 1.5.4 2.6.4 3.8V43h-2.5v-6.5-6h3c0 .4.8 2 2.3 4 2 2.7 2.6 4.2 3 5.4 0-1.6-.4-2.7-.4-4V31h2.3v12.4z" class="st4"/>
    </g>
</svg>
