<svg xmlns="http://www.w3.org/2000/svg" id="Layer_1" viewBox="0 0 500.7 504.9">
    <style>
        .st0{fill:none;} .st1{fill:#E11F26;} .st2{fill-rule:evenodd;clip-rule:evenodd;fill:#FFFFFF;}
    </style>
    <path d="M389.6 457.2c-10.3 0-18.7 8.4-18.7 18.7 0 10.2 8.3 18.6 18.6 18.6s18.7-8.4 18.7-18.7c0-10.4-8.4-18.8-18.7-18.8zM178.5 452.4c-9.7 0-18 7.8-18 18 0 9.8 7.7 18.2 18 18.2 9.7 0 18-8.4 18-18 0-9.8-7.7-18.2-18-18.2z" class="st0"/>
    <path d="M330 123.8V67.6c0-6.6-5.5-12.8-12.8-12.8H38.6C32 54.8 26 60.3 26 67.6V427c0 6.6 5 12.7 13 12.7v1h239V165.4c0-23 18.7-41.5 41-41.5h11z" class="st1"/>
    <path d="M311.8 179.8c-5.4 0-9.8 4.2-9.8 10.2v246.7c0 5.4 3.8 10 9.8 10H468c5.4 0 10-4 10-10V190c0-5.4-4-10.2-10-10.2H311.8z" class="st1"/>
    <path d="M459 123.8H356V40.4C356 18 338.4-.2 316-.2H40.4C18-.2 0 18 0 40.4v422.2c0 22.3 18 40.2 40.4 40.2H459c22.3 0 41-17.8 41-40.8V164.7c-.6-22.4-18.7-41-41-41zm-181 317H39v-1c-8 0-13-6-13-12.8V67.6c0-7.2 6-12.8 12.6-12.8h278.6c7.2 0 12.8 6.2 12.8 12.8v56.2h-11c-22.2 0-41 18.6-41 41.5v275.5zm200-4c0 6-4.5 10-10 10H311.8c-6 0-9.8-4.7-9.8-10V190c0-6 4.4-10.2 9.8-10.2H468c6 0 10 4.8 10 10.2v246.7zm-299.5 51.7c-10.3 0-18-8.4-18-18 0-10.4 8.3-18.2 18-18.2 10.3 0 18 8.4 18 18 0 9.8-8.3 18.2-18 18.2zm211 6c-10.2 0-18.6-8.3-18.6-18.6 0-10.4 8.3-18.8 18.6-18.8s18.7 8.4 18.7 18.7c0 10-8.4 18.6-18.7 18.6z"/>
    <path d="M-272.5-6105.5h3643V5552h-3643z" class="st0"/>
    <path d="M-272.5-6105.5h3643V5552h-3643z" class="st0"/>
    <path d="M104.4 181.6l-.3 4h-5v19.8h-5v-19.7h-5v-4h15.4M119.7 205.4h-4.5V194c0-2-.5-2.8-2-2.8-1 0-1.8.4-3 1.4v12.8H106v-24.7l4.5-.3v9.3c1.4-1.4 3-2 5-2 1.6 0 3 .7 3.8 2 .6.8.8 1.7.8 3.5v12.2M133.2 194.8c0-2.7-.8-4-2.6-4s-2.8 1.4-3 4h5.6zm4.4 3.2h-10c0 3 1.2 4.4 3.8 4.4 2.3 0 3.8-1 4.6-1.4l1.4 3.2c-1 .7-3.2 1.8-6.5 1.8-5.7 0-8-3.8-8-9 0-5.6 2.7-9.3 7.7-9.3 4.6 0 7 3.2 7 9.5v.8zM174 181.6l-5 23.8H164l-4-17.8-3.8 17.8h-5.3l-5-23.8 5.2-.4 2.7 17.6 3.5-17.2h5.4l3.5 17.2 3-17.6 5 .4M181.8 191.2c-2 0-2.8 1.7-2.8 5.7s.8 5.6 3 5.6c2 0 2.8-1.7 2.8-5.6 0-4.2-1-5.8-3-5.8zm0 14.8c-4.7 0-7.6-3.4-7.6-9.2 0-2.8.7-5 2-6.6 1.5-1.8 3.2-2.5 5.8-2.5 4.6 0 7.5 3.5 7.5 9 0 5.7-3 9.3-7.6 9.3zM201 192c-.2-.3-.7-.4-1.4-.4s-1.8 1-2.5 1.7v12h-4.4v-12.2c0-1-.2-3.2-.7-4.6l4.2-.5c.4.5.5 1.4.6 2 1-1.4 2.2-2.4 3.5-2.4 1 0 1.7.3 2 1l-1.2 3.3M208.3 205.4h-4.5v-24.7l4.5-.3v25M221.7 191.8c-.8-.4-1.7-.6-2.5-.6-2.2 0-3 2-3 5.7 0 4 .8 5.6 2.7 5.6 1 0 2-.4 2.7-1.2v-9.6zm4.4 13.6h-3.7l-.4-1c-1.5 1-3.3 1.6-4.7 1.6-3.7 0-5.7-3.2-5.7-8.8 0-3.4.6-5.7 2-7.4 1.3-1.4 2.8-2 4.6-2 1.2 0 2.2.2 3.5 1v-8l4.5-.3v25zM237.4 188.3h4.5v17h-4.6v-17zm2.2-2.5c-1.5 0-2.7-1-2.7-2.7 0-1.4 1-2.6 2.6-2.6 1.5 0 2.7 1.2 2.7 2.7 0 1.6-1.2 2.8-2.7 2.8zM260 205.4h-4.5V194c0-2-.5-2.8-2-2.8-1 0-1.8.4-3 1.4v12.8h-4.4V193c0-1 0-3.2-.6-4.6l4.3-.5c.4.5.5 1.3.6 2 1.6-1.7 3.3-2.4 5-2.4 1.8 0 3.2.7 4 2 .5.8.7 1.7.7 3.5v12.4M130 279H91c0-8 .7-13.6 3-18 3-5 5.3-7.2 15.5-15 6.5-5 8.7-8.4 8.7-13.7 0-5-3-8-8-8-6.8 0-9 6.5-10.4 10l-9.6-3.6c3.3-10.2 9-17 21.3-17 11.6 0 18.3 6.8 18.3 18.2 0 6-1.8 11-5.7 15-2.8 3.2-3 3.3-12.5 10.6-5 3.8-6.7 6.7-6.8 10.7h25.5V279M158 224c-7.2 0-10.6 7.4-10.6 23.4 0 16 3.2 23 10.5 23 7.6 0 10.3-6.5 10.3-21.3 0-17.3-2-25-10.3-25zm-.5 56.6c-14.5 0-22.5-11.6-22.5-33 0-21.7 7.4-33.8 24-33.8 15.5 0 21.8 13 21.8 32.6 0 22.4-6 34.2-23.3 34.2zM218.5 279H188v-9h9.7v-39.8l-9 4.8-4.6-7.7 17.2-12h8.7v54.8h8.5v9M242.2 244.5c-5.4 0-8.6 4.7-8.6 12.7 0 8.3 3 13 8.2 13 5.5 0 8.8-5 8.8-13.2 0-8-3-12.5-8.4-12.5zm-.8 36c-13.3 0-20.5-9.8-20.5-28C221 229 232 214 249 214c4.7 0 8.6 1.3 10.2 2.7l-2.7 9c-1.2-.4-3.8-1.7-7.3-1.7-8 0-13.7 5.5-16 15.7 3.4-3.5 6.4-5 11.2-5 12.7 0 17.6 11.2 17.6 22.2 0 14.3-6.5 24-20.8 24z" class="st2"/>
    <path d="M-272.5-6105.5h3643V5552h-3643z" class="st0"/>
    <path d="M-272.5-6105.5h3643V5552h-3643z" class="st0"/>
    <path d="M371.6 334.3v-45.6c0-5.6-1.3-7.2-6.6-7.3v-4h43.5l1 15.7H404c-2-7.4-3-9.7-8.8-9.7h-12v24.3h6.7c5.4 0 7-1.4 7.4-7h4.8v19.8h-4.8c-.4-5.3-2-7-7.4-7h-7v26.4h13c6.4 0 8.3-2.3 9-11.4h5.5v17.3H365v-4c5.4-.3 6.6-1.8 6.6-7.4z" class="st2"/>
</svg>
