<?xml version="1.0" encoding="utf-8"?>
<!-- Generator: Adobe Illustrator 19.1.0, SVG Export Plug-In . SVG Version: 6.00 Build 0)  -->
<svg version="1.1" id="Layer_1" xmlns="http://www.w3.org/2000/svg" xmlns:xlink="http://www.w3.org/1999/xlink" x="0px" y="0px"
	 width="500px" height="143.1px" viewBox="0 0 500 143.1" style="enable-background:new 0 0 500 143.1;" xml:space="preserve">
<style type="text/css">
	.st0{fill:#FFFFFF;}
</style>
<path d="M500,128.9c0,7.9-6.4,14.3-14.3,14.3H14.3c-7.9,0-14.3-6.4-14.3-14.3V14.3C0,6.4,6.4,0,14.3,0h471.5
	c7.9,0,14.3,6.4,14.3,14.3V128.9L500,128.9z"/>
<g>
	<g>
		<path class="st0" d="M109.7,71c0-12,9.8-18,10.5-18.4c-5.6-8.3-14.7-9.4-17.7-9.4c-7.5-0.8-14.7,4.5-18.4,4.5
			c-3.8,0-9.8-4.5-15.8-4.1c-7.9,0-15.4,4.9-19.5,12c-8.6,14.7-2.3,36.4,6,48.5c4.1,6,9,12.4,15,12s8.3-3.8,15.8-3.8
			c7.1,0,9.4,3.8,15.8,3.8c6.4,0,10.5-6,14.7-11.6c4.9-6.8,6.8-13.1,6.8-13.5C122.5,90.2,110.1,85.3,109.7,71z"/>
		<path class="st0" d="M97.7,35.3c3.4-4.1,5.6-9.8,4.9-15.4C97.7,20.3,92,23.3,88.3,27c-3,3.4-5.6,9.4-4.9,14.7
			C89,42.4,94.3,39.4,97.7,35.3z"/>
	</g>
</g>
<g>
	<path class="st0" d="M198,115h-8.6l-4.5-14.7h-16.2l-4.5,14.7h-8.3l16.2-50h9.8L198,115z M183.7,93.9l-4.1-13.1
		c-0.4-1.5-1.1-4.5-2.6-9.4l0,0c-0.4,2.3-1.1,5.3-2.3,9.4l-4.1,13.1H183.7z"/>
	<path class="st0" d="M239.7,96.5c0,6-1.5,10.9-4.9,14.7c-3,3-6.8,4.9-10.9,4.9c-4.9,0-8.3-1.9-10.1-5.3l0,0V130h-7.9V91.3
		c0-3.8,0-7.9-0.4-12h7.1l0.4,5.6l0,0c2.6-4.1,6.8-6.4,12-6.4c4.1,0,7.9,1.5,10.5,4.9C238.2,86.4,239.7,90.9,239.7,96.5z
		 M231.4,96.5c0-3.4-0.8-6.4-2.3-8.6c-1.9-2.3-4.1-3.4-7.1-3.4c-1.9,0-3.8,0.8-5.3,1.9c-1.5,1.5-2.6,3-3,5.3
		c-0.4,1.1-0.4,1.9-0.4,2.6v6c0,2.6,0.8,4.9,2.3,6.8c1.5,1.9,3.8,2.6,6.4,2.6c3,0,5.3-1.1,7.1-3.4
		C230.7,103.7,231.4,100.7,231.4,96.5z"/>
	<path class="st0" d="M281,96.5c0,6-1.5,10.9-4.9,14.7c-3,3-6.8,4.9-10.9,4.9c-4.9,0-8.3-1.9-10.1-5.3l0,0V130h-7.9V91.3
		c0-3.8,0-7.9-0.4-12h7.1l0.4,5.6l0,0c2.6-4.1,6.8-6.4,12-6.4c4.1,0,7.9,1.5,10.5,4.9C279.5,86.4,281,90.9,281,96.5z M272.7,96.5
		c0-3.4-0.8-6.4-2.3-8.6c-1.9-2.3-4.1-3.4-7.1-3.4c-1.9,0-3.8,0.8-5.3,1.9c-1.5,1.5-2.6,3-3,5.3c-0.4,1.1-0.4,1.9-0.4,2.6v6
		c0,2.6,0.8,4.9,2.3,6.8c1.5,1.9,3.8,2.6,6.4,2.6c3,0,5.3-1.1,7.1-3.4C272,103.7,272.7,100.7,272.7,96.5z"/>
	<path class="st0" d="M327.2,100.7c0,4.1-1.5,7.9-4.5,10.5c-3.4,3-7.9,4.5-13.5,4.5c-5.3,0-9.8-1.1-12.8-3l1.9-6.8
		c3.4,2.3,7.5,3.4,11.6,3.4c3,0,5.3-0.8,7.1-1.9c1.5-1.5,2.6-3,2.6-5.6c0-1.9-0.8-3.8-2.3-5.3c-1.5-1.5-3.8-2.6-6.8-3.8
		c-8.6-3.4-13.1-7.9-13.1-14.3c0-4.1,1.5-7.5,4.5-10.1c3-2.6,7.1-3.8,12.4-3.8c4.5,0,8.3,0.8,11.3,2.3l-1.9,6.4
		c-3-1.5-6-2.3-9.4-2.3c-3,0-4.9,0.8-6.8,2.3c-1.5,1.1-1.9,2.6-1.9,4.5s0.8,3.8,2.3,4.9c1.5,1.1,3.8,2.6,7.1,3.8
		c4.1,1.9,7.5,3.8,9.4,6C326.4,94.7,327.2,97.3,327.2,100.7z"/>
	<path class="st0" d="M353.9,84.9h-8.6v17.7c0,4.5,1.5,6.8,4.5,6.8c1.5,0,2.6,0,3.4-0.4l0.4,6c-1.5,0.8-3.8,0.8-6.4,0.8
		c-3,0-5.6-1.1-7.5-3s-2.6-5.3-2.6-9.8v-18h-5.3v-6h5.3v-6.8l7.9-2.3v9h9V84.9z"/>
	<path class="st0" d="M393.7,96.5c0,5.6-1.5,10.1-4.9,13.5c-3.4,3.8-7.9,5.6-13.1,5.6s-9.4-1.9-12.8-5.3c-3.4-3.4-4.9-7.9-4.9-13.1
		c0-5.6,1.5-10.1,4.9-13.9c3.4-3.4,7.5-5.3,13.1-5.3c5.3,0,9.4,1.9,12.8,5.3C392.2,86.8,393.7,91.3,393.7,96.5z M385.4,96.9
		c0-3.4-0.8-6-2.3-8.6c-1.5-3-4.1-4.1-7.1-4.1c-3.4,0-5.6,1.5-7.5,4.1c-1.5,2.3-2.3,5.3-2.3,8.6c0,3.4,0.8,6,2.3,8.6
		c1.9,3,4.1,4.1,7.1,4.1c3,0,5.6-1.5,7.1-4.5C384.7,102.9,385.4,99.9,385.4,96.9z"/>
	<path class="st0" d="M419.6,86c-0.8,0-1.5-0.4-2.6-0.4c-3,0-4.9,1.1-6.4,3.4c-1.5,1.9-1.9,4.1-1.9,7.1V115h-7.9V90.2
		c0-4.1,0-7.9-0.4-11.3h7.1l0.4,6.8h0.4c0.8-2.3,2.3-4.1,4.1-5.6c1.9-1.1,3.8-1.9,5.6-1.9c0.8,0,1.5,0,1.9,0
		C419.6,78.1,419.6,86,419.6,86z"/>
	<path class="st0" d="M455.7,95c0,1.5,0,2.6-0.4,3.8h-24c0,3.4,1.1,6.4,3.4,8.3c1.9,1.5,4.5,2.6,7.9,2.6c3.4,0,6.8-0.8,9.8-1.9
		l1.1,5.6c-3.4,1.5-7.5,2.3-12,2.3c-5.6,0-10.1-1.5-13.1-4.9c-3-3.4-4.9-7.9-4.9-13.1c0-5.3,1.5-10.1,4.5-13.5
		c3-3.8,7.1-5.6,12.8-5.6c5.3,0,9,1.9,11.6,5.6C454.5,86.8,455.7,90.5,455.7,95z M447.8,93.2c0-2.3-0.4-4.5-1.5-6
		c-1.5-2.3-3.4-3.4-6.4-3.4c-2.6,0-4.9,1.1-6.4,3.4c-1.5,1.9-2.3,3.8-2.3,6.4L447.8,93.2L447.8,93.2z"/>
</g>
<g>
	<g>
		<path class="st0" d="M181.1,34.2c0,4.5-1.5,7.9-4.1,10.1c-2.6,1.9-6,3-10.5,3c-2.3,0-4.1,0-5.6-0.4v-24c2.3-0.4,4.5-0.4,6.8-0.4
			c4.1,0,7.5,0.8,9.8,2.6C179.6,27,181.1,30.1,181.1,34.2z M176.6,34.2c0-3-0.8-4.9-2.3-6.8c-1.5-1.5-3.8-2.3-6.8-2.3
			c-1.1,0-2.3,0-3,0.4V44c0.4,0,1.5,0,2.6,0c3,0,5.3-0.8,7.1-2.6C175.8,39.8,176.6,37.6,176.6,34.2z"/>
		<path class="st0" d="M202.9,37.9c0,2.6-0.8,4.9-2.3,6.8c-1.5,1.9-3.8,2.6-6.4,2.6c-2.6,0-4.5-0.8-6.4-2.6
			c-1.5-1.9-2.3-3.8-2.3-6.4s0.8-4.9,2.3-6.8c1.5-1.9,3.8-2.6,6.4-2.6c2.6,0,4.5,0.8,6.4,2.6C202.1,33.1,202.9,35.3,202.9,37.9z
			 M198.7,37.9c0-1.5-0.4-3-1.1-4.1c-0.8-1.5-1.9-2.3-3.4-2.3c-1.5,0-2.6,0.8-3.8,2.3c-0.8,1.1-1.1,2.6-1.1,4.1s0.4,3,1.1,4.1
			c0.8,1.5,1.9,2.3,3.8,2.3c1.5,0,2.6-0.8,3.4-2.3C198.3,41.3,198.7,39.8,198.7,37.9z"/>
		<path class="st0" d="M232.5,29.3L226.9,47h-3.8l-2.3-7.5c-0.8-1.9-1.1-3.8-1.5-5.6l0,0c-0.4,1.9-0.8,3.8-1.5,5.6l-2.3,7.5h-3.8
			l-5.3-17.7h4.1l1.9,8.3c0.4,1.9,0.8,3.8,1.1,5.6l0,0c0.4-1.5,0.8-3.4,1.5-5.6l2.6-8.3h3.4l2.3,8.3c0.8,1.9,1.1,4.1,1.5,6l0,0
			c0.4-1.9,0.8-3.8,1.1-6l2.3-8.3L232.5,29.3L232.5,29.3z"/>
		<path class="st0" d="M252.8,47h-3.8V36.8c0-3-1.1-4.5-3.4-4.5c-1.1,0-2.3,0.4-3,1.1c-0.8,0.8-1.1,1.9-1.1,3V47h-3.8V34.2
			c0-1.5,0-3.4,0-4.9h3.4v2.6l0,0c0.4-0.8,1.1-1.5,1.9-2.3c1.1-0.8,2.3-1.1,3.4-1.1c1.5,0,3,0.4,4.1,1.5c1.5,1.1,1.9,3.4,1.9,6V47
			H252.8z"/>
		<path class="st0" d="M263.7,47H260V21h3.8V47z"/>
		<path class="st0" d="M287,37.9c0,2.6-0.8,4.9-2.3,6.8c-1.5,1.9-3.8,2.6-6.4,2.6c-2.6,0-4.5-0.8-6.4-2.6c-1.5-1.9-2.3-3.8-2.3-6.4
			s0.8-4.9,2.3-6.8c1.5-1.9,3.8-2.6,6.4-2.6c2.6,0,4.5,0.8,6.4,2.6C286.3,33.1,287,35.3,287,37.9z M282.9,37.9c0-1.5-0.4-3-1.1-4.1
			c-0.8-1.5-1.9-2.3-3.4-2.3c-1.5,0-2.6,0.8-3.8,2.3c-0.8,1.1-1.1,2.6-1.1,4.1s0.4,3,1.1,4.1c0.8,1.5,1.9,2.3,3.8,2.3
			c1.5,0,2.6-0.8,3.4-2.3C282.5,41.3,282.9,39.8,282.9,37.9z"/>
		<path class="st0" d="M305.8,47h-3.4l-0.4-1.9l0,0c-1.1,1.5-3,2.6-5.3,2.6c-1.5,0-3-0.4-4.1-1.5c-0.8-1.1-1.5-2.3-1.5-3.8
			c0-2.3,0.8-3.8,2.6-4.9c1.9-1.1,4.5-1.9,7.5-1.5v-0.4c0-2.3-1.1-3.4-3.8-3.4c-1.9,0-3.4,0.4-4.5,1.1l-0.8-2.6
			c1.5-1.1,3.8-1.5,6-1.5c4.5,0,6.8,2.3,6.8,7.1v6.4C305.8,44.3,305.8,45.8,305.8,47z M301.7,40.9v-2.6c-4.5,0-6.4,1.1-6.4,3.4
			c0,0.8,0.4,1.5,0.8,2.3c0.4,0.4,1.1,0.8,1.9,0.8s1.5-0.4,2.3-0.8c0.8-0.4,1.1-1.1,1.5-2.3C301.7,41.3,301.7,41.3,301.7,40.9z"/>
		<path class="st0" d="M328.3,47h-3.4v-3l0,0c-1.1,2.3-3,3.4-5.6,3.4c-2.3,0-3.8-0.8-5.3-2.6c-1.5-1.9-2.3-3.8-2.3-6.4
			c0-3,0.8-5.3,2.3-7.1c1.5-1.5,3.4-2.6,5.6-2.6s4.1,0.8,4.9,2.3l0,0V20.7h3.8v21C327.9,44,328.3,45.5,328.3,47z M324.2,39.4v-3
			c0-0.4,0-0.8,0-1.1c-0.4-1.1-0.8-1.9-1.5-2.3c-0.8-0.8-1.5-1.1-2.6-1.1c-1.5,0-2.6,0.8-3.4,1.9c-0.8,1.1-1.1,2.6-1.1,4.5
			c0,1.9,0.4,3,1.1,4.1c0.8,1.1,1.9,1.9,3.4,1.9c1.1,0,2.3-0.4,3-1.5C323.8,41.7,324.2,40.9,324.2,39.4z"/>
		<path class="st0" d="M361.8,37.9c0,2.6-0.8,4.9-2.3,6.8c-1.5,1.9-3.8,2.6-6.4,2.6c-2.6,0-4.5-0.8-6.4-2.6
			c-1.5-1.9-2.3-3.8-2.3-6.4s0.8-4.9,2.3-6.8c1.5-1.9,3.8-2.6,6.4-2.6c2.6,0,4.5,0.8,6.4,2.6C361,33.1,361.8,35.3,361.8,37.9z
			 M358,37.9c0-1.5-0.4-3-1.1-4.1c-0.8-1.5-1.9-2.3-3.4-2.3c-1.5,0-2.6,0.8-3.8,2.3c-0.8,1.1-1.1,2.6-1.1,4.1s0.4,3,1.1,4.1
			c0.8,1.5,1.9,2.3,3.8,2.3c1.5,0,2.6-0.8,3.4-2.3C357.6,41.3,358,39.8,358,37.9z"/>
		<path class="st0" d="M383.2,47h-3.8V36.8c0-3-1.1-4.5-3.8-4.5c-1.1,0-2.3,0.4-3,1.1c-0.8,0.8-1.1,1.9-1.1,3V47h-3.8V34.2
			c0-1.5,0-3.4,0-4.9h3.4v2.6l0,0c0.4-0.8,1.1-1.5,1.9-2.3c1.1-0.8,2.3-1.1,3.8-1.1s3,0.4,4.1,1.5c1.5,1.1,1.9,3.4,1.9,6V47H383.2z"
			/>
		<path class="st0" d="M409.5,32.3H405v8.6c0,2.3,0.8,3.4,2.3,3.4c0.8,0,1.1,0,1.9,0v3c-0.8,0.4-1.9,0.4-3,0.4
			c-1.5,0-2.6-0.4-3.8-1.5c-0.8-1.1-1.5-2.6-1.5-4.9v-9h-2.6v-3h2.6v-3.4l3.8-1.1v4.5h4.5L409.5,32.3L409.5,32.3z"/>
		<path class="st0" d="M430.5,47h-3.8V36.8c0-3-1.1-4.9-3.4-4.9c-1.9,0-3,0.8-3.8,2.6c0,0.4,0,0.8,0,1.5v10.5h-3.8V20.7h3.8v10.5
			l0,0c1.1-1.9,3-3,5.3-3c1.5,0,3,0.4,4.1,1.5c1.5,1.5,1.9,3.4,1.9,6C430.5,36.4,430.5,47,430.5,47z"/>
		<path class="st0" d="M451.9,37.2c0,0.8,0,1.1,0,1.9h-12c0,1.9,0.8,3,1.9,4.1c1.1,0.8,2.3,1.1,3.8,1.1c1.9,0,3.4-0.4,4.9-0.8
			l0.8,2.6c-1.5,0.8-3.8,1.1-6,1.1c-2.6,0-4.9-0.8-6.4-2.3c-1.5-1.5-2.3-3.8-2.3-6.4c0-2.6,0.8-4.9,2.3-6.8c1.5-1.9,3.8-3,6-3
			c2.6,0,4.5,1.1,5.6,3C451.5,33.1,451.9,34.9,451.9,37.2z M448.2,36.4c0-1.1-0.4-2.3-0.8-3c-0.8-1.1-1.9-1.5-3-1.5s-2.3,0.4-3,1.5
			c-0.8,0.8-1.1,1.9-1.1,3C439.9,36.4,448.2,36.4,448.2,36.4z"/>
	</g>
</g>
</svg>
