<?xml version="1.0" encoding="utf-8"?>
<!-- Generator: Adobe Illustrator 19.1.0, SVG Export Plug-In . SVG Version: 6.00 Build 0)  -->
<svg version="1.1" id="Layer_1" xmlns="http://www.w3.org/2000/svg" xmlns:xlink="http://www.w3.org/1999/xlink" x="0px" y="0px"
	 width="500px" height="143.1px" viewBox="0 0 500 143.1" style="enable-background:new 0 0 500 143.1;" xml:space="preserve">
<style type="text/css">
	.st0{clip-path:url(#SVGID_2_);fill:url(#SVGID_3_);}
	.st1{clip-path:url(#SVGID_5_);fill:url(#SVGID_6_);}
	.st2{clip-path:url(#SVGID_8_);fill:url(#SVGID_9_);}
	.st3{clip-path:url(#SVGID_11_);fill:url(#SVGID_12_);}
	.st4{fill:#F9F9F9;}
</style>
<path d="M500,128.9c0,7.9-6.4,14.3-14.3,14.3H14.3c-7.9,0-14.3-6.4-14.3-14.3V14.3C0,6.4,6.4,0,14.3,0h471.5
	c7.9,0,14.3,6.4,14.3,14.3V128.9L500,128.9z"/>
<g id="PLAY_2_">
	<g>
		<defs>
			<path id="SVGID_1_" d="M107.1,61.2L88.3,50.3c0,0-33.8-19.5-36.1-20.7c-1.9-1.1-4.1-0.4-4.1,1.9c0,4.1,0,41.7,0,41.7
				s0,40.9,0,42.8c0,1.9,1.5,2.6,3,1.5c1.9-1.1,36.8-21.4,36.8-21.4l18.8-10.9c0,0,15.8-9,18-10.5c2.3-1.1,1.9-3,0-3.8
				C123.2,71,107.1,61.2,107.1,61.2z"/>
		</defs>
		<clipPath id="SVGID_2_">
			<use xlink:href="#SVGID_1_"  style="overflow:visible;"/>
		</clipPath>
		
			<linearGradient id="SVGID_3_" gradientUnits="userSpaceOnUse" x1="71.5628" y1="104.1545" x2="71.5628" y2="12.4941" gradientTransform="matrix(1 0 0 -1 0 131.9531)">
			<stop  offset="0" style="stop-color:#257DB0"/>
			<stop  offset="0.208" style="stop-color:#3C90B3"/>
			<stop  offset="0.7416" style="stop-color:#73BDB9"/>
			<stop  offset="1" style="stop-color:#89CEBC"/>
		</linearGradient>
		<polygon class="st0" points="48.5,27.8 48.5,73.6 48.5,119.5 94.7,73.6 		"/>
	</g>
	<g>
		<defs>
			<path id="SVGID_4_" d="M107.1,61.2L88.3,50.3c0,0-33.8-19.5-36.1-20.7c-1.9-1.1-4.1-0.4-4.1,1.9c0,4.1,0,41.7,0,41.7
				s0,40.9,0,42.8c0,1.9,1.5,2.6,3,1.5c1.9-1.1,36.8-21.4,36.8-21.4l18.8-10.9c0,0,15.8-9,18-10.5c2.3-1.1,1.9-3,0-3.8
				C123.2,71,107.1,61.2,107.1,61.2z"/>
		</defs>
		<clipPath id="SVGID_5_">
			<use xlink:href="#SVGID_4_"  style="overflow:visible;"/>
		</clipPath>
		
			<linearGradient id="SVGID_6_" gradientUnits="userSpaceOnUse" x1="48.4598" y1="81.4272" x2="107.0624" y2="81.4272" gradientTransform="matrix(1 0 0 -1 0 131.9531)">
			<stop  offset="0" style="stop-color:#51BFAC"/>
			<stop  offset="1" style="stop-color:#DEE899"/>
		</linearGradient>
		<polygon class="st1" points="107.1,61.2 88.3,50.7 48.5,27.4 48.5,27.8 94.7,73.6 		"/>
	</g>
	<g>
		<defs>
			<path id="SVGID_7_" d="M107.1,61.2L88.3,50.3c0,0-33.8-19.5-36.1-20.7c-1.9-1.1-4.1-0.4-4.1,1.9c0,4.1,0,41.7,0,41.7
				s0,40.9,0,42.8c0,1.9,1.5,2.6,3,1.5c1.9-1.1,36.8-21.4,36.8-21.4l18.8-10.9c0,0,15.8-9,18-10.5c2.3-1.1,1.9-3,0-3.8
				C123.2,71,107.1,61.2,107.1,61.2z"/>
		</defs>
		<clipPath id="SVGID_8_">
			<use xlink:href="#SVGID_7_"  style="overflow:visible;"/>
		</clipPath>
		
			<linearGradient id="SVGID_9_" gradientUnits="userSpaceOnUse" x1="77.7611" y1="58.3243" x2="77.7611" y2="12.2011" gradientTransform="matrix(1 0 0 -1 0 131.9531)">
			<stop  offset="0" style="stop-color:#EB403D"/>
			<stop  offset="0.1937" style="stop-color:#D64252"/>
			<stop  offset="0.7369" style="stop-color:#9F4887"/>
			<stop  offset="1" style="stop-color:#894A9C"/>
		</linearGradient>
		<polygon class="st2" points="48.5,119.5 48.5,119.8 88.3,96.5 107.1,86 94.7,73.6 		"/>
	</g>
	<g>
		<defs>
			<path id="SVGID_10_" d="M107.1,61.2L88.3,50.3c0,0-33.8-19.5-36.1-20.7c-1.9-1.1-4.1-0.4-4.1,1.9c0,4.1,0,41.7,0,41.7
				s0,40.9,0,42.8c0,1.9,1.5,2.6,3,1.5c1.9-1.1,36.8-21.4,36.8-21.4l18.8-10.9c0,0,15.8-9,18-10.5c2.3-1.1,1.9-3,0-3.8
				C123.2,71,107.1,61.2,107.1,61.2z"/>
		</defs>
		<clipPath id="SVGID_11_">
			<use xlink:href="#SVGID_10_"  style="overflow:visible;"/>
		</clipPath>
		
			<linearGradient id="SVGID_12_" gradientUnits="userSpaceOnUse" x1="111.5703" y1="70.6034" x2="111.5703" y2="46.0057" gradientTransform="matrix(1 0 0 -1 0 131.9531)">
			<stop  offset="0" style="stop-color:#F48779"/>
			<stop  offset="0.6121" style="stop-color:#FAB076"/>
			<stop  offset="1" style="stop-color:#FDC674"/>
		</linearGradient>
		<polygon class="st3" points="107.1,61.2 94.7,73.6 107.1,86 128.5,73.6 		"/>
	</g>
</g>
<g>
	<path class="st4" d="M378.7,99.9c-1.9,0-3.8-0.4-5.3-1.1c-1.5-0.8-3-1.9-4.1-3.4h-0.4c0.4,1.9,0.4,3.4,0.4,4.9v12h-4.5V69.5h3.8
		l0.8,4.1h0.4c1.1-1.5,2.6-2.6,4.1-3.4c1.5-0.8,3.4-1.1,5.3-1.1c3.8,0,7.1,1.5,9,4.1c2.3,2.6,3.4,6.4,3.4,11.3s-1.1,8.6-3.4,11.3
		C385.4,98.4,382.4,99.9,378.7,99.9z M377.9,72.9c-3,0-5.3,0.8-6.4,2.6c-1.5,1.5-1.9,4.5-2.3,7.9v1.1c0,4.1,0.8,7.1,2.3,9
		c1.5,1.9,3.8,2.6,6.8,2.6c2.6,0,4.5-1.1,6-3c1.5-2.3,2.3-4.9,2.3-8.6s-0.8-6.4-2.3-8.6C382.4,74,380.5,72.9,377.9,72.9z"/>
	<path class="st4" d="M401.2,99.2h-4.5V57.1h4.5V99.2z"/>
	<path class="st4" d="M426.7,99.2L426,95h-0.4c-1.5,1.9-3,3-4.5,3.8c-1.5,0.8-3.4,1.1-5.6,1.1c-3,0-5.3-0.8-6.8-2.3
		c-1.5-1.5-2.6-3.8-2.6-6.4c0-6,4.9-9,14.3-9.4h4.9V80c0-2.3-0.4-4.1-1.5-5.3c-1.1-1.1-2.6-1.5-4.9-1.5c-2.6,0-5.3,0.8-8.3,2.3
		l-1.5-3.4c1.5-0.8,3-1.5,4.9-1.9s3.4-0.8,5.3-0.8c3.4,0,6,0.8,7.9,2.3c1.9,1.5,2.6,4.1,2.6,7.5v20.3h-3V99.2z M416.6,96.2
		c2.6,0,4.9-0.8,6.8-2.3c1.5-1.5,2.3-3.8,2.3-6.4v-2.6h-4.5c-3.4,0-6,0.8-7.9,1.5c-1.5,1.1-2.3,2.6-2.3,4.5c0,1.5,0.4,3,1.5,3.8
		C413.6,95.8,415.1,96.2,416.6,96.2z"/>
	<path class="st4" d="M432.8,69.5h4.9l6.4,16.9c1.5,3.8,2.3,6.8,2.6,8.3h0.4c0.4-0.8,0.8-2.6,1.5-4.9c0.8-2.3,3-9,7.5-20.7h4.9
		l-12.8,33.8c-1.1,3.4-2.6,5.6-4.5,7.1c-1.5,1.5-3.8,2.3-6,2.3c-1.5,0-2.6,0-4.1-0.4v-3.8c1.1,0.4,2.3,0.4,3.4,0.4
		c3,0,5.3-1.9,6.8-5.3l1.5-4.1L432.8,69.5z"/>
</g>
<g>
	<path class="st4" d="M295.3,72.5c1.5,1.1,4.5,3.8,4.5,8.3c0,4.5-2.6,6.8-5.3,8.6c-0.8,0.8-1.9,1.5-1.9,3c0,1.5,0.8,2.3,1.5,2.6
		l2.3,1.9c2.6,2.3,5.3,4.5,5.3,8.6c0,5.6-5.6,11.6-16.2,11.6c-9,0-13.1-4.1-13.1-9c0-2.3,1.1-5.3,4.9-7.5s9-2.6,11.6-3
		c-0.8-1.1-1.9-2.3-1.9-4.1c0-1.1,0.4-1.5,0.8-2.3c-0.8,0-1.5,0-1.9,0c-6.4,0-10.1-4.9-10.1-9.8c0-3,1.1-6,4.1-8.3
		c3.4-3,7.9-3.4,11.3-3.4h12.8l-4.1,2.3h-4.5V72.5z M291.1,99.9c-0.4,0-0.8,0-1.5,0c-0.4,0-3.8,0-6.4,1.1c-1.5,0.4-5.3,1.9-5.3,6.4
		c0,4.5,4.1,7.5,10.9,7.5c6,0,9-3,9-6.8C297.9,104.8,295.6,103.3,291.1,99.9z M293,88.3c1.5-1.5,1.5-3.4,1.5-4.5
		c0-4.5-2.6-11.3-7.9-11.3c-1.5,0-3.4,0.8-4.5,1.9c-1.1,1.1-1.5,3-1.5,4.5c0,4.1,2.3,10.9,7.9,10.9C290,89.8,291.9,89,293,88.3z"/>
	<path class="st4" d="M256.6,98.8c-9.8,0-15-7.5-15-14.7c0-8.3,6.8-15,16.2-15c9,0,14.7,7.1,14.7,14.7
		C272.4,91.3,266.7,98.8,256.6,98.8z M264.1,93.9c1.5-1.9,1.9-4.5,1.9-6.8c0-5.3-2.6-15.8-10.1-15.8c-1.9,0-4.1,0.8-5.6,2.3
		c-2.3,2.3-3,4.9-3,7.5c0,6,3,16.2,10.5,16.2C260.3,96.9,263,95.8,264.1,93.9z"/>
	<path class="st4" d="M223.1,98.8c-9.8,0-15-7.5-15-14.7c0-8.3,6.8-15,16.2-15c9,0,14.7,7.1,14.7,14.7
		C238.5,91.3,232.9,98.8,223.1,98.8z M230.7,93.9c1.5-1.9,1.9-4.5,1.9-6.8c0-5.3-2.6-15.8-10.1-15.8c-1.9,0-4.1,0.8-5.6,2.3
		c-2.3,2.3-3,4.9-3,7.5c0,6,3,16.2,10.5,16.2C226.9,96.9,229.2,95.8,230.7,93.9z"/>
	<path class="st4" d="M203.2,98l-9,1.9c-3.8,0.4-6.8,1.1-10.1,1.1c-17.3,0-23.7-12.8-23.7-22.5c0-12,9.4-23.3,25.2-23.3
		c3.4,0,6.8,0.4,9.4,1.1c4.5,1.1,6.8,3,8.3,3.8L198,65l-2.3,0.4l1.5-2.6c-2.3-1.9-6-6-13.1-6c-9.8,0-17.3,7.5-17.3,18.4
		c0,11.6,8.3,22.5,22.2,22.5c4.1,0,6-0.8,7.9-1.5V86l-9.4,0.4l4.9-2.6h13.1l-1.5,1.5c-0.4,0.4-0.4,0.4-0.8,1.1c0,0.4,0,2.3,0,3V98z"
		/>
	<path class="st4" d="M315.2,96.2c-1.9,0-2.6-0.4-2.6-3v-0.8V57.9v-0.4c0.4-2.3,0.8-2.6,2.6-3.8h-9l-4.5,2.3h4.9l0,0l0,0v36.4v1.9
		c0,1.1-0.4,1.5-1.5,3.4h10.9l2.3-1.5C317.1,96.2,316.3,96.2,315.2,96.2z"/>
	<path class="st4" d="M340.3,96.5c-0.8,0.4-1.5,0.8-1.9,1.1c-1.9,0.8-4.1,1.1-6,1.1s-4.9,0-8.3-2.3c-4.5-3-6.4-8.3-6.4-13.1
		c0-9.4,7.9-14.3,14.3-14.3c2.3,0,4.5,0.4,6.4,1.9c3,1.9,3.8,4.5,4.1,6l-14.7,6l-4.9,0.4c1.5,7.9,6.8,12.4,12.8,12.4
		c3,0,5.3-1.1,7.5-2.3L340.3,96.5z M334.7,78.1c1.1-0.4,1.9-0.8,1.9-1.5c0-2.6-2.6-5.3-6-5.3c-2.6,0-7.1,1.9-7.1,8.6
		c0,1.1,0,2.3,0,3.4L334.7,78.1z"/>
	<g>
		<path class="st4" d="M346.4,69.9V74H346v-4.1h-1.5v-0.8h3v0.4h-1.1V69.9z"/>
		<path class="st4" d="M352,73.6v-4.1l0,0l-1.1,4.1h-0.4l-1.1-4.1l0,0v4.1H349v-4.5h0.8l1.1,3.8l0,0l1.1-3.8h0.8v4.5H352z"/>
	</g>
</g>
<g>
	<path class="st4" d="M172.8,43.2h-3c0-0.4-0.4-1.5-0.8-3.8h-4.5c-0.8,1.9-0.8,3-0.8,3.8h-3c0-0.4,0.8-2.3,2.3-6
		c1.5-3.8,2.3-6,2.3-6.4h3.8c0,0.4,0.8,2.6,1.9,6.4C172.1,40.9,172.8,42.8,172.8,43.2z M168.3,37.6c-1.1-3.4-1.5-5.3-1.5-5.3l0,0
		c0,0.4-0.8,1.9-1.9,5.3H168.3z"/>
	<path class="st4" d="M185.2,43.2h-2.3c0-0.4-0.8-1.5-2.6-4.1c-1.9-2.6-3-4.5-3-5.6l0,0c0,1.5,0.4,2.6,0.4,3.8c0,1.5,0,3.4,0,5.6
		h-2.3c0-1.9,0-4.1,0-6.4c0-2.3,0-4.5,0-6h3c0,0.4,0.8,1.9,2.3,4.1c1.9,2.6,2.6,4.1,3,5.3l0,0c0-1.5-0.4-2.6-0.4-3.8
		c0-1.9,0-3.4,0-5.3h2.3c0,1.5,0,3.8,0,6C185.2,39.1,185.2,41.3,185.2,43.2z"/>
	<path class="st4" d="M199.1,36.4c0,1.9-0.8,3.4-1.9,4.9c-1.1,1.5-2.6,1.9-4.9,1.9c-1.1,0-2.3,0-3.8,0c0-1.9,0-4.1,0-6.4
		c0-2.3,0-4.5,0-6h1.5c0.4,0,0.8,0,1.1,0c0.4,0,0.8,0,1.1,0c2.3,0,4.1,0.8,4.9,1.9C198.7,33.4,199.1,34.9,199.1,36.4z M196.5,36.8
		c0-1.1-0.4-2.3-1.1-3c-0.8-0.8-1.9-1.1-3.4-1.1c-0.4,0-0.8,0-1.1,0c0,1.1,0,2.6,0,4.1c0,1.5,0,3,0,4.5c0.4,0,0.8,0,1.1,0
		c1.5,0,2.3-0.4,3-1.1C196.1,39.1,196.5,38.3,196.5,36.8z"/>
	<path class="st4" d="M211.9,43.2h-3c-0.8-2.3-1.5-3.8-1.9-4.1s-1.1-0.8-1.9-0.8c-0.4,0-0.8,0-1.1,0c0,1.5,0,3.4,0,4.9h-2.6
		c0-1.9,0-4.1,0-6.4c0-2.3,0-4.5,0-6h1.5c0.4,0,0.8,0,1.1,0c0.8,0,1.1,0,1.9,0c3,0,4.5,1.1,4.5,3c0,1.5-0.8,2.6-2.6,3.4l0,0
		c0.8,0,1.1,0.8,1.9,1.5C210.4,39.4,211.1,40.9,211.9,43.2z M208.5,34.2c0-1.1-0.8-1.9-2.6-1.9c-0.8,0-1.1,0-1.5,0
		c0,1.1,0,2.3,0,3.8c0.4,0,0.8,0,0.8,0C207.4,36.4,208.5,35.7,208.5,34.2z"/>
	<path class="st4" d="M225.8,36.8c0,1.9-0.8,3.8-1.9,4.9s-2.6,1.9-4.5,1.9c-1.9,0-3-0.8-4.1-1.9c-1.1-1.1-1.9-2.6-1.9-4.5
		c0-1.9,0.8-3.8,1.9-4.9s2.6-1.9,4.5-1.9c1.9,0,3,0.8,4.1,1.9C225.4,33.4,225.8,34.9,225.8,36.8z M223.1,36.8c0-1.5-0.4-2.3-1.1-3.4
		c-0.8-0.8-1.5-1.1-2.6-1.1c-1.1,0-1.9,0.4-2.3,1.1c-0.8,0.8-1.1,1.9-1.1,3.4s0.4,2.3,1.1,3.4c0.8,0.8,1.5,1.1,2.6,1.1
		c0.8,0,1.9-0.4,2.3-1.1C222.8,39.4,223.1,38.3,223.1,36.8z"/>
	<path class="st4" d="M231.4,43.2h-2.6c0-1.9,0-4.1,0-6.4c0-2.3,0-4.5,0-6h2.6c0,1.5,0,3.8,0,6C231,39.1,231.4,41.3,231.4,43.2z"/>
	<path class="st4" d="M245.3,36.4c0,1.9-0.8,3.4-1.9,4.9c-1.1,1.5-2.6,1.9-4.9,1.9c-1.1,0-2.3,0-3.8,0c0-1.9,0-4.1,0-6.4
		c0-2.3,0-4.5,0-6h1.5c0.4,0,0.8,0,1.1,0c0.4,0,0.8,0,1.1,0c2.3,0,4.1,0.8,4.9,1.9C244.9,33.4,245.3,34.9,245.3,36.4z M242.7,36.8
		c0-1.1-0.4-2.3-1.1-3c-0.8-0.8-1.9-1.1-3.4-1.1c-0.4,0-0.8,0-1.1,0c0,1.1,0,2.6,0,4.1c0,1.5,0,3,0,4.5c0.4,0,0.8,0,1.1,0
		c1.5,0,2.3-0.4,3-1.1C242.3,39.1,242.7,38.3,242.7,36.8z"/>
	<path class="st4" d="M263.7,43.2h-3c0-0.4-0.4-1.5-0.8-3.8h-4.5c-0.8,1.9-0.8,3-0.8,3.8h-3c0-0.4,0.8-2.3,2.3-6
		c1.5-3.8,2.3-6,2.3-6.4h3.8c0,0.4,0.8,2.6,1.9,6.4C263.3,40.9,263.7,42.8,263.7,43.2z M259.6,37.6c-1.1-3.4-1.5-5.3-1.5-5.3l0,0
		c0,0.4-0.8,1.9-1.9,5.3H259.6z"/>
	<path class="st4" d="M275,33.8c0,1.5-0.8,2.6-1.9,3.4c-1.1,0.8-2.6,1.1-4.1,1.1c-0.4,0-0.4,0-0.8,0c0,1.1,0,2.6,0,4.9h-2.6
		c0-1.9,0-4.1,0-6.4c0-2.3,0-4.1,0-6h1.5c0.4,0,0.8,0,1.5,0c0.8,0,1.1,0,1.9,0c1.1,0,2.3,0.4,3,0.8C274.6,31.9,275,32.7,275,33.8z
		 M272.7,34.6c0-1.5-0.8-1.9-2.6-1.9c-0.4,0-1.1,0-1.5,0c0,1.1,0,2.6,0,4.1h0.4C271.6,36.8,272.7,36.1,272.7,34.6z"/>
	<path class="st4" d="M286.6,33.8c0,1.5-0.8,2.6-1.9,3.4c-1.1,0.8-2.6,1.1-4.1,1.1c-0.4,0-0.4,0-0.8,0c0,1.1,0,2.6,0,4.9h-2.6
		c0-1.9,0-4.1,0-6.4c0-2.3,0-4.1,0-6h1.5c0.4,0,0.8,0,1.5,0c0.8,0,1.1,0,1.9,0c1.1,0,2.3,0.4,3,0.8
		C286.3,31.9,286.6,32.7,286.6,33.8z M284.4,34.6c0-1.5-0.8-1.9-2.6-1.9c-0.4,0-1.1,0-1.5,0c0,1.1,0,2.6,0,4.1h0.4
		C282.9,36.8,284.4,36.1,284.4,34.6z"/>
	<path class="st4" d="M305.8,36.8c0,1.9-0.8,3.8-1.9,4.9s-2.6,1.9-4.5,1.9s-3-0.8-4.1-1.9c-1.1-1.1-1.9-2.6-1.9-4.5
		c0-1.9,0.8-3.8,1.9-4.9s2.6-1.9,4.5-1.9c1.9,0,3,0.8,4.1,1.9S305.8,34.9,305.8,36.8z M302.8,36.8c0-1.5-0.4-2.3-1.1-3.4
		c-0.8-0.8-1.5-1.1-2.6-1.1c-1.1,0-1.9,0.4-2.3,1.1c-0.8,0.8-1.1,1.9-1.1,3.4s0.4,2.3,1.1,3.4c0.8,0.8,1.5,1.1,2.6,1.1
		c1.1,0,1.9-0.4,2.3-1.1C302.8,39.4,302.8,38.3,302.8,36.8z"/>
	<path class="st4" d="M318.6,43.2h-2.3c0-0.4-0.8-1.5-2.6-4.1c-1.9-2.6-3-4.5-3-5.6l0,0c0,1.5,0.4,2.6,0.4,3.8c0,1.5,0,3.4,0,5.6
		h-2.6c0-1.9,0-4.1,0-6.4c0-2.3,0-4.5,0-6h3c0,0.4,0.8,1.9,2.3,4.1c1.9,2.6,2.6,4.1,3,5.3l0,0c0-1.5-0.4-2.6-0.4-3.8
		c0-1.9,0-3.4,0-5.3h2.3c0,1.5,0,3.8,0,6C318.6,39.1,318.6,41.3,318.6,43.2z"/>
</g>
</svg>
