<?xml version="1.0" encoding="utf-8"?>
<!-- Generator: Adobe Illustrator 19.1.0, SVG Export Plug-In . SVG Version: 6.00 Build 0)  -->
<svg version="1.1" id="Layer_1" xmlns="http://www.w3.org/2000/svg" xmlns:xlink="http://www.w3.org/1999/xlink" x="0px" y="0px"
	 width="500.7px" height="504.9px" viewBox="0 0 500.7 504.9" style="enable-background:new 0 0 500.7 504.9;" xml:space="preserve"
	>
<style type="text/css">
	.st0{fill:none;}
	.st1{fill:#E11F26;}
	.st2{fill-rule:evenodd;clip-rule:evenodd;fill:#FFFFFF;}
</style>
<path class="st0" d="M389.6,457.2c-10.3,0-18.7,8.4-18.7,18.7c0,10.3,8.4,18.7,18.7,18.7s18.7-8.4,18.7-18.7
	C408.3,465.6,399.9,457.2,389.6,457.2z"/>
<path class="st0" d="M178.5,452.4c-9.7,0-18.1,7.8-18.1,18.1c0,9.7,7.8,18.1,18.1,18.1c9.7,0,18.1-8.4,18.1-18.1
	C196.6,460.8,188.8,452.4,178.5,452.4z"/>
<path class="st1" d="M330,123.8V67.6c0-6.6-5.5-12.8-12.8-12.8H38.6C32,54.8,26,60.3,26,67.6V427c0,6.6,5,12.7,13,12.7v1.1h239
	V165.3c0-22.9,18.7-41.5,41.1-41.5H330z"/>
<path class="st1" d="M311.8,179.8c-5.4,0-9.8,4.2-9.8,10.2v246.7c0,5.4,3.8,10.1,9.8,10.1H468c5.4,0,10-4.1,10-10.1V190
	c0-5.4-3.9-10.2-10-10.2H311.8z"/>
<path d="M459,123.8H356V40.4c0-22.3-17.6-40.6-40-40.6H40.4C18.1-0.2,0,18.1,0,40.4v422.2c0,22.3,18.1,40.2,40.4,40.2H459
	c22.3,0,41-17.8,41-40.8V164.7C499.4,142.3,481.3,123.8,459,123.8z M278,440.8H39v-1.1c-8,0-13-6-13-12.7V67.6
	c0-7.2,6-12.8,12.6-12.8h278.6c7.2,0,12.8,6.2,12.8,12.8v56.2h-10.9c-22.3,0-41.1,18.6-41.1,41.5V440.8z M478,436.7
	c0,6-4.5,10.1-10,10.1H311.8c-6,0-9.8-4.7-9.8-10.1V190c0-6,4.4-10.2,9.8-10.2H468c6,0,10,4.8,10,10.2V436.7z M178.5,488.5
	c-10.3,0-18.1-8.4-18.1-18.1c0-10.3,8.4-18.1,18.1-18.1c10.3,0,18.1,8.4,18.1,18.1C196.6,480.1,188.2,488.5,178.5,488.5z
	 M389.6,494.6c-10.3,0-18.7-8.4-18.7-18.7c0-10.3,8.4-18.7,18.7-18.7c10.3,0,18.7,8.4,18.7,18.7
	C408.3,486.1,399.9,494.6,389.6,494.6z"/>
<rect x="-272.5" y="-6105.5" class="st0" width="3642.9" height="11657.4"/>
<rect x="-272.5" y="-6105.5" class="st0" width="3642.9" height="11657.4"/>
<polyline class="st2" points="104.4,181.6 104.1,185.7 98.9,185.7 98.9,205.4 94.1,205.4 94.1,185.7 88.9,185.7 88.9,181.6 
	104.4,181.6 "/>
<path class="st2" d="M119.7,205.4h-4.5v-11.3c0-2.1-0.5-2.9-1.9-2.9c-1.1,0-1.9,0.4-3,1.4v12.8h-4.5v-24.7l4.5-0.3v9.3
	c1.4-1.4,3-2,4.9-2c1.7,0,3.1,0.7,3.9,1.9c0.5,0.9,0.7,1.8,0.7,3.6V205.4"/>
<path class="st2" d="M133.2,194.8c0-2.7-0.8-4-2.6-4c-1.8,0-2.8,1.4-3,4H133.2z M137.6,198h-10.1c0.1,3,1.3,4.4,3.9,4.4
	c2.3,0,3.8-0.9,4.6-1.4l1.4,3.2c-1,0.7-3.2,1.8-6.5,1.8c-5.6,0-7.9-3.8-7.9-9c0-5.6,2.7-9.3,7.7-9.3c4.6,0,6.9,3.2,6.9,9.5
	C137.7,197.5,137.7,197.8,137.6,198z"/>
<polyline class="st2" points="174,181.6 169.1,205.4 163.8,205.4 159.9,187.6 156,205.4 150.7,205.4 145.8,181.6 150.9,181.2 
	153.7,198.8 157.2,181.6 162.6,181.6 166.1,198.8 168.9,181.2 174,181.6 "/>
<path class="st2" d="M181.8,191.2c-2,0-2.8,1.7-2.8,5.7c0,4,0.8,5.7,2.9,5.7c2.1,0,2.9-1.7,2.9-5.6
	C184.8,192.8,183.9,191.2,181.8,191.2z M181.9,206c-4.8,0-7.7-3.4-7.7-9.2c0-2.8,0.7-5,2-6.6c1.5-1.8,3.2-2.5,5.8-2.5
	c4.6,0,7.5,3.5,7.5,9.1C189.5,202.4,186.6,206,181.9,206z"/>
<path class="st2" d="M201.1,191.9c-0.3-0.2-0.8-0.3-1.5-0.3c-0.7,0-1.8,0.9-2.5,1.7v12.1h-4.5v-12.3c0-1.2-0.2-3.3-0.7-4.7l4.3-0.5
	c0.4,0.6,0.5,1.5,0.6,2c1.1-1.3,2.2-2.3,3.5-2.3c1,0,1.7,0.3,2,0.9L201.1,191.9"/>
<polyline class="st2" points="208.3,205.4 203.8,205.4 203.8,180.7 208.3,180.4 208.3,205.4 "/>
<path class="st2" d="M221.7,191.8c-0.8-0.4-1.7-0.6-2.5-0.6c-2.2,0-3,1.9-3,5.7c0,4,0.8,5.7,2.7,5.7c1.1,0,2-0.4,2.8-1.2V191.8z
	 M226.1,205.4h-3.8l-0.4-1.1c-1.4,1.2-3.2,1.7-4.6,1.7c-3.7,0-5.7-3.2-5.7-8.8c0-3.4,0.6-5.7,2.1-7.4c1.2-1.4,2.7-2.1,4.5-2.1
	c1.2,0,2.2,0.3,3.5,1v-7.9l4.5-0.3V205.4z"/>
<path class="st2" d="M237.4,188.3h4.5v17.1h-4.5V188.3z M239.6,185.8c-1.5,0-2.7-1.1-2.7-2.7c0-1.5,1.2-2.7,2.7-2.7
	c1.5,0,2.7,1.2,2.7,2.7C242.3,184.6,241.1,185.8,239.6,185.8z"/>
<path class="st2" d="M260,205.4h-4.5v-11.3c0-2.1-0.5-2.9-1.9-2.9c-1.1,0-1.9,0.4-3,1.4v12.8h-4.5v-12.3c0-1.2-0.2-3.3-0.7-4.7
	l4.3-0.5c0.4,0.6,0.5,1.4,0.6,2c1.6-1.6,3.3-2.3,5.1-2.3c1.7,0,3.1,0.7,3.9,1.9c0.5,0.9,0.7,1.8,0.7,3.6V205.4"/>
<path class="st2" d="M130.1,279h-39c0-8.1,0.6-13.6,3-17.9c2.8-5,5.2-7.3,15.4-15.1c6.5-4.9,8.7-8.4,8.7-13.7c0-5.1-2.9-8-7.9-8
	c-6.9,0-9,6.5-10.5,10l-9.6-3.6c3.3-10.2,9-16.9,21.3-16.9c11.6,0,18.3,6.7,18.3,18.1c0,6.1-1.8,11-5.7,15.2
	c-2.9,3.1-3.2,3.2-12.6,10.5c-5,3.8-6.7,6.7-6.8,10.7h25.5V279"/>
<path class="st2" d="M158,224c-7.2,0-10.6,7.4-10.6,23.4c0,16.1,3.2,23.1,10.5,23.1c7.7,0,10.4-6.6,10.4-21.4
	C168.3,231.7,166.3,224,158,224z M157.5,280.6c-14.5,0-22.5-11.6-22.5-32.9c0-21.8,7.4-33.9,24-33.9c15.5,0,21.8,13,21.8,32.6
	C180.7,268.8,174.8,280.6,157.5,280.6z"/>
<polyline class="st2" points="218.5,279 188.1,279 188.1,270.1 197.7,270.1 197.7,230.2 188.7,235 184.1,227.3 201.2,215.4 
	209.9,215.4 209.9,270.1 218.5,270.1 218.5,279 "/>
<path class="st2" d="M242.2,244.5c-5.4,0-8.6,4.7-8.6,12.7c0,8.3,3,12.9,8.2,12.9c5.5,0,8.8-4.8,8.8-13.1
	C250.6,248.9,247.6,244.5,242.2,244.5z M241.4,280.6c-13.3,0-20.5-9.9-20.5-28c0-23.6,11.1-38.8,28.3-38.8c4.7,0,8.6,1.3,10.2,2.7
	l-2.7,9c-1.2-0.4-3.8-1.7-7.3-1.7c-8.1,0-13.7,5.5-16.1,15.7c3.5-3.5,6.5-4.9,11.3-4.9c12.7,0,17.6,11.1,17.6,22.1
	C262.2,271,255.7,280.6,241.4,280.6z"/>
<rect x="-272.5" y="-6105.5" class="st0" width="3642.9" height="11657.4"/>
<rect x="-272.5" y="-6105.5" class="st0" width="3642.9" height="11657.4"/>
<path class="st2" d="M371.6,334.3v-45.6c0-5.6-1.3-7.2-6.6-7.3v-4.1h43.5l1,15.8h-5.4c-2-7.5-3.1-9.8-8.9-9.8h-12.1v24.3h6.8
	c5.5,0,7.2-1.4,7.5-7h4.8v19.8h-4.8c-0.4-5.3-1.9-7-7.4-7h-6.9v26.4H396c6.4,0,8.3-2.3,9-11.4h5.5v17.3H365v-4.1
	C370.4,341.4,371.6,339.9,371.6,334.3z"/>
</svg>
