<?xml version="1.0" encoding="utf-8"?>
<!-- Generator: Adobe Illustrator 19.1.0, SVG Export Plug-In . SVG Version: 6.00 Build 0)  -->
<svg version="1.1" baseProfile="tiny" id="Layer_1" xmlns="http://www.w3.org/2000/svg" xmlns:xlink="http://www.w3.org/1999/xlink"
	 x="0px" y="0px" width="134px" height="168.6px" viewBox="0 0 134 168.6" xml:space="preserve">
<rect fill="#E7EBEA" width="134" height="168.6"/>
<g>
	<line fill="none" x1="18.3" y1="145.6" x2="118" y2="145.6"/>
	<g>
		<g>
			<line fill="none" stroke="#000000" stroke-width="0.25" x1="18.3" y1="145.6" x2="18.3" y2="142.9"/>
			<line fill="none" stroke="#000000" stroke-width="0.25" x1="28.2" y1="145.6" x2="28.2" y2="142.9"/>
			<line fill="none" stroke="#000000" stroke-width="0.25" x1="38.2" y1="145.6" x2="38.2" y2="142.9"/>
			<line fill="none" stroke="#000000" stroke-width="0.25" x1="48.2" y1="145.6" x2="48.2" y2="142.9"/>
			<line fill="none" stroke="#000000" stroke-width="0.25" x1="58.2" y1="145.6" x2="58.2" y2="142.9"/>
			<line fill="none" stroke="#000000" stroke-width="0.25" x1="68.1" y1="145.6" x2="68.1" y2="142.9"/>
			<line fill="none" stroke="#000000" stroke-width="0.25" x1="78.1" y1="145.6" x2="78.1" y2="142.9"/>
			<line fill="none" stroke="#000000" stroke-width="0.25" x1="88.1" y1="145.6" x2="88.1" y2="142.9"/>
			<line fill="none" stroke="#000000" stroke-width="0.25" x1="98" y1="145.6" x2="98" y2="142.9"/>
			<line fill="none" stroke="#000000" stroke-width="0.25" x1="108" y1="145.6" x2="108" y2="142.9"/>
			<line fill="none" stroke="#000000" stroke-width="0.25" x1="118" y1="145.6" x2="118" y2="142.9"/>
		</g>
		<g>
		</g>
	</g>
</g>
<g>
	<g>
		<g>
			<path fill="#121517" d="M15.8,147.1c-0.3,0-0.5-0.1-0.7-0.3c-0.2-0.3-0.3-0.8-0.3-1.4c0-1.1,0.4-1.8,1.1-1.8c0.6,0,1,0.6,1,1.7
				C16.8,146.5,16.4,147.1,15.8,147.1z M15.8,144c-0.4,0-0.6,0.5-0.6,1.4c0,0.5,0.1,0.8,0.2,1.1c0.1,0.2,0.2,0.3,0.4,0.3
				c0.2,0,0.4-0.1,0.5-0.4c0.1-0.3,0.2-0.6,0.2-1.1C16.4,144.4,16.2,144,15.8,144z"/>
		</g>
		<g>
			<path fill="#121517" d="M12.8,119.7c-0.2,0-0.4,0-0.6-0.1c-0.1,0-0.1,0-0.1-0.1c0,0,0,0,0,0l0.1-0.2c0,0,0,0,0,0c0,0,0,0,0.1,0
				c0.1,0.1,0.3,0.1,0.5,0.1c0.3,0,0.5-0.1,0.6-0.2c0.1-0.1,0.2-0.4,0.2-0.6c0-0.4-0.2-0.7-0.5-0.7c-0.2,0-0.4,0.1-0.6,0.3
				c0,0,0,0-0.1,0l0,0l-0.2-0.1c0,0-0.1,0-0.1-0.1c0,0,0,0,0,0l0.2-1.7c0-0.1,0-0.1,0.1-0.1h1.3c0.1,0,0.1,0,0.1,0.1v0.2
				c0,0.1,0,0.1-0.1,0.1h-1.1l-0.1,1.1c0.2-0.2,0.4-0.2,0.6-0.2c0.5,0,0.9,0.4,0.9,1C14,119.2,13.5,119.7,12.8,119.7z"/>
			<path fill="#121517" d="M15.6,119.7c-0.3,0-0.5-0.1-0.7-0.3c-0.2-0.3-0.3-0.8-0.3-1.4c0-1.1,0.4-1.8,1.1-1.8c0.6,0,1,0.6,1,1.7
				C16.6,119.1,16.3,119.7,15.6,119.7z M15.6,116.5c-0.4,0-0.6,0.5-0.6,1.4c0,0.5,0.1,0.8,0.2,1.1c0.1,0.2,0.2,0.3,0.4,0.3
				c0.2,0,0.4-0.1,0.5-0.4c0.1-0.3,0.2-0.6,0.2-1.1C16.2,117,16,116.5,15.6,116.5z"/>
		</g>
		<g>
			<path fill="#121517" d="M11.6,92.1C11.6,92.2,11.6,92.2,11.6,92.1l-1.4,0.1c-0.1,0-0.1,0-0.1-0.1v-0.2c0-0.1,0-0.1,0.1-0.1h0.5
				v-2.6L10,89.7c0,0,0,0-0.1,0c0,0,0,0,0,0l-0.1-0.1c0,0,0,0,0-0.1c0,0,0,0,0,0l0.9-0.7H11c0.1,0,0.1,0,0.1,0.1v3h0.4
				c0.1,0,0.1,0,0.1,0.1V92.1z"/>
			<path fill="#121517" d="M13.1,92.2c-0.3,0-0.5-0.1-0.7-0.3c-0.2-0.3-0.3-0.8-0.3-1.4c0-1.1,0.4-1.8,1.1-1.8c0.6,0,1,0.6,1,1.7
				C14.1,91.6,13.7,92.2,13.1,92.2z M13.1,89.1c-0.4,0-0.6,0.5-0.6,1.4c0,0.5,0.1,0.8,0.2,1.1c0.1,0.2,0.2,0.3,0.4,0.3
				c0.2,0,0.4-0.1,0.5-0.4c0.1-0.3,0.2-0.6,0.2-1.1C13.7,89.5,13.5,89.1,13.1,89.1z"/>
			<path fill="#121517" d="M15.6,92.2c-0.3,0-0.5-0.1-0.7-0.3c-0.2-0.3-0.3-0.8-0.3-1.4c0-1.1,0.4-1.8,1.1-1.8c0.6,0,1,0.6,1,1.7
				C16.6,91.6,16.3,92.2,15.6,92.2z M15.6,89.1c-0.4,0-0.6,0.5-0.6,1.4c0,0.5,0.1,0.8,0.2,1.1c0.1,0.2,0.2,0.3,0.4,0.3
				c0.2,0,0.4-0.1,0.5-0.4c0.1-0.3,0.2-0.6,0.2-1.1C16.2,89.5,16,89.1,15.6,89.1z"/>
		</g>
		<g>
			<path fill="#121517" d="M11.5,64.6C11.5,64.7,11.5,64.7,11.5,64.6l-1.4,0.1c-0.1,0-0.1,0-0.1-0.1v-0.2c0-0.1,0-0.1,0.1-0.1h0.5
				v-2.6l-0.7,0.4c0,0,0,0-0.1,0c0,0,0,0,0,0l-0.1-0.1c0,0,0,0,0-0.1c0,0,0,0,0,0l0.9-0.7h0.3c0.1,0,0.1,0,0.1,0.1v3h0.4
				c0.1,0,0.1,0,0.1,0.1V64.6z"/>
			<path fill="#121517" d="M12.8,64.8c-0.2,0-0.4,0-0.6-0.1c-0.1,0-0.1,0-0.1-0.1c0,0,0,0,0,0l0.1-0.2c0,0,0,0,0,0c0,0,0,0,0.1,0
				c0.1,0.1,0.3,0.1,0.5,0.1c0.3,0,0.5-0.1,0.6-0.2c0.1-0.1,0.2-0.4,0.2-0.6c0-0.4-0.2-0.7-0.5-0.7c-0.2,0-0.4,0.1-0.6,0.3
				c0,0,0,0-0.1,0l0,0l-0.2-0.1c0,0-0.1,0-0.1-0.1c0,0,0,0,0,0l0.2-1.7c0-0.1,0-0.1,0.1-0.1h1.3c0.1,0,0.1,0,0.1,0.1v0.2
				c0,0.1,0,0.1-0.1,0.1h-1.1l-0.1,1.1c0.2-0.2,0.4-0.2,0.6-0.2c0.5,0,0.9,0.4,0.9,1C14,64.3,13.5,64.8,12.8,64.8z"/>
			<path fill="#121517" d="M15.6,64.8c-0.3,0-0.5-0.1-0.7-0.3c-0.2-0.3-0.3-0.8-0.3-1.4c0-1.1,0.4-1.8,1.1-1.8c0.6,0,1,0.6,1,1.7
				C16.6,64.2,16.3,64.8,15.6,64.8z M15.6,61.6c-0.4,0-0.6,0.5-0.6,1.4c0,0.5,0.1,0.8,0.2,1.1c0.1,0.2,0.2,0.3,0.4,0.3
				c0.2,0,0.4-0.1,0.5-0.4c0.1-0.3,0.2-0.6,0.2-1.1C16.2,62.1,16,61.6,15.6,61.6z"/>
		</g>
		<g>
			<path fill="#121517" d="M11.4,37.2C11.4,37.3,11.4,37.3,11.4,37.2l-1.8,0.1c-0.1,0-0.1,0-0.1-0.1c0-0.8,0.2-1.2,0.9-1.7
				c0.3-0.2,0.4-0.3,0.4-0.4C11,35,11,34.9,11,34.7c0-0.3-0.2-0.6-0.5-0.6c-0.3,0-0.4,0.1-0.6,0.5c0,0,0,0,0,0c0,0,0,0,0,0l-0.2-0.1
				c0,0,0,0,0,0c0-0.1,0.1-0.3,0.2-0.5c0.2-0.2,0.4-0.4,0.7-0.4c0.5,0,0.9,0.4,0.9,1c0,0.4-0.1,0.6-0.6,1c-0.5,0.4-0.7,0.7-0.8,1.1
				h1.3c0.1,0,0.1,0,0.1,0.1V37.2z"/>
			<path fill="#121517" d="M13.1,37.3c-0.3,0-0.5-0.1-0.7-0.3c-0.2-0.3-0.3-0.8-0.3-1.4c0-1.1,0.4-1.8,1.1-1.8c0.6,0,1,0.6,1,1.7
				C14.1,36.7,13.7,37.3,13.1,37.3z M13.1,34.2c-0.4,0-0.6,0.5-0.6,1.4c0,0.5,0.1,0.8,0.2,1.1c0.1,0.2,0.2,0.3,0.4,0.3
				c0.2,0,0.4-0.1,0.5-0.4c0.1-0.3,0.2-0.6,0.2-1.1C13.7,34.6,13.5,34.2,13.1,34.2z"/>
			<path fill="#121517" d="M15.6,37.3c-0.3,0-0.5-0.1-0.7-0.3c-0.2-0.3-0.3-0.8-0.3-1.4c0-1.1,0.4-1.8,1.1-1.8c0.6,0,1,0.6,1,1.7
				C16.6,36.7,16.3,37.3,15.6,37.3z M15.6,34.2c-0.4,0-0.6,0.5-0.6,1.4c0,0.5,0.1,0.8,0.2,1.1c0.1,0.2,0.2,0.3,0.4,0.3
				c0.2,0,0.4-0.1,0.5-0.4c0.1-0.3,0.2-0.6,0.2-1.1C16.2,34.6,16,34.2,15.6,34.2z"/>
		</g>
	</g>
	<line fill="none" stroke="#000000" stroke-width="0.25" stroke-miterlimit="10" x1="18.3" y1="145.6" x2="18.3" y2="35.8"/>
	<g>
		<g>
			<line fill="none" stroke="#000000" stroke-width="0.25" x1="18.3" y1="145.6" x2="20.8" y2="145.6"/>
			<line fill="none" stroke="#000000" stroke-width="0.25" x1="18.3" y1="118.1" x2="20.8" y2="118.1"/>
			<line fill="none" stroke="#000000" stroke-width="0.25" x1="18.3" y1="90.7" x2="20.8" y2="90.7"/>
			<line fill="none" stroke="#000000" stroke-width="0.25" x1="18.3" y1="63.2" x2="20.8" y2="63.2"/>
			<line fill="none" stroke="#000000" stroke-width="0.25" x1="18.3" y1="35.8" x2="20.8" y2="35.8"/>
		</g>
		<g>
		</g>
	</g>
</g>
<g>
	<g>
		<g>
			<rect x="23.3" y="66.2" fill-rule="evenodd" fill="#78A384" width="3.5" height="79.4"/>
			<rect x="33.2" y="60.4" fill-rule="evenodd" fill="#78A384" width="3.5" height="85.2"/>
			<rect x="43.2" y="59.6" fill-rule="evenodd" fill="#78A384" width="3.5" height="86"/>
			<rect x="53.2" y="60.7" fill-rule="evenodd" fill="#78A384" width="3.5" height="84.9"/>
			<rect x="63.1" y="57.1" fill-rule="evenodd" fill="#78A384" width="3.5" height="88.5"/>
			<rect x="73.1" y="60.3" fill-rule="evenodd" fill="#78A384" width="3.5" height="85.3"/>
			<rect x="83.1" y="59.1" fill-rule="evenodd" fill="#78A384" width="3.5" height="86.5"/>
			<rect x="93.1" y="58.9" fill-rule="evenodd" fill="#78A384" width="3.5" height="86.7"/>
			<rect x="103" y="58.4" fill-rule="evenodd" fill="#78A384" width="3.5" height="87.2"/>
			<rect x="113" y="57.8" fill-rule="evenodd" fill="#78A384" width="3.5" height="87.8"/>
		</g>
	</g>
	<g>
		<g>
			<rect x="19.8" y="70.4" fill-rule="evenodd" fill="#006F3B" width="3.5" height="75.2"/>
			<rect x="29.7" y="65.6" fill-rule="evenodd" fill="#006F3B" width="3.5" height="80"/>
			<rect x="39.7" y="70.1" fill-rule="evenodd" fill="#006F3B" width="3.5" height="75.5"/>
			<rect x="49.7" y="71.4" fill-rule="evenodd" fill="#006F3B" width="3.5" height="74.2"/>
			<rect x="59.7" y="70.8" fill-rule="evenodd" fill="#006F3B" width="3.5" height="74.8"/>
			<rect x="69.6" y="69.9" fill-rule="evenodd" fill="#006F3B" width="3.5" height="75.7"/>
			<rect x="79.6" y="68.8" fill-rule="evenodd" fill="#006F3B" width="3.5" height="76.8"/>
			<rect x="89.6" y="69.2" fill-rule="evenodd" fill="#006F3B" width="3.5" height="76.4"/>
			<rect x="99.5" y="67.5" fill-rule="evenodd" fill="#006F3B" width="3.5" height="78.1"/>
			<rect x="109.5" y="65.7" fill-rule="evenodd" fill="#006F3B" width="3.5" height="79.9"/>
		</g>
	</g>
</g>
<g>
	<g>
	</g>
	<g>
	</g>
</g>
<g>
	<line fill="none" x1="17.8" y1="35.8" x2="118" y2="35.8"/>
	<g>
		<g>
			<line fill="none" x1="17.8" y1="35.8" x2="17.8" y2="38.5"/>
			<line fill="none" x1="27.8" y1="35.8" x2="27.8" y2="38.5"/>
			<line fill="none" x1="37.9" y1="35.8" x2="37.9" y2="38.5"/>
			<line fill="none" x1="47.9" y1="35.8" x2="47.9" y2="38.5"/>
			<line fill="none" x1="57.9" y1="35.8" x2="57.9" y2="38.5"/>
			<line fill="none" x1="67.9" y1="35.8" x2="67.9" y2="38.5"/>
			<line fill="none" x1="77.9" y1="35.8" x2="77.9" y2="38.5"/>
			<line fill="none" x1="87.9" y1="35.8" x2="87.9" y2="38.5"/>
			<line fill="none" x1="98" y1="35.8" x2="98" y2="38.5"/>
			<line fill="none" x1="108" y1="35.8" x2="108" y2="38.5"/>
			<line fill="none" x1="118" y1="35.8" x2="118" y2="38.5"/>
		</g>
		<g>
		</g>
	</g>
</g>
<g>
	<g>
		<g>
			<path d="M121.1,146.2C121.1,146.3,121.1,146.3,121.1,146.2l-1.3,0.1c-0.1,0-0.1,0-0.1-0.1V146c0-0.1,0-0.1,0.1-0.1h1.3
				c0.1,0,0.1,0,0.1,0.1V146.2z"/>
			<path d="M123.4,147.1c-0.2,0.2-0.5,0.3-0.8,0.3c-0.6,0-1.1-0.4-1.1-0.9c0-0.2,0.1-0.5,0.3-0.6c0.1-0.1,0.2-0.2,0.4-0.2
				c-0.4-0.2-0.6-0.4-0.6-0.8c0-0.2,0.1-0.4,0.2-0.6c0.2-0.2,0.4-0.2,0.7-0.2c0.5,0,0.9,0.3,0.9,0.8c0,0.4-0.2,0.6-0.6,0.8
				c0.5,0.2,0.7,0.5,0.7,0.9C123.6,146.7,123.5,146.9,123.4,147.1z M122.6,145.8c-0.2,0.1-0.2,0.1-0.3,0.2c-0.2,0.1-0.3,0.3-0.3,0.5
				c0,0.3,0.3,0.5,0.7,0.5c0.4,0,0.6-0.2,0.6-0.5C123.2,146.2,123,146,122.6,145.8z M122.6,144.4c-0.3,0-0.5,0.2-0.5,0.5
				c0,0.3,0.2,0.4,0.5,0.6c0.4-0.2,0.5-0.3,0.5-0.6C123.1,144.6,122.9,144.4,122.6,144.4z"/>
		</g>
		<g>
			<path d="M121.1,127.9C121.1,127.9,121.1,128,121.1,127.9l-1.3,0.1c-0.1,0-0.1,0-0.1-0.1v-0.2c0-0.1,0-0.1,0.1-0.1h1.3
				c0.1,0,0.1,0,0.1,0.1V127.9z"/>
			<path d="M123.5,126l-1.2,3c0,0,0,0,0,0c0,0,0,0,0,0l-0.3,0c0,0-0.1,0-0.1,0c0,0,0,0,0,0l1.1-2.8h-1.3c-0.1,0-0.1,0-0.1-0.1v-0.2
				c0-0.1,0-0.1,0.1-0.1h1.7c0.1,0,0.1,0,0.1,0.1V126z"/>
		</g>
		<g>
			<path d="M121.1,109.6C121.1,109.6,121.1,109.6,121.1,109.6l-1.3,0.1c-0.1,0-0.1,0-0.1-0.1v-0.2c0-0.1,0-0.1,0.1-0.1h1.3
				c0.1,0,0.1,0,0.1,0.1V109.6z"/>
			<path d="M122.6,110.8c-0.3,0-0.6-0.2-0.8-0.5c-0.1-0.2-0.2-0.5-0.2-0.9c0-1.2,0.5-2,1.4-2c0.2,0,0.4,0.1,0.4,0.1c0,0,0,0,0,0
				l-0.1,0.2c0,0,0,0,0,0c0,0,0,0,0,0c-0.1,0-0.2-0.1-0.3-0.1c-0.3,0-0.5,0.1-0.7,0.4c-0.2,0.2-0.2,0.4-0.3,0.7
				c0.2-0.2,0.4-0.3,0.6-0.3c0.5,0,0.8,0.4,0.8,1.1C123.5,110.3,123.1,110.8,122.6,110.8z M122.6,108.9c-0.3,0-0.5,0.3-0.5,0.7
				c0,0.5,0.2,0.8,0.6,0.8s0.6-0.3,0.6-0.8C123.1,109.1,122.9,108.9,122.6,108.9z"/>
		</g>
		<g>
			<path d="M121.1,91.3C121.1,91.3,121.1,91.3,121.1,91.3l-1.3,0.1c-0.1,0-0.1,0-0.1-0.1V91c0-0.1,0-0.1,0.1-0.1h1.3
				c0.1,0,0.1,0,0.1,0.1V91.3z"/>
			<path d="M122.4,92.5c-0.2,0-0.4,0-0.6-0.1c0,0-0.1,0-0.1-0.1c0,0,0,0,0,0l0-0.2c0,0,0,0,0,0c0,0,0,0,0,0c0.1,0.1,0.3,0.1,0.5,0.1
				c0.3,0,0.5-0.1,0.6-0.2c0.1-0.1,0.2-0.4,0.2-0.6c0-0.4-0.2-0.6-0.5-0.6c-0.2,0-0.4,0.1-0.6,0.3c0,0,0,0-0.1,0l0,0l-0.2-0.1
				c0,0-0.1,0-0.1,0c0,0,0,0,0,0l0.2-1.6c0-0.1,0-0.1,0.1-0.1h1.3c0.1,0,0.1,0,0.1,0.1v0.2c0,0.1,0,0.1-0.1,0.1h-1l-0.1,1
				c0.2-0.2,0.4-0.2,0.6-0.2c0.5,0,0.9,0.4,0.9,1C123.5,92,123,92.5,122.4,92.5z"/>
		</g>
		<g>
			<path d="M121.1,73C121.1,73,121.1,73,121.1,73l-1.3,0.1c-0.1,0-0.1,0-0.1-0.1v-0.2c0-0.1,0-0.1,0.1-0.1h1.3c0.1,0,0.1,0,0.1,0.1
				V73z"/>
			<path d="M123.7,73.3C123.7,73.4,123.7,73.4,123.7,73.3l-0.5,0.1v0.7c0,0.1,0,0.1-0.1,0.1h-0.2c-0.1,0-0.1,0-0.1-0.1v-0.7h-1.3
				c-0.1,0-0.1,0-0.1-0.1v-0.3l1.3-2.1c0,0,0,0,0.1,0h0h0l0.3,0c0,0,0.1,0,0.1,0c0,0,0,0,0,0l-1.3,2.1h1l0.1-0.8
				c0-0.1,0-0.1,0.1-0.1h0.2c0.1,0,0.1,0,0.1,0.1v0.8h0.4c0.1,0,0.1,0,0.1,0.1V73.3z"/>
		</g>
		<g>
			<path d="M121.1,54.7C121.1,54.7,121.1,54.7,121.1,54.7l-1.3,0.1c-0.1,0-0.1,0-0.1-0.1v-0.2c0-0.1,0-0.1,0.1-0.1h1.3
				c0.1,0,0.1,0,0.1,0.1V54.7z"/>
			<path d="M122.4,55.9c-0.3,0-0.8-0.1-0.8-0.2c0,0,0,0,0,0l0.1-0.2c0,0,0,0,0,0c0,0,0,0,0,0c0.2,0.1,0.4,0.1,0.6,0.1
				c0.4,0,0.7-0.2,0.7-0.6c0-0.4-0.2-0.6-0.7-0.6h-0.2c-0.1,0-0.1,0-0.1-0.1V54c0-0.1,0-0.1,0.1-0.1h0.2c0.4,0,0.6-0.2,0.6-0.6
				c0-0.3-0.2-0.5-0.5-0.5c-0.2,0-0.3,0.1-0.5,0.2c-0.1,0.1-0.1,0.1-0.1,0.1c0,0,0,0,0,0l-0.2-0.2c0,0,0,0,0,0c0,0,0.1-0.2,0.2-0.3
				c0.2-0.1,0.4-0.2,0.6-0.2c0.5,0,0.9,0.3,0.9,0.8c0,0.4-0.2,0.6-0.5,0.7c0.2,0,0.2,0.1,0.3,0.2c0.2,0.1,0.3,0.4,0.3,0.7
				C123.5,55.5,123.1,55.9,122.4,55.9z"/>
		</g>
		<g>
			<path d="M121.1,36.3C121.1,36.4,121.1,36.4,121.1,36.3l-1.3,0.1c-0.1,0-0.1,0-0.1-0.1v-0.2c0-0.1,0-0.1,0.1-0.1h1.3
				c0.1,0,0.1,0,0.1,0.1V36.3z"/>
			<path d="M123.5,37.4C123.5,37.5,123.5,37.5,123.5,37.4l-1.7,0.1c0,0-0.1,0-0.1-0.1c0-0.7,0.2-1.2,0.9-1.6
				c0.3-0.2,0.4-0.2,0.4-0.3c0.1-0.1,0.1-0.2,0.1-0.4c0-0.3-0.2-0.5-0.5-0.5c-0.3,0-0.4,0.1-0.6,0.5c0,0,0,0,0,0c0,0,0,0,0,0
				l-0.2-0.1c0,0,0,0,0,0c0-0.1,0.1-0.3,0.2-0.4c0.2-0.2,0.4-0.3,0.7-0.3c0.5,0,0.9,0.3,0.9,0.9c0,0.4-0.1,0.6-0.6,0.9
				c-0.5,0.4-0.7,0.6-0.8,1.1h1.3c0.1,0,0.1,0,0.1,0.1V37.4z"/>
		</g>
	</g>
	<line fill="none" stroke="#000000" stroke-width="0.25" stroke-miterlimit="10" x1="118" y1="145.6" x2="118" y2="35.8"/>
	<g>
		<g>
			<line fill="none" stroke="#000000" stroke-width="0.25" stroke-miterlimit="10" x1="118" y1="145.6" x2="115.5" y2="145.6"/>
			<line fill="none" stroke="#000000" stroke-width="0.25" stroke-miterlimit="10" x1="118" y1="127.3" x2="115.5" y2="127.3"/>
			<line fill="none" stroke="#000000" stroke-width="0.25" stroke-miterlimit="10" x1="118" y1="109" x2="115.5" y2="109"/>
			<line fill="none" stroke="#000000" stroke-width="0.25" stroke-miterlimit="10" x1="118" y1="90.7" x2="115.5" y2="90.7"/>
			<line fill="none" stroke="#000000" stroke-width="0.25" stroke-miterlimit="10" x1="118" y1="72.4" x2="115.5" y2="72.4"/>
			<line fill="none" stroke="#000000" stroke-width="0.25" stroke-miterlimit="10" x1="118" y1="54.1" x2="115.5" y2="54.1"/>
			<line fill="none" stroke="#000000" stroke-width="0.25" stroke-miterlimit="10" x1="118" y1="35.8" x2="115.5" y2="35.8"/>
		</g>
		<g>
		</g>
	</g>
</g>
<g>
	<g>
		<g>
			
				<line fill-rule="evenodd" fill="none" stroke="#D71920" stroke-width="2" stroke-linecap="round" stroke-miterlimit="10" x1="32.8" y1="49" x2="22.8" y2="43.1"/>
			
				<line fill-rule="evenodd" fill="none" stroke="#D71920" stroke-width="2" stroke-linecap="round" stroke-miterlimit="10" x1="42.9" y1="104.8" x2="32.8" y2="49"/>
			
				<line fill-rule="evenodd" fill="none" stroke="#D71920" stroke-width="2" stroke-linecap="round" stroke-miterlimit="10" x1="52.9" y1="107.5" x2="42.9" y2="104.8"/>
			
				<line fill-rule="evenodd" fill="none" stroke="#D71920" stroke-width="2" stroke-linecap="round" stroke-miterlimit="10" x1="62.9" y1="137" x2="52.9" y2="107.5"/>
			
				<line fill-rule="evenodd" fill="none" stroke="#D71920" stroke-width="2" stroke-linecap="round" stroke-miterlimit="10" x1="72.9" y1="96.2" x2="62.9" y2="137"/>
			
				<line fill-rule="evenodd" fill="none" stroke="#D71920" stroke-width="2" stroke-linecap="round" stroke-miterlimit="10" x1="82.9" y1="97.3" x2="72.9" y2="96.2"/>
			
				<line fill-rule="evenodd" fill="none" stroke="#D71920" stroke-width="2" stroke-linecap="round" stroke-miterlimit="10" x1="93" y1="104.2" x2="82.9" y2="97.3"/>
			
				<line fill-rule="evenodd" fill="none" stroke="#D71920" stroke-width="2" stroke-linecap="round" stroke-miterlimit="10" x1="103" y1="90.7" x2="93" y2="104.2"/>
			
				<line fill-rule="evenodd" fill="none" stroke="#D71920" stroke-width="2" stroke-linecap="round" stroke-miterlimit="10" x1="113" y1="76.1" x2="103" y2="90.7"/>
		</g>
	</g>
</g>
<g>
	<g>
	</g>
</g>
<g>
	<path d="M13.5,14.9c-0.3,0.2-0.7,0.3-1.2,0.3c-0.6,0-1.1-0.2-1.4-0.5c-0.5-0.5-0.7-1.4-0.7-2.4c0-1,0.2-1.7,0.6-2.2
		c0.3-0.4,0.8-0.6,1.4-0.6c0.4,0,0.8,0.1,1.2,0.4c0.1,0.1,0.2,0.1,0.2,0.2c0,0,0,0.1,0,0.1l-0.3,0.6c0,0,0,0.1-0.1,0.1
		c0,0-0.1,0-0.2-0.1c-0.2-0.2-0.4-0.2-0.6-0.2c-0.6,0-0.9,0.6-0.9,1.7c0,0.8,0.1,1.4,0.3,1.8c0.1,0.3,0.4,0.4,0.7,0.4
		c0.3,0,0.4-0.1,0.7-0.3c0,0,0.1,0,0.1,0s0,0,0.1,0.1l0.3,0.6c0,0,0,0,0,0.1C13.7,14.8,13.6,14.8,13.5,14.9z"/>
	<path d="M16.5,11.3L16.2,12c0,0,0,0.1-0.1,0.1c0,0,0,0-0.1,0c-0.1,0-0.2-0.1-0.3-0.1c-0.2,0-0.4,0.1-0.6,0.4V15
		c0,0.1,0,0.1-0.1,0.1h-0.7c-0.1,0-0.1,0-0.1-0.1v-2.4c0-0.5,0-0.7-0.2-1.1c0,0,0,0,0-0.1c0,0,0-0.1,0.1-0.1l0.6-0.2
		c0.1,0,0.1,0,0.1,0c0.1,0,0.2,0.2,0.3,0.6c0.2-0.2,0.2-0.2,0.3-0.3c0.2-0.2,0.5-0.3,0.7-0.3C16.3,11,16.5,11.1,16.5,11.3
		C16.5,11.2,16.5,11.3,16.5,11.3z"/>
	<path d="M18.3,15.3c-1.1,0-1.7-0.8-1.7-2.1c0-0.7,0.2-1.2,0.5-1.5c0.3-0.4,0.7-0.6,1.3-0.6c1,0,1.7,0.8,1.7,2.1
		C20.1,14.4,19.4,15.3,18.3,15.3z M18.3,11.8c-0.5,0-0.6,0.4-0.6,1.3c0,0.9,0.2,1.3,0.7,1.3c0.5,0,0.7-0.4,0.7-1.3
		C19,12.2,18.8,11.8,18.3,11.8z"/>
	<path d="M23.7,15l-0.6,0.2c0,0-0.1,0-0.1,0c-0.1,0-0.2-0.2-0.2-0.5c-0.3,0.3-0.6,0.5-1,0.5c-0.7,0-1.2-0.5-1.2-1.2
		c0-0.7,0.4-1.1,1.2-1.3c0.2,0,0.5-0.1,0.9-0.1v-0.2c0-0.5-0.1-0.6-0.5-0.6c-0.2,0-0.5,0.1-0.9,0.2c0,0-0.1,0-0.1,0
		c0,0-0.1,0-0.1-0.1l-0.2-0.5c0,0,0-0.1,0-0.1c0-0.2,0.7-0.4,1.4-0.4c0.6,0,1.1,0.2,1.2,0.6c0.1,0.2,0.1,0.4,0.1,0.7V14
		c0,0.4,0,0.6,0.2,0.9C23.7,14.8,23.7,14.9,23.7,15C23.7,14.9,23.7,15,23.7,15z M22.6,13.3c-0.8,0-1.1,0.2-1.1,0.6
		c0,0.3,0.2,0.6,0.5,0.6c0.2,0,0.4-0.1,0.6-0.3V13.3z"/>
	<path d="M26.7,15.1c-0.3,0.1-0.5,0.1-0.8,0.1c-0.4,0-0.7-0.1-0.9-0.4c-0.1-0.2-0.2-0.4-0.2-0.8v-2.1h-0.6c-0.1,0-0.1,0-0.1-0.1
		v-0.5c0-0.1,0-0.1,0.1-0.1h0.6v-1c0-0.1,0-0.1,0.1-0.1l0.7-0.1h0.1c0.1,0,0.1,0,0.1,0.1v1.1h0.9c0.1,0,0.1,0,0.1,0.1c0,0,0,0,0,0.1
		l-0.1,0.5c0,0.1,0,0.1-0.1,0.1h-0.8v1.9c0,0.4,0.1,0.5,0.3,0.5c0.2,0,0.2,0,0.5-0.1c0,0,0,0,0.1,0c0,0,0.1,0,0.1,0.1l0.1,0.6
		c0,0.1,0,0.1,0,0.1C26.9,15,26.9,15.1,26.7,15.1z"/>
	<path d="M28.7,15c0,0.1,0,0.1-0.1,0.1h-0.7c-0.1,0-0.1,0-0.1-0.1v-3.1H27c-0.1,0-0.1,0-0.1-0.1v-0.5c0-0.1,0-0.1,0.1-0.1h1.5
		c0.1,0,0.1,0,0.1,0.1V15z M28.1,10.7c-0.4,0-0.6-0.3-0.6-0.7c0-0.4,0.3-0.6,0.7-0.6c0.4,0,0.6,0.3,0.6,0.6
		C28.8,10.4,28.5,10.7,28.1,10.7z"/>
	<path d="M32.6,15L32,15.2c0,0-0.1,0-0.1,0c-0.1,0-0.2-0.2-0.2-0.5c-0.3,0.3-0.6,0.5-1,0.5c-0.7,0-1.2-0.5-1.2-1.2
		c0-0.7,0.4-1.1,1.2-1.3c0.2,0,0.5-0.1,0.9-0.1v-0.2c0-0.5-0.1-0.6-0.5-0.6c-0.2,0-0.5,0.1-0.9,0.2c0,0-0.1,0-0.1,0
		c0,0-0.1,0-0.1-0.1l-0.2-0.5c0,0,0-0.1,0-0.1c0-0.2,0.7-0.4,1.4-0.4c0.6,0,1.1,0.2,1.2,0.6c0.1,0.2,0.1,0.4,0.1,0.7V14
		c0,0.4,0,0.6,0.2,0.9C32.7,14.8,32.7,14.9,32.6,15C32.7,14.9,32.7,15,32.6,15z M31.5,13.3c-0.8,0-1.1,0.2-1.1,0.6
		c0,0.3,0.2,0.6,0.5,0.6c0.2,0,0.4-0.1,0.6-0.3V13.3z"/>
	<path d="M34.1,12.6c-0.4,0-0.8-0.3-0.8-0.8c0-0.4,0.3-0.8,0.8-0.8c0.4,0,0.7,0.3,0.7,0.8C34.9,12.3,34.6,12.6,34.1,12.6z
		 M34.1,15.3c-0.4,0-0.8-0.3-0.8-0.8c0-0.4,0.3-0.8,0.8-0.8c0.4,0,0.7,0.3,0.7,0.8C34.9,14.9,34.6,15.3,34.1,15.3z"/>
	<path d="M40.2,14.7c-0.3,0.4-0.7,0.6-1.1,0.6c-0.3,0-0.5-0.1-0.8-0.4c-0.1,0.3-0.2,0.3-0.2,0.3c0,0,0,0-0.1,0l-0.6-0.2
		c0,0-0.1,0-0.1-0.1c0,0,0,0,0-0.1c0.1-0.3,0.2-0.4,0.2-0.8V9.6c0-0.1,0-0.1,0.1-0.1l0.7-0.2c0,0,0.1,0,0.1,0c0.1,0,0.1,0,0.1,0.1
		v1.9c0.4-0.3,0.6-0.4,1-0.4c0.8,0,1.3,0.7,1.3,2C40.7,13.8,40.6,14.3,40.2,14.7z M39,11.8c-0.2,0-0.4,0.1-0.6,0.3v2.2
		c0.2,0.1,0.3,0.2,0.5,0.2c0.5,0,0.8-0.5,0.8-1.4C39.7,12.3,39.4,11.8,39,11.8z"/>
	<path d="M44.3,15l-0.6,0.2c0,0-0.1,0-0.1,0c-0.1,0-0.2-0.2-0.2-0.5c-0.3,0.3-0.6,0.5-1,0.5c-0.7,0-1.2-0.5-1.2-1.2
		c0-0.7,0.4-1.1,1.2-1.3c0.2,0,0.5-0.1,0.9-0.1v-0.2c0-0.5-0.1-0.6-0.5-0.6c-0.2,0-0.5,0.1-0.9,0.2c0,0-0.1,0-0.1,0
		c0,0-0.1,0-0.1-0.1l-0.2-0.5c0,0,0-0.1,0-0.1c0-0.2,0.7-0.4,1.4-0.4c0.6,0,1.1,0.2,1.2,0.6c0.1,0.2,0.1,0.4,0.1,0.7V14
		c0,0.4,0,0.6,0.2,0.9C44.4,14.8,44.4,14.9,44.3,15C44.4,14.9,44.4,15,44.3,15z M43.2,13.3c-0.8,0-1.1,0.2-1.1,0.6
		c0,0.3,0.2,0.6,0.5,0.6c0.2,0,0.4-0.1,0.6-0.3V13.3z"/>
	<path d="M46.2,15.3c-0.5,0-0.8-0.2-0.9-0.6c-0.1-0.2-0.1-0.3-0.1-1V9.7c0-0.1,0-0.1,0.1-0.2L46,9.4c0.1,0,0.1,0,0.1,0
		c0.1,0,0.1,0,0.1,0.1v4.2c0,0.4,0,0.5,0,0.5c0,0.1,0.1,0.2,0.2,0.2c0.1,0,0.2,0,0.3,0c0,0,0,0,0.1,0c0,0,0.1,0,0.1,0L47,15l0,0
		c0,0,0,0,0,0C47,15.1,46.5,15.3,46.2,15.3z"/>
	<path d="M50.2,15l-0.6,0.2c0,0-0.1,0-0.1,0c-0.1,0-0.2-0.2-0.2-0.5c-0.3,0.3-0.6,0.5-1,0.5c-0.7,0-1.2-0.5-1.2-1.2
		c0-0.7,0.4-1.1,1.2-1.3c0.2,0,0.5-0.1,0.9-0.1v-0.2c0-0.5-0.1-0.6-0.5-0.6c-0.2,0-0.5,0.1-0.9,0.2c0,0-0.1,0-0.1,0
		c0,0-0.1,0-0.1-0.1l-0.2-0.5c0,0,0-0.1,0-0.1c0-0.2,0.7-0.4,1.4-0.4c0.6,0,1.1,0.2,1.2,0.6c0.1,0.2,0.1,0.4,0.1,0.7V14
		c0,0.4,0,0.6,0.2,0.9C50.3,14.8,50.3,14.9,50.2,15C50.3,14.9,50.3,15,50.2,15z M49.2,13.3c-0.8,0-1.1,0.2-1.1,0.6
		c0,0.3,0.2,0.6,0.5,0.6c0.2,0,0.4-0.1,0.6-0.3V13.3z"/>
	<path d="M54.4,15c0,0.1,0,0.1-0.1,0.1h-0.7c-0.1,0-0.1,0-0.1-0.1v-2.5c0-0.5-0.1-0.7-0.5-0.7c-0.2,0-0.4,0.1-0.7,0.3V15
		c0,0.1,0,0.1-0.1,0.1h-0.7c-0.1,0-0.1,0-0.1-0.1v-2.7c0-0.3-0.1-0.6-0.2-0.9c0,0,0-0.1,0-0.1c0,0,0-0.1,0.1-0.1l0.7-0.3
		c0,0,0.1,0,0.1,0c0.1,0,0.2,0.2,0.3,0.6c0.4-0.4,0.7-0.5,1.2-0.5c0.7,0,1,0.4,1,1.3V15z"/>
	<path d="M58,11.6l-0.3,0.5c0,0,0,0.1-0.1,0.1c0,0,0,0-0.1,0c-0.3-0.2-0.4-0.3-0.7-0.3c-0.5,0-0.8,0.4-0.8,1.3
		c0,0.9,0.2,1.3,0.8,1.3c0.2,0,0.4-0.1,0.7-0.2c0,0,0.1,0,0.1,0s0,0,0.1,0.1l0.2,0.5c0,0.1,0,0.1,0,0.1c0,0.2-0.6,0.4-1.2,0.4
		c-1.1,0-1.7-0.7-1.7-2c0-1.4,0.7-2.2,1.8-2.2C57.4,11,58,11.3,58,11.6C58,11.5,58,11.6,58,11.6z"/>
	<path d="M59.7,15c0,0.1,0,0.1-0.1,0.1h-0.7c-0.1,0-0.1,0-0.1-0.1v-3.1h-0.6c-0.1,0-0.1,0-0.1-0.1v-0.5c0-0.1,0-0.1,0.1-0.1h1.5
		c0.1,0,0.1,0,0.1,0.1V15z M59.2,10.7c-0.4,0-0.6-0.3-0.6-0.7c0-0.4,0.3-0.6,0.7-0.6c0.4,0,0.6,0.3,0.6,0.6
		C59.8,10.4,59.6,10.7,59.2,10.7z"/>
	<path d="M64,15c0,0.1,0,0.1-0.1,0.1h-0.7c-0.1,0-0.1,0-0.1-0.1v-2.5c0-0.5-0.1-0.7-0.5-0.7c-0.2,0-0.4,0.1-0.7,0.3V15
		c0,0.1,0,0.1-0.1,0.1H61c-0.1,0-0.1,0-0.1-0.1v-2.7c0-0.3-0.1-0.6-0.2-0.9c0,0,0-0.1,0-0.1c0,0,0-0.1,0.1-0.1l0.7-0.3
		c0,0,0.1,0,0.1,0c0.1,0,0.2,0.2,0.3,0.6c0.4-0.4,0.7-0.5,1.2-0.5c0.7,0,1,0.4,1,1.3V15z"/>
	<path d="M68.1,11.5C68,11.8,68,12,68,12.4v1.2c0,0.4,0,0.9,0,1.3c0,0.2,0,0.4,0,0.5c0,0.9-0.5,1.4-1.5,1.4c-0.7,0-1.6-0.3-1.6-0.4
		c0,0,0-0.1,0-0.1l0.2-0.6c0,0,0-0.1,0.1-0.1c0,0,0,0,0.1,0c0.4,0.2,0.8,0.3,1.2,0.3c0.4,0,0.6-0.2,0.6-0.7c0-0.1,0-0.3,0-0.5
		c-0.3,0.2-0.6,0.3-0.9,0.3c-0.8,0-1.3-0.8-1.3-1.9c0-1.3,0.6-2.1,1.5-2.1c0.4,0,0.6,0.1,0.9,0.4c0.1-0.2,0.2-0.4,0.3-0.4
		c0,0,0.1,0,0.1,0l0.6,0.2c0,0,0.1,0,0.1,0.1C68.2,11.4,68.2,11.4,68.1,11.5z M67,12.1c-0.2-0.2-0.4-0.2-0.6-0.2
		c-0.4,0-0.7,0.4-0.7,1.2c0,0.8,0.2,1.2,0.6,1.2c0.2,0,0.5-0.1,0.6-0.3V12.1z"/>
	<path d="M73.4,15l-0.6,0.2c0,0-0.1,0-0.1,0c-0.1,0-0.2-0.2-0.2-0.5c-0.3,0.3-0.6,0.5-1,0.5c-0.7,0-1.2-0.5-1.2-1.2
		c0-0.7,0.4-1.1,1.2-1.3c0.2,0,0.5-0.1,0.9-0.1v-0.2c0-0.5-0.1-0.6-0.5-0.6c-0.2,0-0.5,0.1-0.9,0.2c0,0-0.1,0-0.1,0
		c0,0-0.1,0-0.1-0.1l-0.2-0.5c0,0,0-0.1,0-0.1c0-0.2,0.7-0.4,1.4-0.4c0.6,0,1.1,0.2,1.2,0.6c0.1,0.2,0.1,0.4,0.1,0.7V14
		c0,0.4,0,0.6,0.2,0.9C73.5,14.8,73.5,14.9,73.4,15C73.5,14.9,73.4,15,73.4,15z M72.3,13.3c-0.8,0-1.1,0.2-1.1,0.6
		c0,0.3,0.2,0.6,0.5,0.6c0.2,0,0.4-0.1,0.6-0.3V13.3z"/>
	<path d="M77,11.6l-0.3,0.5c0,0,0,0.1-0.1,0.1s0,0-0.1,0c-0.3-0.2-0.4-0.3-0.7-0.3c-0.5,0-0.8,0.4-0.8,1.3c0,0.9,0.2,1.3,0.8,1.3
		c0.2,0,0.4-0.1,0.7-0.2c0,0,0.1,0,0.1,0c0,0,0,0,0.1,0.1l0.2,0.5c0,0.1,0,0.1,0,0.1c0,0.2-0.6,0.4-1.2,0.4c-1.1,0-1.7-0.7-1.7-2
		c0-1.4,0.7-2.2,1.8-2.2C76.3,11,77,11.3,77,11.6C77,11.5,77,11.6,77,11.6z"/>
	<path d="M79.6,15.1c-0.3,0.1-0.5,0.1-0.8,0.1c-0.4,0-0.7-0.1-0.9-0.4c-0.1-0.2-0.2-0.4-0.2-0.8v-2.1h-0.6c-0.1,0-0.1,0-0.1-0.1
		v-0.5c0-0.1,0-0.1,0.1-0.1h0.6v-1c0-0.1,0-0.1,0.1-0.1l0.7-0.1h0.1c0.1,0,0.1,0,0.1,0.1v1.1h0.9c0.1,0,0.1,0,0.1,0.1c0,0,0,0,0,0.1
		l-0.1,0.5c0,0.1,0,0.1-0.1,0.1h-0.8v1.9c0,0.4,0.1,0.5,0.3,0.5c0.2,0,0.2,0,0.5-0.1c0,0,0,0,0.1,0c0,0,0.1,0,0.1,0.1l0.1,0.6
		c0,0.1,0,0.1,0,0.1C79.8,15,79.8,15.1,79.6,15.1z"/>
	<path d="M20.3,23c-0.2,0.1-0.4,0.1-0.9,0.1h-1c-0.1,0-0.1,0-0.1-0.1v-4.6c0-0.1,0-0.1,0.1-0.1h1.1c0.5,0,0.7,0,1,0.2
		c0.3,0.2,0.4,0.5,0.4,1c0,0.5-0.2,0.9-0.7,1.1c0.3,0.1,0.4,0.1,0.5,0.2c0.2,0.2,0.4,0.6,0.4,0.9C21.1,22.4,20.7,22.9,20.3,23z
		 M19.5,18.8h-0.7v1.7h0.5c0.3,0,0.4,0,0.6-0.1c0.2-0.2,0.3-0.4,0.3-0.8C20.2,19,20,18.8,19.5,18.8z M20,21
		c-0.1-0.1-0.3-0.1-0.6-0.1h-0.7v1.7h0.7c0.3,0,0.5,0,0.6-0.2c0.2-0.1,0.3-0.4,0.3-0.7C20.4,21.4,20.3,21.2,20,21z"/>
	<path d="M24.4,23l-0.3,0.2c0,0,0,0,0,0c-0.1,0-0.2-0.2-0.2-0.4c-0.4,0.3-0.7,0.4-1.1,0.4c-0.6,0-1-0.3-1-0.9v-2.4
		c0,0,0-0.1,0.1-0.1l0.4-0.1c0,0,0,0,0,0c0,0,0,0,0,0.1v2.2c0,0.6,0.1,0.8,0.5,0.8c0.3,0,0.6-0.1,0.9-0.4v-2.5c0,0,0-0.1,0.1-0.1
		l0.4-0.1c0,0,0,0,0,0c0,0,0,0,0,0.1v2.4C24.2,22.6,24.3,22.7,24.4,23C24.4,22.9,24.4,23,24.4,23C24.4,23,24.4,23,24.4,23z"/>
	<path d="M27.7,23l-0.3,0.2c0,0,0,0-0.1,0c-0.1,0-0.2-0.2-0.2-0.4c-0.5,0.3-0.7,0.4-1,0.4c-0.7,0-1.1-0.7-1.1-1.8
		c0-1.1,0.5-1.7,1.3-1.7c0.3,0,0.5,0.1,0.8,0.2v-1.7c0,0,0-0.1,0.1-0.1l0.4-0.1c0,0,0,0,0,0c0,0,0,0,0,0.1V22c0,0.4,0,0.6,0.2,0.8
		C27.7,22.9,27.7,22.9,27.7,23C27.7,23,27.7,23,27.7,23z M27,20.4c-0.3-0.2-0.5-0.2-0.7-0.2c-0.5,0-0.7,0.4-0.7,1.2
		c0,1,0.2,1.4,0.7,1.4c0.3,0,0.5-0.1,0.8-0.4V20.4z"/>
	<path d="M31,20c-0.1,0.2-0.2,0.4-0.2,0.7v1.1c0,0.5,0,0.5,0,1.2c0,0.2,0,0.3,0,0.4c0,0.8-0.4,1.2-1.2,1.2c-0.4,0-0.7-0.1-1.1-0.3
		c-0.1-0.1-0.1-0.1-0.1-0.1c0,0,0,0,0,0l0.1-0.3c0,0,0,0,0,0c0,0,0,0,0.1,0c0.3,0.2,0.7,0.3,0.9,0.3c0.3,0,0.5-0.1,0.6-0.3
		c0.1-0.1,0.1-0.2,0.1-0.5c0-0.1,0-0.2,0-0.4l0-0.3v-0.1c-0.3,0.3-0.6,0.4-1,0.4c-0.7,0-1.1-0.6-1.1-1.6c0-1.2,0.5-1.8,1.3-1.8
		c0.3,0,0.5,0.1,0.8,0.3c0.1-0.2,0.2-0.3,0.2-0.3c0,0,0,0,0.1,0l0.3,0.2C31,19.9,31.1,19.9,31,20C31.1,19.9,31,19.9,31,20z
		 M30.3,20.3c-0.3-0.1-0.5-0.2-0.7-0.2c-0.5,0-0.8,0.4-0.8,1.2c0,0.9,0.2,1.2,0.6,1.2c0.3,0,0.5-0.1,0.8-0.3V20.3z"/>
	<path d="M34.2,21.6h-2c0,0.8,0.4,1.2,0.9,1.2c0.3,0,0.5-0.1,0.8-0.3c0,0,0,0,0.1,0c0,0,0,0,0,0l0.1,0.3c0,0,0,0,0,0
		c0,0.1-0.1,0.1-0.3,0.2c-0.3,0.1-0.6,0.2-0.9,0.2c-0.9,0-1.5-0.7-1.5-1.8c0-1.1,0.5-1.8,1.4-1.8c0.6,0,1,0.3,1.2,0.8
		c0.1,0.2,0.1,0.5,0.1,0.9C34.3,21.5,34.3,21.6,34.2,21.6z M33.7,21.1c0-0.7-0.3-1-0.7-1c-0.5,0-0.7,0.4-0.8,1H33.7z"/>
	<path d="M35.8,23.2c-0.4,0-0.6-0.1-0.8-0.4c-0.1-0.1-0.1-0.3-0.1-0.6v-2h-0.5c-0.1,0-0.1,0-0.1-0.1v-0.3c0-0.1,0-0.1,0.1-0.1h0.5
		v-1c0,0,0-0.1,0.1-0.1l0.4-0.1c0,0,0,0,0,0c0,0,0,0,0,0.1v1.1h1.1c0,0,0.1,0,0.1,0c0,0,0,0,0,0l-0.1,0.3c0,0,0,0.1-0.1,0.1h-0.9v2
		c0,0.3,0,0.3,0.1,0.4c0.1,0.1,0.2,0.1,0.4,0.1c0.2,0,0.3,0,0.6-0.2c0,0,0,0,0,0c0,0,0,0,0,0l0.1,0.3c0,0,0,0,0,0
		C36.7,23,36.2,23.2,35.8,23.2z"/>
	<path d="M39.6,23.2c-0.4,0-0.6-0.1-0.9-0.3c-0.1,0.2-0.2,0.3-0.2,0.3c0,0,0,0-0.1,0L38.1,23c0,0,0,0,0,0c0,0,0,0,0,0
		c0.1-0.2,0.2-0.4,0.2-0.7v-3.9c0,0,0-0.1,0.1-0.1l0.4-0.1c0,0,0,0,0,0c0,0,0,0,0,0.1V20c0.4-0.3,0.6-0.3,0.9-0.3
		c0.7,0,1.1,0.5,1.1,1.6C40.9,22.6,40.5,23.2,39.6,23.2z M39.7,20.1c-0.3,0-0.5,0.1-0.8,0.3v2c0.2,0.2,0.4,0.3,0.7,0.3
		c0.5,0,0.7-0.4,0.7-1.5C40.3,20.5,40.1,20.1,39.7,20.1z"/>
	<path d="M43.9,23l-0.3,0.2c0,0,0,0-0.1,0c-0.1,0-0.2-0.2-0.3-0.4c-0.3,0.3-0.6,0.4-1,0.4c-0.6,0-0.9-0.4-0.9-1
		c0-0.8,0.6-1.2,1.8-1.2v-0.2c0-0.4-0.2-0.6-0.6-0.6c-0.3,0-0.5,0-0.8,0.2c0,0,0,0,0,0c0,0,0,0,0,0l-0.1-0.3l0-0.1
		c0,0,0-0.1,0.2-0.1c0.3-0.1,0.6-0.2,0.9-0.2c0.7,0,1.1,0.3,1.1,1V22C43.7,22.5,43.7,22.6,43.9,23C43.9,22.9,43.9,22.9,43.9,23
		C43.9,23,43.9,23,43.9,23z M43.2,21.5c-0.9,0-1.3,0.3-1.3,0.7c0,0.3,0.2,0.6,0.5,0.6c0.2,0,0.5-0.1,0.8-0.4V21.5z"/>
	<path d="M45.4,23.2c-0.4,0-0.7-0.2-0.7-0.5c0-0.1,0-0.2,0-0.9v-3.6c0,0,0-0.1,0.1-0.1l0.4-0.1c0,0,0,0,0,0c0,0,0,0,0,0.1v3.7
		c0,0.3,0,0.6,0,0.6c0,0.2,0.1,0.3,0.3,0.3c0.1,0,0.2,0,0.3-0.1c0,0,0,0,0.1,0c0,0,0,0,0,0L46,23c0,0,0,0,0,0.1
		C46,23.1,45.7,23.2,45.4,23.2z"/>
	<path d="M48.6,23l-0.3,0.2c0,0,0,0-0.1,0c-0.1,0-0.2-0.2-0.3-0.4c-0.3,0.3-0.6,0.4-1,0.4c-0.6,0-0.9-0.4-0.9-1
		c0-0.8,0.6-1.2,1.8-1.2v-0.2c0-0.4-0.2-0.6-0.6-0.6c-0.3,0-0.5,0-0.8,0.2c0,0,0,0,0,0c0,0,0,0,0,0l-0.1-0.3l0-0.1
		c0,0,0-0.1,0.2-0.1c0.3-0.1,0.6-0.2,0.9-0.2c0.7,0,1.1,0.3,1.1,1V22C48.4,22.5,48.4,22.6,48.6,23C48.6,22.9,48.6,22.9,48.6,23
		C48.6,23,48.6,23,48.6,23z M47.9,21.5c-0.9,0-1.3,0.3-1.3,0.7c0,0.3,0.2,0.6,0.5,0.6c0.2,0,0.5-0.1,0.8-0.4V21.5z"/>
	<path d="M51.9,23C51.9,23.1,51.9,23.1,51.9,23l-0.4,0.1c-0.1,0-0.1,0-0.1-0.1v-2.3c0-0.4-0.1-0.6-0.5-0.6c-0.3,0-0.6,0.1-0.9,0.4
		V23c0,0.1,0,0.1-0.1,0.1h-0.4c-0.1,0-0.1,0-0.1-0.1v-2.4c0-0.3,0-0.4-0.1-0.7c0,0,0,0,0,0c0,0,0,0,0,0l0.3-0.2c0,0,0,0,0.1,0
		c0.1,0,0.2,0.2,0.2,0.5c0.4-0.3,0.7-0.5,1.1-0.5c0.3,0,0.6,0.1,0.7,0.3c0.1,0.2,0.1,0.3,0.1,0.7V23z"/>
	<path d="M55.1,20.2l-0.2,0.3c0,0,0,0-0.1,0c0,0,0,0-0.1,0c-0.3-0.3-0.5-0.3-0.7-0.3c-0.6,0-0.8,0.4-0.8,1.3c0,0.9,0.3,1.3,0.8,1.3
		c0.3,0,0.4-0.1,0.8-0.3c0,0,0,0,0,0c0,0,0,0,0,0l0.1,0.3c0,0,0,0.1,0,0.1c0,0,0,0.1-0.1,0.1c-0.3,0.2-0.6,0.3-1,0.3
		c-0.8,0-1.3-0.6-1.3-1.7c0-1.1,0.5-1.9,1.4-1.9c0.3,0,0.6,0.1,0.9,0.3C55,20,55.1,20.1,55.1,20.2L55.1,20.2z"/>
	<path d="M57.9,21.6h-2c0,0.8,0.4,1.2,0.9,1.2c0.3,0,0.5-0.1,0.8-0.3c0,0,0,0,0.1,0c0,0,0,0,0,0l0.1,0.3c0,0,0,0,0,0
		c0,0.1-0.1,0.1-0.3,0.2c-0.3,0.1-0.6,0.2-0.9,0.2c-0.9,0-1.5-0.7-1.5-1.8c0-1.1,0.5-1.8,1.4-1.8c0.6,0,1,0.3,1.2,0.8
		C58,20.7,58,21,58,21.4C58,21.5,58,21.6,57.9,21.6z M57.4,21.1c0-0.7-0.3-1-0.7-1c-0.5,0-0.7,0.4-0.8,1H57.4z"/>
	<path d="M59.6,22.4l-0.8,1.5c0,0.1,0,0.1-0.1,0.1c0,0,0,0,0,0l0,0l-0.2-0.1c-0.1,0-0.1,0-0.1-0.1c0,0,0,0,0-0.1l0.4-1.4
		c0-0.1,0-0.1,0.1-0.1h0.6C59.6,22.3,59.7,22.3,59.6,22.4C59.7,22.4,59.7,22.4,59.6,22.4z"/>
	<path d="M62.3,20.9c-0.6,0-0.9-0.4-0.9-1.1c0-0.8,0.4-1.2,1-1.2c0.6,0,0.9,0.4,0.9,1.1C63.3,20.5,62.9,20.9,62.3,20.9z M62.3,18.9
		c-0.3,0-0.5,0.3-0.5,0.8c0,0.5,0.2,0.8,0.4,0.8c0.3,0,0.5-0.3,0.5-0.8C62.8,19.2,62.6,18.9,62.3,18.9z M65,18.6l-1.9,4.6
		c0,0.1-0.1,0.1-0.1,0.1h-0.3c-0.1,0-0.1,0-0.1,0c0,0,0,0,0-0.1l1.9-4.6c0,0,0-0.1,0.1-0.1H65C65,18.5,65.1,18.5,65,18.6
		C65.1,18.6,65.1,18.6,65,18.6z M65.4,23.2c-0.6,0-0.9-0.4-0.9-1.1c0-0.8,0.4-1.2,1-1.2c0.6,0,0.9,0.4,0.9,1.1
		C66.3,22.7,66,23.2,65.4,23.2z M65.4,21.2c-0.3,0-0.5,0.3-0.5,0.8c0,0.5,0.2,0.8,0.4,0.8c0.3,0,0.5-0.3,0.5-0.8
		C65.8,21.5,65.7,21.2,65.4,21.2z"/>
	<path d="M69.3,23.2c-0.9,0-1.4-0.7-1.4-1.8c0-1.1,0.5-1.8,1.4-1.8c0.8,0,1.4,0.7,1.4,1.8C70.7,22.6,70.2,23.2,69.3,23.2z
		 M69.3,20.1c-0.5,0-0.8,0.4-0.8,1.3c0,0.4,0.1,0.9,0.2,1.1c0.1,0.2,0.4,0.3,0.6,0.3c0.3,0,0.5-0.1,0.6-0.3c0.1-0.2,0.2-0.6,0.2-1.1
		C70.2,20.6,69.9,20.1,69.3,20.1z"/>
	<path d="M73.3,18.3l-0.1,0.3c0,0,0,0,0,0c0,0,0,0-0.1,0c-0.2-0.1-0.4-0.1-0.5-0.1c-0.1,0-0.3,0-0.3,0.1c-0.1,0.1-0.1,0.2-0.1,0.6
		v0.5h1c0.1,0,0.1,0,0.1,0c0,0,0,0,0,0l-0.1,0.3c0,0,0,0.1-0.1,0.1h-0.9V23c0,0.1,0,0.1-0.1,0.1h-0.4c-0.1,0-0.1,0-0.1-0.1v-2.8
		h-0.5c-0.1,0-0.1,0-0.1-0.1v-0.3c0-0.1,0-0.1,0.1-0.1h0.5v-0.5c0-0.4,0-0.6,0.2-0.8c0.2-0.2,0.4-0.3,0.8-0.3
		C72.9,18.1,73.3,18.2,73.3,18.3C73.3,18.3,73.3,18.3,73.3,18.3z"/>
	<path d="M77.4,22.8c0,0.1,0,0.1-0.1,0.1c-0.3,0.2-0.7,0.3-1.2,0.3c-1.1,0-1.7-0.9-1.7-2.5c0-1.6,0.6-2.5,1.7-2.5
		c0.3,0,0.7,0.1,1,0.3c0.1,0.1,0.1,0.1,0.1,0.1c0,0,0,0,0,0.1L77.1,19c0,0,0,0,0,0c0,0,0,0-0.2-0.1c-0.2-0.1-0.5-0.2-0.7-0.2
		c-0.8,0-1.1,0.6-1.1,2c0,1.5,0.3,2.1,1.2,2.1c0.2,0,0.4,0,0.6-0.1v-1.4h-0.5c-0.1,0-0.1,0-0.1-0.1v-0.3c0-0.1,0-0.1,0.1-0.1h1
		c0.1,0,0.1,0,0.1,0.1V22.8z"/>
	<path d="M79.2,23.1h-0.8c-0.1,0-0.1,0-0.1-0.1v-4.6c0-0.1,0-0.1,0.1-0.1h0.7c0.6,0,1,0.1,1.2,0.3c0.5,0.3,0.8,1.1,0.8,2
		C81.2,22.3,80.5,23.1,79.2,23.1z M80,19c-0.2-0.1-0.4-0.1-0.8-0.1h-0.3v3.8h0.4c0.5,0,0.8-0.1,1-0.4c0.2-0.3,0.3-0.8,0.3-1.6
		C80.6,19.7,80.4,19.2,80,19z"/>
	<path d="M84,20.9c-0.2,0.1-0.4,0.2-0.8,0.2h-0.5V23c0,0.1,0,0.1-0.1,0.1h-0.4c-0.1,0-0.1,0-0.1-0.1v-4.6c0-0.1,0-0.1,0.1-0.1h1.1
		c0.4,0,0.7,0,0.9,0.2c0.3,0.2,0.5,0.6,0.5,1.1C84.7,20.2,84.4,20.7,84,20.9z M83.7,18.9c-0.1,0-0.2-0.1-0.5-0.1h-0.5v1.8h0.5
		c0.4,0,0.5,0,0.7-0.2c0.2-0.2,0.3-0.4,0.3-0.8C84.1,19.2,83.9,19,83.7,18.9z"/>
	<path d="M87.8,24.7c-0.1,0-0.2-0.2-0.5-0.6c-0.6-0.9-0.9-1.8-0.9-2.8c0-1.1,0.3-2.1,1-3c0.2-0.3,0.3-0.3,0.3-0.3c0,0,0,0,0.1,0
		l0.2,0.1c0,0,0,0,0,0.1c0,0,0,0.1-0.1,0.1c-0.7,0.9-1,1.9-1,3c0,1.2,0.3,2.1,1,3c0,0.1,0.1,0.1,0.1,0.1
		C88.1,24.6,87.9,24.7,87.8,24.7z"/>
	<path d="M90.6,19.8l-0.2,0.4c0,0,0,0,0,0c0,0,0,0-0.1,0c0,0-0.1,0-0.1,0c-0.2,0-0.3,0.1-0.7,0.5V23c0,0.1,0,0.1-0.1,0.1H89
		c-0.1,0-0.1,0-0.1-0.1v-2.1c0-0.6,0-0.7-0.2-0.9c0,0,0-0.1,0-0.1c0,0,0,0,0-0.1l0.3-0.2c0,0,0,0,0.1,0c0.1,0,0.2,0.3,0.3,0.6
		c0.4-0.5,0.6-0.6,0.9-0.6C90.4,19.7,90.6,19.7,90.6,19.8C90.6,19.8,90.6,19.8,90.6,19.8z"/>
	<path d="M91.7,23C91.7,23.1,91.6,23.1,91.7,23l-0.4,0.1c-0.1,0-0.1,0-0.1-0.1v-2.8h-0.6c-0.1,0-0.1,0-0.1-0.1v-0.3
		c0-0.1,0-0.1,0.1-0.1h1c0.1,0,0.1,0,0.1,0.1V23z M91.3,18.9c-0.2,0-0.4-0.2-0.4-0.4c0-0.2,0.2-0.4,0.4-0.4c0.2,0,0.4,0.2,0.4,0.4
		C91.8,18.8,91.6,18.9,91.3,18.9z"/>
	<path d="M95.2,20C95,20.2,95,20.4,95,20.7v1.1c0,0.5,0,0.5,0,1.2c0,0.2,0,0.3,0,0.4c0,0.8-0.4,1.2-1.2,1.2c-0.4,0-0.7-0.1-1-0.3
		c-0.1-0.1-0.1-0.1-0.1-0.1c0,0,0,0,0,0l0.1-0.3c0,0,0,0,0,0c0,0,0,0,0.1,0c0.3,0.2,0.7,0.3,0.9,0.3c0.3,0,0.5-0.1,0.6-0.3
		c0.1-0.1,0.1-0.2,0.1-0.5c0-0.1,0-0.2,0-0.4l0-0.3v-0.1c-0.3,0.3-0.6,0.4-1,0.4c-0.7,0-1.1-0.6-1.1-1.6c0-1.2,0.5-1.8,1.3-1.8
		c0.3,0,0.5,0.1,0.8,0.3c0.1-0.2,0.2-0.3,0.2-0.3c0,0,0,0,0.1,0l0.3,0.2C95.2,19.9,95.2,19.9,95.2,20C95.2,19.9,95.2,19.9,95.2,20z
		 M94.5,20.3c-0.3-0.1-0.5-0.2-0.7-0.2c-0.5,0-0.8,0.4-0.8,1.2c0,0.9,0.2,1.2,0.6,1.2c0.3,0,0.5-0.1,0.8-0.3V20.3z"/>
	<path d="M98.4,23C98.4,23.1,98.4,23.1,98.4,23L98,23.1c-0.1,0-0.1,0-0.1-0.1v-2.3c0-0.4-0.1-0.6-0.5-0.6c-0.3,0-0.5,0.1-0.9,0.4V23
		c0,0.1,0,0.1-0.1,0.1h-0.4c-0.1,0-0.1,0-0.1-0.1v-4.8c0,0,0-0.1,0.1-0.1l0.4-0.1c0,0,0,0,0,0c0,0,0,0,0,0.1v2
		c0.4-0.3,0.7-0.5,1.1-0.5c0.3,0,0.5,0.1,0.7,0.3c0.1,0.2,0.2,0.3,0.2,0.8V23z"/>
	<path d="M100.3,23.2c-0.4,0-0.6-0.1-0.8-0.4c-0.1-0.1-0.1-0.3-0.1-0.6v-2H99c-0.1,0-0.1,0-0.1-0.1v-0.3c0-0.1,0-0.1,0.1-0.1h0.5v-1
		c0,0,0-0.1,0.1-0.1l0.4-0.1c0,0,0,0,0,0c0,0,0,0,0,0.1v1.1h1.1c0,0,0.1,0,0.1,0c0,0,0,0,0,0l-0.1,0.3c0,0,0,0.1-0.1,0.1H100v2
		c0,0.3,0,0.3,0.1,0.4c0.1,0.1,0.2,0.1,0.3,0.1c0.2,0,0.3,0,0.6-0.2c0,0,0,0,0,0c0,0,0,0,0,0l0.1,0.3c0,0,0,0,0,0
		C101.3,23,100.7,23.2,100.3,23.2z"/>
	<path d="M102,24.4c-0.2,0.3-0.3,0.4-0.3,0.4c0,0,0,0-0.1,0l-0.2-0.1c0,0,0,0,0-0.1c0,0,0-0.1,0.1-0.1c0.7-1,1-1.9,1-3s-0.3-2.1-1-3
		c0-0.1-0.1-0.1-0.1-0.1c0,0,0,0,0.2-0.1c0.1-0.1,0.1-0.1,0.1-0.1c0.1,0,0.2,0.1,0.5,0.6c0.6,0.9,0.9,1.8,0.9,2.8
		C103,22.5,102.7,23.4,102,24.4z"/>
	<path d="M21,31.1l-0.4,0.1h0c0,0-0.1,0-0.1-0.1L19.3,29h-0.5V31c0,0.1,0,0.1-0.1,0.1h-0.4c-0.1,0-0.1,0-0.1-0.1v-4.6
		c0-0.1,0-0.1,0.1-0.1h1.1c0.4,0,0.7,0,0.9,0.1c0.3,0.2,0.5,0.6,0.5,1c0,0.7-0.3,1.2-0.9,1.4l1.2,2.1C21.1,31,21.1,31.1,21,31.1
		C21.1,31.1,21.1,31.1,21,31.1z M19.9,26.9c-0.1-0.1-0.2-0.1-0.5-0.1h-0.6v1.7h0.5c0.3,0,0.4,0,0.6-0.2c0.2-0.2,0.3-0.4,0.3-0.8
		C20.2,27.2,20.1,27,19.9,26.9z"/>
	<path d="M24,29.6h-2c0,0.8,0.4,1.2,0.9,1.2c0.3,0,0.5-0.1,0.8-0.3c0,0,0,0,0.1,0c0,0,0,0,0,0l0.1,0.3c0,0,0,0,0,0
		c0,0.1-0.1,0.1-0.3,0.2c-0.3,0.1-0.6,0.2-0.9,0.2c-0.9,0-1.5-0.7-1.5-1.8c0-1.1,0.5-1.8,1.4-1.8c0.6,0,1,0.3,1.2,0.8
		C24,28.7,24,29,24,29.4C24,29.5,24,29.6,24,29.6z M23.5,29.1c0-0.7-0.3-1-0.7-1c-0.5,0-0.7,0.4-0.8,1H23.5z"/>
	<path d="M27,27.9l-1.3,3.2c0,0.1,0,0.1-0.1,0.1h-0.3c-0.1,0-0.1,0-0.1-0.1l-1.2-3.2c0,0,0,0,0,0c0,0,0,0,0.1-0.1l0.4-0.1l0,0h0
		c0,0,0,0,0.1,0.1l0.7,2.3c0,0,0,0.1,0,0.1l0,0.2l0,0.1c0-0.2,0.1-0.3,0.1-0.4l0.8-2.3c0,0,0-0.1,0.1-0.1c0,0,0,0,0,0l0.4,0.1
		C27,27.8,27,27.8,27,27.9C27,27.9,27,27.9,27,27.9z"/>
	<path d="M29.8,29.6h-2c0,0.8,0.4,1.2,0.9,1.2c0.3,0,0.5-0.1,0.8-0.3c0,0,0,0,0.1,0c0,0,0,0,0,0l0.1,0.3c0,0,0,0,0,0
		c0,0.1-0.1,0.1-0.3,0.2c-0.3,0.1-0.6,0.2-0.9,0.2c-0.9,0-1.5-0.7-1.5-1.8c0-1.1,0.5-1.8,1.4-1.8c0.6,0,1,0.3,1.2,0.8
		c0.1,0.2,0.1,0.5,0.1,0.9C29.9,29.5,29.9,29.6,29.8,29.6z M29.3,29.1c0-0.7-0.3-1-0.7-1c-0.5,0-0.7,0.4-0.8,1H29.3z"/>
	<path d="M33,31C33,31.1,33,31.1,33,31l-0.4,0.1c-0.1,0-0.1,0-0.1-0.1v-2.3c0-0.4-0.1-0.6-0.5-0.6c-0.3,0-0.6,0.1-0.9,0.4V31
		c0,0.1,0,0.1-0.1,0.1h-0.4c-0.1,0-0.1,0-0.1-0.1v-2.4c0-0.3,0-0.4-0.1-0.7c0,0,0,0,0,0c0,0,0,0,0,0l0.3-0.2c0,0,0,0,0.1,0
		c0.1,0,0.2,0.2,0.2,0.5c0.4-0.3,0.7-0.5,1.1-0.5c0.3,0,0.6,0.1,0.7,0.3c0.1,0.2,0.1,0.3,0.1,0.7V31z"/>
	<path d="M36.5,31l-0.3,0.2c0,0,0,0,0,0c-0.1,0-0.2-0.2-0.2-0.4c-0.4,0.3-0.7,0.4-1.1,0.4c-0.6,0-1-0.3-1-0.9v-2.4
		c0,0,0-0.1,0.1-0.1l0.4-0.1c0,0,0,0,0,0c0,0,0,0,0,0.1v2.2c0,0.6,0.1,0.8,0.5,0.8c0.3,0,0.6-0.1,0.9-0.4v-2.5c0,0,0-0.1,0.1-0.1
		l0.4-0.1c0,0,0,0,0,0c0,0,0,0,0,0.1v2.4C36.4,30.6,36.4,30.7,36.5,31C36.6,30.9,36.6,31,36.5,31C36.6,31,36.6,31,36.5,31z"/>
	<path d="M39.7,29.6h-2c0,0.8,0.4,1.2,0.9,1.2c0.3,0,0.5-0.1,0.8-0.3c0,0,0,0,0.1,0c0,0,0,0,0,0l0.1,0.3c0,0,0,0,0,0
		c0,0.1-0.1,0.1-0.3,0.2c-0.3,0.1-0.6,0.2-0.9,0.2c-0.9,0-1.5-0.7-1.5-1.8c0-1.1,0.5-1.8,1.4-1.8c0.6,0,1,0.3,1.2,0.8
		c0.1,0.2,0.1,0.5,0.1,0.9C39.8,29.5,39.7,29.6,39.7,29.6z M39.2,29.1c0-0.7-0.3-1-0.7-1s-0.7,0.4-0.8,1H39.2z"/>
	<path d="M54.1,31.2c-0.5,0-1.3-0.3-1.3-0.4c0,0,0,0,0-0.1l0.1-0.3c0,0,0,0,0,0s0,0,0.1,0c0.3,0.2,0.7,0.3,1,0.3
		c0.5,0,0.9-0.3,0.9-0.8c0-0.4-0.2-0.6-0.9-1c-0.6-0.3-0.7-0.4-0.9-0.6c-0.2-0.2-0.3-0.5-0.3-0.8c0-0.7,0.6-1.3,1.4-1.3
		c0.5,0,1.2,0.2,1.2,0.4c0,0,0,0,0,0.1L55.3,27c0,0,0,0-0.1,0c0,0,0,0-0.3-0.1c-0.2-0.1-0.5-0.2-0.7-0.2c-0.5,0-0.8,0.3-0.8,0.7
		c0,0.2,0.1,0.5,0.3,0.6c0.2,0.1,0.2,0.1,0.8,0.5c0.4,0.2,0.5,0.4,0.7,0.6c0.2,0.2,0.2,0.5,0.2,0.8C55.5,30.7,54.9,31.2,54.1,31.2z"
		/>
	<path d="M57.7,31.2c-0.3,0-0.5-0.1-0.8-0.3v1.5c0,0,0,0.1-0.1,0.1l-0.4,0.1c0,0,0,0,0,0c0,0,0,0,0-0.1v-3.8c0-0.3,0-0.5-0.1-0.7
		c-0.1-0.1-0.1-0.1-0.1-0.1c0,0,0,0,0,0l0.3-0.2c0,0,0,0,0.1,0c0.1,0,0.2,0.2,0.3,0.4c0.4-0.3,0.7-0.4,1-0.4c0.4,0,0.7,0.2,0.8,0.5
		c0.2,0.3,0.2,0.7,0.2,1.2C58.8,30.5,58.4,31.2,57.7,31.2z M58.1,28.5c-0.1-0.2-0.3-0.4-0.5-0.4c-0.2,0-0.4,0.1-0.8,0.3v2
		c0.3,0.2,0.5,0.3,0.8,0.3c0.5,0,0.7-0.4,0.7-1.4C58.2,29,58.2,28.7,58.1,28.5z"/>
	<path d="M61.9,29.6h-2c0,0.8,0.4,1.2,0.9,1.2c0.3,0,0.5-0.1,0.8-0.3c0,0,0,0,0.1,0c0,0,0,0,0,0l0.1,0.3c0,0,0,0,0,0
		c0,0.1-0.1,0.1-0.3,0.2c-0.3,0.1-0.6,0.2-0.9,0.2c-0.9,0-1.5-0.7-1.5-1.8c0-1.1,0.5-1.8,1.4-1.8c0.6,0,1,0.3,1.2,0.8
		C62,28.7,62,29,62,29.4C62,29.5,62,29.6,61.9,29.6z M61.4,29.1c0-0.7-0.3-1-0.7-1c-0.5,0-0.7,0.4-0.8,1H61.4z"/>
	<path d="M65.1,31C65.1,31.1,65.1,31.1,65.1,31l-0.4,0.1c-0.1,0-0.1,0-0.1-0.1v-2.3c0-0.4-0.1-0.6-0.5-0.6c-0.3,0-0.6,0.1-0.9,0.4
		V31c0,0.1,0,0.1-0.1,0.1h-0.4c-0.1,0-0.1,0-0.1-0.1v-2.4c0-0.3,0-0.4-0.1-0.7c0,0,0,0,0,0c0,0,0,0,0,0l0.3-0.2c0,0,0,0,0.1,0
		c0.1,0,0.2,0.2,0.2,0.5c0.4-0.3,0.7-0.5,1.1-0.5c0.3,0,0.6,0.1,0.7,0.3c0.1,0.2,0.1,0.3,0.1,0.7V31z"/>
	<path d="M68.6,31l-0.3,0.2c0,0,0,0-0.1,0c-0.1,0-0.2-0.2-0.2-0.4c-0.5,0.3-0.7,0.4-1,0.4c-0.7,0-1.1-0.7-1.1-1.8
		c0-1.1,0.5-1.7,1.3-1.7c0.3,0,0.5,0.1,0.8,0.2v-1.7c0,0,0-0.1,0.1-0.1l0.4-0.1c0,0,0,0,0,0c0,0,0,0,0,0.1V30c0,0.4,0,0.6,0.2,0.8
		C68.7,30.9,68.7,30.9,68.6,31C68.7,31,68.6,31,68.6,31z M67.9,28.4c-0.3-0.2-0.5-0.2-0.7-0.2c-0.5,0-0.7,0.4-0.7,1.2
		c0,1,0.2,1.4,0.7,1.4c0.3,0,0.5-0.1,0.8-0.4V28.4z"/>
	<path d="M70.1,31C70.1,31.1,70.1,31.1,70.1,31l-0.4,0.1c-0.1,0-0.1,0-0.1-0.1v-2.8H69c-0.1,0-0.1,0-0.1-0.1v-0.3
		c0-0.1,0-0.1,0.1-0.1h1c0.1,0,0.1,0,0.1,0.1V31z M69.8,26.9c-0.2,0-0.4-0.2-0.4-0.4c0-0.2,0.2-0.4,0.4-0.4c0.2,0,0.4,0.2,0.4,0.4
		C70.2,26.8,70,26.9,69.8,26.9z"/>
	<path d="M73.5,31C73.5,31.1,73.5,31.1,73.5,31l-0.4,0.1c-0.1,0-0.1,0-0.1-0.1v-2.3c0-0.4-0.1-0.6-0.5-0.6c-0.3,0-0.6,0.1-0.9,0.4
		V31c0,0.1,0,0.1-0.1,0.1h-0.4c-0.1,0-0.1,0-0.1-0.1v-2.4c0-0.3,0-0.4-0.1-0.7c0,0,0,0,0,0c0,0,0,0,0,0l0.3-0.2c0,0,0,0,0.1,0
		c0.1,0,0.2,0.2,0.2,0.5c0.4-0.3,0.7-0.5,1.1-0.5c0.3,0,0.6,0.1,0.7,0.3c0.1,0.2,0.1,0.3,0.1,0.7V31z"/>
	<path d="M77,28c-0.1,0.2-0.2,0.4-0.2,0.7v1.1c0,0.5,0,0.5,0,1.2c0,0.2,0,0.3,0,0.4c0,0.8-0.4,1.2-1.2,1.2c-0.3,0-0.7-0.1-1.1-0.3
		c-0.1-0.1-0.1-0.1-0.1-0.1c0,0,0,0,0,0l0.1-0.3c0,0,0,0,0,0s0,0,0.1,0c0.3,0.2,0.7,0.3,0.9,0.3c0.3,0,0.5-0.1,0.6-0.3
		c0.1-0.1,0.1-0.2,0.1-0.5c0-0.1,0-0.2,0-0.4l0-0.3v-0.1c-0.3,0.3-0.6,0.4-1,0.4c-0.7,0-1.1-0.6-1.1-1.6c0-1.2,0.5-1.8,1.3-1.8
		c0.3,0,0.5,0.1,0.8,0.3c0.1-0.2,0.2-0.3,0.2-0.3c0,0,0,0,0.1,0l0.3,0.2C77.1,27.9,77.1,27.9,77,28C77.1,27.9,77.1,27.9,77,28z
		 M76.3,28.3c-0.3-0.1-0.5-0.2-0.7-0.2c-0.5,0-0.8,0.4-0.8,1.2c0,0.9,0.2,1.2,0.6,1.2c0.3,0,0.5-0.1,0.8-0.3V28.3z"/>
	<path d="M78.9,30.4l-0.8,1.5C78,32,78,32,78,32c0,0,0,0,0,0l0,0l-0.2-0.1c-0.1,0-0.1,0-0.1-0.1c0,0,0,0,0-0.1l0.4-1.4
		c0-0.1,0-0.1,0.1-0.1h0.6C78.9,30.3,78.9,30.3,78.9,30.4C78.9,30.4,78.9,30.4,78.9,30.4z"/>
	<path d="M82.3,31.2c-0.4,0-0.6-0.1-0.9-0.3c-0.1,0.2-0.2,0.3-0.2,0.3c0,0,0,0-0.1,0L80.8,31c0,0,0,0,0,0c0,0,0,0,0,0
		c0.1-0.2,0.2-0.4,0.2-0.7v-3.9c0,0,0-0.1,0.1-0.1l0.4-0.1c0,0,0,0,0,0c0,0,0,0,0,0.1V28c0.4-0.3,0.6-0.3,0.9-0.3
		c0.7,0,1.1,0.5,1.1,1.6C83.6,30.6,83.2,31.2,82.3,31.2z M82.4,28.1c-0.3,0-0.5,0.1-0.8,0.3v2c0.2,0.2,0.4,0.3,0.7,0.3
		c0.5,0,0.7-0.4,0.7-1.5C83,28.5,82.8,28.1,82.4,28.1z"/>
	<path d="M86.8,31C86.8,31.1,86.8,31.1,86.8,31l-0.4,0.1c-0.1,0-0.1,0-0.1-0.1v-2.3c0-0.4-0.1-0.6-0.5-0.6c-0.3,0-0.6,0.1-0.9,0.4
		V31c0,0.1,0,0.1-0.1,0.1h-0.4c-0.1,0-0.1,0-0.1-0.1v-2.4c0-0.3,0-0.4-0.1-0.7c0,0,0,0,0,0c0,0,0,0,0,0l0.3-0.2c0,0,0,0,0.1,0
		c0.1,0,0.2,0.2,0.2,0.5c0.4-0.3,0.7-0.5,1.1-0.5c0.3,0,0.6,0.1,0.7,0.3c0.1,0.2,0.1,0.3,0.1,0.7V31z"/>
	<path d="M92,30.9l-0.3,0.2c0,0,0,0-0.1,0c0,0,0,0-0.1,0l-1.8-2.3V31c0,0.1,0,0.1-0.1,0.1h-0.4c-0.1,0-0.1,0-0.1-0.1v-4.6
		c0-0.1,0-0.1,0.1-0.1h0.4c0.1,0,0.1,0,0.1,0.1v2.3l1.8-2.4c0,0,0-0.1,0.1-0.1c0,0,0,0,0.1,0l0.3,0.2c0,0,0.1,0,0.1,0.1
		c0,0,0,0,0,0.1l-1.6,2.1l1.7,2.1C92,30.8,92,30.9,92,30.9C92,30.9,92,30.9,92,30.9z"/>
	<path d="M95.1,31l-0.3,0.2c0,0,0,0,0,0c-0.1,0-0.2-0.2-0.2-0.4c-0.4,0.3-0.7,0.4-1.1,0.4c-0.6,0-1-0.3-1-0.9v-2.4
		c0,0,0-0.1,0.1-0.1l0.4-0.1c0,0,0,0,0,0c0,0,0,0,0,0.1v2.2c0,0.6,0.1,0.8,0.5,0.8c0.3,0,0.6-0.1,0.9-0.4v-2.5c0,0,0-0.1,0.1-0.1
		l0.4-0.1c0,0,0,0,0,0c0,0,0,0,0,0.1v2.4C94.9,30.6,94.9,30.7,95.1,31C95.1,30.9,95.1,31,95.1,31C95.1,31,95.1,31,95.1,31z"/>
	<path d="M98.3,31C98.3,31.1,98.3,31.1,98.3,31l-0.4,0.1c-0.1,0-0.1,0-0.1-0.1v-2.3c0-0.4-0.1-0.6-0.5-0.6c-0.3,0-0.6,0.1-0.9,0.4
		V31c0,0.1,0,0.1-0.1,0.1h-0.4c-0.1,0-0.1,0-0.1-0.1v-2.4c0-0.3,0-0.4-0.1-0.7c0,0,0,0,0,0c0,0,0,0,0,0l0.3-0.2c0,0,0,0,0.1,0
		c0.1,0,0.2,0.2,0.2,0.5c0.4-0.3,0.7-0.5,1.1-0.5c0.3,0,0.6,0.1,0.7,0.3c0.1,0.2,0.1,0.3,0.1,0.7V31z"/>
	<path d="M101.5,31l-0.3,0.2c0,0,0,0-0.1,0c-0.1,0-0.2-0.2-0.3-0.4c-0.3,0.3-0.6,0.4-1,0.4c-0.6,0-0.9-0.4-0.9-1
		c0-0.8,0.6-1.2,1.8-1.2v-0.2c0-0.4-0.2-0.6-0.6-0.6c-0.3,0-0.5,0-0.8,0.2c0,0,0,0,0,0c0,0,0,0,0,0l-0.1-0.3l0-0.1
		c0,0,0-0.1,0.2-0.1c0.3-0.1,0.6-0.2,0.9-0.2c0.7,0,1.1,0.3,1.1,1V30C101.3,30.5,101.4,30.6,101.5,31
		C101.5,30.9,101.5,30.9,101.5,31C101.5,31,101.5,31,101.5,31z M100.8,29.5c-0.9,0-1.3,0.3-1.3,0.7c0,0.3,0.2,0.6,0.5,0.6
		c0.2,0,0.5-0.1,0.8-0.4V29.5z"/>
	<path d="M105,32.7c-0.1,0-0.2-0.2-0.5-0.6c-0.6-0.9-0.9-1.8-0.9-2.8c0-1.1,0.3-2.1,1-3c0.2-0.3,0.3-0.3,0.3-0.3c0,0,0,0,0.1,0
		l0.2,0.1c0,0,0,0,0,0.1c0,0,0,0.1-0.1,0.1c-0.7,0.9-1,1.9-1,3c0,1.2,0.3,2.1,1,3c0,0.1,0.1,0.1,0.1,0.1
		C105.3,32.6,105,32.7,105,32.7z"/>
	<path d="M106.8,31.2c-0.4,0-0.7-0.2-0.7-0.5c0-0.1,0-0.2,0-0.9v-3.6c0,0,0-0.1,0.1-0.1l0.4-0.1c0,0,0,0,0,0c0,0,0,0,0,0.1v3.7
		c0,0.3,0,0.6,0,0.6c0,0.2,0.1,0.3,0.3,0.3c0.1,0,0.2,0,0.3-0.1c0,0,0,0,0.1,0c0,0,0,0,0,0l0.1,0.3c0,0,0,0,0,0.1
		C107.4,31.1,107,31.2,106.8,31.2z"/>
	<path d="M110,29.6h-2c0,0.8,0.4,1.2,0.9,1.2c0.3,0,0.5-0.1,0.8-0.3c0,0,0,0,0.1,0c0,0,0,0,0,0l0.1,0.3c0,0,0,0,0,0
		c0,0.1-0.1,0.1-0.3,0.2c-0.3,0.1-0.6,0.2-0.9,0.2c-0.9,0-1.5-0.7-1.5-1.8c0-1.1,0.5-1.8,1.4-1.8c0.6,0,1,0.3,1.2,0.8
		c0.1,0.2,0.1,0.5,0.1,0.9C110.1,29.5,110.1,29.6,110,29.6z M109.5,29.1c0-0.7-0.3-1-0.8-1c-0.5,0-0.7,0.4-0.8,1H109.5z"/>
	<path d="M112.5,26.3l-0.1,0.3c0,0,0,0,0,0c0,0,0,0-0.1,0c-0.2-0.1-0.4-0.1-0.5-0.1c-0.1,0-0.3,0-0.3,0.1c-0.1,0.1-0.1,0.2-0.1,0.6
		v0.5h1c0.1,0,0.1,0,0.1,0c0,0,0,0,0,0l-0.1,0.3c0,0,0,0.1-0.1,0.1h-0.9V31c0,0.1,0,0.1-0.1,0.1h-0.4c-0.1,0-0.1,0-0.1-0.1v-2.8
		h-0.5c-0.1,0-0.1,0-0.1-0.1v-0.3c0-0.1,0-0.1,0.1-0.1h0.5v-0.5c0-0.4,0-0.6,0.2-0.8c0.2-0.2,0.4-0.3,0.8-0.3
		C112.1,26.1,112.6,26.2,112.5,26.3C112.6,26.3,112.6,26.3,112.5,26.3z"/>
	<path d="M113.6,31.2c-0.4,0-0.6-0.1-0.8-0.4c-0.1-0.1-0.1-0.3-0.1-0.6v-2h-0.5c-0.1,0-0.1,0-0.1-0.1v-0.3c0-0.1,0-0.1,0.1-0.1h0.5
		v-1c0,0,0-0.1,0.1-0.1l0.4-0.1c0,0,0,0,0,0c0,0,0,0,0,0.1v1.1h1.1c0,0,0.1,0,0.1,0c0,0,0,0,0,0l-0.1,0.3c0,0,0,0.1-0.1,0.1h-0.9v2
		c0,0.3,0,0.3,0.1,0.4c0.1,0.1,0.2,0.1,0.3,0.1c0.2,0,0.3,0,0.6-0.2c0,0,0,0,0,0c0,0,0,0,0,0l0.1,0.3c0,0,0,0,0,0
		C114.5,31,113.9,31.2,113.6,31.2z"/>
	<path d="M115.2,32.4c-0.2,0.3-0.3,0.4-0.3,0.4c0,0,0,0-0.1,0l-0.2-0.1c0,0,0,0,0-0.1c0,0,0-0.1,0.1-0.1c0.7-1,1-1.9,1-3
		s-0.3-2.1-1-3c0-0.1-0.1-0.1-0.1-0.1c0,0,0,0,0.2-0.1c0.1-0.1,0.1-0.1,0.1-0.1c0.1,0,0.2,0.1,0.5,0.6c0.6,0.9,0.9,1.8,0.9,2.8
		C116.2,30.5,115.9,31.4,115.2,32.4z"/>
</g>
<g>
	<path d="M25.8,156C25.9,156,25.9,156,25.8,156l0.1,1.9c0,0.1,0,0.1-0.1,0.1c-0.8,0-1.3-0.3-1.7-0.9c-0.2-0.4-0.3-0.4-0.4-0.5
		c-0.1-0.1-0.3-0.1-0.4-0.1c-0.4,0-0.6,0.2-0.6,0.5c0,0.3,0.2,0.5,0.5,0.6c0,0,0,0,0,0c0,0,0,0,0,0l-0.1,0.2c0,0,0,0,0,0
		c-0.1,0-0.3-0.1-0.5-0.2c-0.2-0.2-0.4-0.5-0.4-0.8c0-0.6,0.4-1,1-1c0.4,0,0.7,0.2,1,0.6c0.4,0.6,0.7,0.8,1.2,0.9v-1.4
		c0-0.1,0-0.1,0.1-0.1H25.8z"/>
	<path d="M25.9,154.2c0,0.3-0.1,0.6-0.4,0.7c-0.4,0.3-0.8,0.4-1.4,0.4c-1.2,0-1.9-0.4-1.9-1.2c0-0.7,0.6-1.1,1.8-1.1
		C25.3,153.1,25.9,153.5,25.9,154.2z M22.6,154.2c0,0.4,0.5,0.7,1.5,0.7c0.5,0,0.9-0.1,1.1-0.2c0.2-0.1,0.3-0.3,0.3-0.5
		c0-0.3-0.1-0.4-0.4-0.5c-0.3-0.1-0.7-0.2-1.1-0.2C23.1,153.5,22.6,153.7,22.6,154.2z"/>
	<path d="M25.9,151.4c0,0.3-0.1,0.6-0.4,0.7c-0.4,0.3-0.8,0.4-1.4,0.4c-1.2,0-1.9-0.4-1.9-1.2c0-0.7,0.6-1.1,1.8-1.1
		C25.3,150.3,25.9,150.7,25.9,151.4z M22.6,151.4c0,0.4,0.5,0.7,1.5,0.7c0.5,0,0.9-0.1,1.1-0.2c0.2-0.1,0.3-0.3,0.3-0.5
		c0-0.3-0.1-0.4-0.4-0.5c-0.3-0.1-0.7-0.2-1.1-0.2C23.1,150.7,22.6,150.9,22.6,151.4z"/>
	<path d="M22.5,147.8l3.3,1.3c0,0,0.1,0,0.1,0.1c0,0,0,0,0,0l0,0.3c0,0,0,0.1,0,0.1c0,0,0,0,0,0l-3-1.2v1.4c0,0.1,0,0.1-0.1,0.1
		h-0.2c-0.1,0-0.1,0-0.1-0.1v-1.9c0-0.1,0-0.1,0.1-0.1H22.5z"/>
	<path d="M35.7,156.2C35.8,156.2,35.8,156.2,35.7,156.2l0.1,1.9c0,0.1,0,0.1-0.1,0.1c-0.8,0-1.3-0.3-1.7-0.9
		c-0.2-0.4-0.3-0.4-0.4-0.5c-0.1-0.1-0.3-0.1-0.4-0.1c-0.4,0-0.6,0.2-0.6,0.5c0,0.3,0.2,0.5,0.5,0.6c0,0,0,0,0,0c0,0,0,0,0,0
		l-0.1,0.2c0,0,0,0,0,0c-0.1,0-0.3-0.1-0.5-0.2c-0.2-0.2-0.4-0.5-0.4-0.8c0-0.6,0.4-1,1-1c0.4,0,0.7,0.2,1,0.6
		c0.4,0.6,0.7,0.8,1.2,0.9v-1.4c0-0.1,0-0.1,0.1-0.1H35.7z"/>
	<path d="M35.8,154.3c0,0.3-0.1,0.6-0.4,0.7c-0.4,0.3-0.8,0.4-1.4,0.4c-1.2,0-1.9-0.4-1.9-1.2c0-0.7,0.6-1.1,1.8-1.1
		C35.2,153.2,35.8,153.6,35.8,154.3z M32.5,154.3c0,0.4,0.5,0.7,1.5,0.7c0.5,0,0.9-0.1,1.1-0.2c0.2-0.1,0.3-0.3,0.3-0.5
		c0-0.3-0.1-0.4-0.4-0.5c-0.3-0.1-0.7-0.2-1.1-0.2C33,153.6,32.5,153.9,32.5,154.3z"/>
	<path d="M35.8,151.5c0,0.3-0.1,0.6-0.4,0.7c-0.4,0.3-0.8,0.4-1.4,0.4c-1.2,0-1.9-0.4-1.9-1.2c0-0.7,0.6-1.1,1.8-1.1
		C35.2,150.4,35.8,150.8,35.8,151.5z M32.5,151.5c0,0.4,0.5,0.7,1.5,0.7c0.5,0,0.9-0.1,1.1-0.2c0.2-0.1,0.3-0.3,0.3-0.5
		c0-0.3-0.1-0.4-0.4-0.5c-0.3-0.1-0.7-0.2-1.1-0.2C33,150.8,32.5,151.1,32.5,151.5z"/>
	<path d="M35.5,147.8c0.3,0.2,0.4,0.5,0.4,0.9c0,0.7-0.4,1.2-1,1.2c-0.3,0-0.5-0.1-0.7-0.3c-0.1-0.1-0.2-0.2-0.3-0.5
		c-0.2,0.4-0.5,0.6-0.9,0.6c-0.2,0-0.4-0.1-0.6-0.3c-0.2-0.2-0.3-0.4-0.3-0.8c0-0.6,0.3-1,0.8-1c0.4,0,0.7,0.2,0.9,0.6
		c0.2-0.5,0.5-0.8,1-0.8C35.1,147.6,35.3,147.7,35.5,147.8z M32.5,148.7c0,0.3,0.2,0.6,0.5,0.6c0.3,0,0.5-0.2,0.7-0.6
		c-0.2-0.4-0.4-0.6-0.7-0.6C32.7,148.1,32.5,148.4,32.5,148.7z M34.1,148.7c0.1,0.2,0.1,0.3,0.2,0.4c0.1,0.2,0.4,0.3,0.6,0.3
		c0.4,0,0.6-0.3,0.6-0.7c0-0.4-0.3-0.7-0.6-0.7C34.5,148,34.3,148.2,34.1,148.7z"/>
	<path d="M45.6,156.2C45.7,156.2,45.7,156.2,45.6,156.2l0.1,1.9c0,0.1,0,0.1-0.1,0.1c-0.8,0-1.3-0.3-1.7-0.9
		c-0.2-0.4-0.3-0.4-0.4-0.5c-0.1-0.1-0.3-0.1-0.4-0.1c-0.4,0-0.6,0.2-0.6,0.5c0,0.3,0.2,0.5,0.5,0.6c0,0,0,0,0,0c0,0,0,0,0,0
		l-0.1,0.2c0,0,0,0,0,0c-0.1,0-0.3-0.1-0.5-0.2c-0.2-0.2-0.4-0.5-0.4-0.8c0-0.6,0.4-1,1-1c0.4,0,0.7,0.2,1,0.6
		c0.4,0.6,0.7,0.8,1.2,0.9v-1.4c0-0.1,0-0.1,0.1-0.1H45.6z"/>
	<path d="M45.7,154.3c0,0.3-0.1,0.6-0.4,0.7c-0.4,0.3-0.8,0.4-1.4,0.4c-1.2,0-1.9-0.4-1.9-1.2c0-0.7,0.6-1.1,1.8-1.1
		C45.1,153.2,45.7,153.6,45.7,154.3z M42.4,154.3c0,0.4,0.5,0.7,1.5,0.7c0.5,0,0.9-0.1,1.1-0.2c0.2-0.1,0.3-0.3,0.3-0.5
		c0-0.3-0.1-0.4-0.4-0.5c-0.3-0.1-0.7-0.2-1.1-0.2C42.9,153.6,42.4,153.9,42.4,154.3z"/>
	<path d="M45.7,151.5c0,0.3-0.1,0.6-0.4,0.7c-0.4,0.3-0.8,0.4-1.4,0.4c-1.2,0-1.9-0.4-1.9-1.2c0-0.7,0.6-1.1,1.8-1.1
		C45.1,150.4,45.7,150.8,45.7,151.5z M42.4,151.5c0,0.4,0.5,0.7,1.5,0.7c0.5,0,0.9-0.1,1.1-0.2c0.2-0.1,0.3-0.3,0.3-0.5
		c0-0.3-0.1-0.4-0.4-0.5c-0.3-0.1-0.7-0.2-1.1-0.2C42.9,150.8,42.4,151.1,42.4,151.5z"/>
	<path d="M45.7,149.1c0,0.3-0.1,0.5-0.1,0.5h0l-0.2,0c0,0,0,0,0,0c0,0,0,0,0,0c0-0.1,0-0.2,0-0.3c0-0.6-0.4-0.9-1.2-1
		c0.3,0.2,0.4,0.4,0.4,0.7c0,0.6-0.5,0.9-1.2,0.9c-0.8,0-1.3-0.4-1.3-1.1c0-0.7,0.5-1,1.5-1C44.9,147.7,45.7,148.2,45.7,149.1z
		 M42.4,148.8c0,0.4,0.3,0.6,0.9,0.6c0.5,0,0.9-0.2,0.9-0.6c0-0.4-0.3-0.6-0.9-0.6C42.7,148.2,42.4,148.4,42.4,148.8z"/>
	<path d="M55.5,155.8C55.6,155.8,55.6,155.9,55.5,155.8l0.1,1.9c0,0.1,0,0.1-0.1,0.1c-0.8,0-1.3-0.3-1.7-0.9
		c-0.2-0.4-0.3-0.4-0.4-0.5c-0.1-0.1-0.3-0.1-0.4-0.1c-0.4,0-0.6,0.2-0.6,0.5c0,0.3,0.2,0.5,0.5,0.6c0,0,0,0,0,0c0,0,0,0,0,0
		l-0.1,0.2c0,0,0,0,0,0c-0.1,0-0.3-0.1-0.5-0.2c-0.2-0.2-0.4-0.5-0.4-0.8c0-0.6,0.4-1,1-1c0.4,0,0.7,0.2,1,0.6
		c0.4,0.6,0.7,0.8,1.2,0.9v-1.4c0-0.1,0-0.1,0.1-0.1H55.5z"/>
	<path d="M55.6,154c0,0.3-0.1,0.6-0.4,0.7c-0.4,0.3-0.8,0.4-1.4,0.4c-1.2,0-1.9-0.4-1.9-1.2c0-0.7,0.6-1.1,1.8-1.1
		C55,152.9,55.6,153.3,55.6,154z M52.3,154c0,0.4,0.5,0.7,1.5,0.7c0.5,0,0.9-0.1,1.1-0.2c0.2-0.1,0.3-0.3,0.3-0.5
		c0-0.3-0.1-0.4-0.4-0.5c-0.3-0.1-0.7-0.2-1.1-0.2C52.8,153.3,52.3,153.6,52.3,154z"/>
	<path d="M55.5,150.4C55.6,150.4,55.6,150.4,55.5,150.4l0.1,1.5c0,0.1,0,0.1-0.1,0.1h-0.2c-0.1,0-0.1,0-0.1-0.1v-0.6h-2.7l0.4,0.8
		c0,0,0,0,0,0.1c0,0,0,0,0,0l-0.1,0.1c0,0,0,0-0.1,0c0,0,0,0,0,0l-0.7-1V151c0-0.1,0-0.1,0.1-0.1h3.1v-0.5c0-0.1,0-0.1,0.1-0.1H55.5
		z"/>
	<path d="M55.6,148.7c0,0.3-0.1,0.6-0.4,0.7c-0.4,0.3-0.8,0.4-1.4,0.4c-1.2,0-1.9-0.4-1.9-1.2c0-0.7,0.6-1.1,1.8-1.1
		C55,147.6,55.6,148,55.6,148.7z M52.3,148.7c0,0.4,0.5,0.7,1.5,0.7c0.5,0,0.9-0.1,1.1-0.2c0.2-0.1,0.3-0.3,0.3-0.5
		c0-0.3-0.1-0.4-0.4-0.5c-0.3-0.1-0.7-0.2-1.1-0.2C52.8,148,52.3,148.3,52.3,148.7z"/>
	<path d="M65.4,155.8C65.5,155.8,65.5,155.8,65.4,155.8l0.1,1.9c0,0.1,0,0.1-0.1,0.1c-0.8,0-1.3-0.3-1.7-0.9
		c-0.2-0.4-0.3-0.4-0.4-0.5c-0.1-0.1-0.3-0.1-0.4-0.1c-0.4,0-0.6,0.2-0.6,0.5c0,0.3,0.2,0.5,0.5,0.6c0,0,0,0,0,0c0,0,0,0,0,0
		l-0.1,0.2c0,0,0,0,0,0c-0.1,0-0.3-0.1-0.5-0.2c-0.2-0.2-0.4-0.5-0.4-0.8c0-0.6,0.4-1,1-1c0.4,0,0.7,0.2,1,0.6
		c0.4,0.6,0.7,0.8,1.2,0.9v-1.4c0-0.1,0-0.1,0.1-0.1H65.4z"/>
	<path d="M65.5,154c0,0.3-0.1,0.6-0.4,0.7c-0.4,0.3-0.8,0.4-1.4,0.4c-1.2,0-1.9-0.4-1.9-1.2c0-0.7,0.6-1.1,1.8-1.1
		C64.9,152.8,65.5,153.2,65.5,154z M62.2,153.9c0,0.4,0.5,0.7,1.5,0.7c0.5,0,0.9-0.1,1.1-0.2c0.2-0.1,0.3-0.3,0.3-0.5
		c0-0.3-0.1-0.4-0.4-0.5c-0.3-0.1-0.7-0.2-1.1-0.2C62.7,153.3,62.2,153.5,62.2,153.9z"/>
	<path d="M65.4,150.3C65.5,150.3,65.5,150.3,65.4,150.3l0.1,1.5c0,0.1,0,0.1-0.1,0.1h-0.2c-0.1,0-0.1,0-0.1-0.1v-0.6h-2.7l0.4,0.8
		c0,0,0,0,0,0.1c0,0,0,0,0,0l-0.1,0.1c0,0,0,0-0.1,0c0,0,0,0,0,0l-0.7-1v-0.3c0-0.1,0-0.1,0.1-0.1h3.1v-0.5c0-0.1,0-0.1,0.1-0.1
		H65.4z"/>
	<path d="M65.4,147.8C65.5,147.8,65.5,147.8,65.4,147.8l0.1,1.5c0,0.1,0,0.1-0.1,0.1h-0.2c-0.1,0-0.1,0-0.1-0.1v-0.6h-2.7l0.4,0.8
		c0,0,0,0,0,0.1c0,0,0,0,0,0l-0.1,0.1c0,0,0,0-0.1,0c0,0,0,0,0,0l-0.7-1v-0.3c0-0.1,0-0.1,0.1-0.1h3.1v-0.5c0-0.1,0-0.1,0.1-0.1
		H65.4z"/>
	<path d="M75.3,156C75.4,156,75.4,156,75.3,156l0.1,1.9c0,0.1,0,0.1-0.1,0.1c-0.8,0-1.3-0.3-1.7-0.9c-0.2-0.4-0.3-0.4-0.4-0.5
		c-0.1-0.1-0.3-0.1-0.4-0.1c-0.4,0-0.6,0.2-0.6,0.5c0,0.3,0.2,0.5,0.5,0.6c0,0,0,0,0,0c0,0,0,0,0,0l-0.1,0.2c0,0,0,0,0,0
		c-0.1,0-0.3-0.1-0.5-0.2c-0.2-0.2-0.4-0.5-0.4-0.8c0-0.6,0.4-1,1-1c0.4,0,0.7,0.2,1,0.6c0.4,0.6,0.7,0.8,1.2,0.9V156
		c0-0.1,0-0.1,0.1-0.1H75.3z"/>
	<path d="M75.4,154.1c0,0.3-0.1,0.6-0.4,0.7c-0.4,0.3-0.8,0.4-1.4,0.4c-1.2,0-1.9-0.4-1.9-1.2c0-0.7,0.6-1.1,1.8-1.1
		C74.8,153,75.4,153.4,75.4,154.1z M72.1,154.1c0,0.4,0.5,0.7,1.5,0.7c0.5,0,0.9-0.1,1.1-0.2c0.2-0.1,0.3-0.3,0.3-0.5
		c0-0.3-0.1-0.4-0.4-0.5c-0.3-0.1-0.7-0.2-1.1-0.2C72.6,153.5,72.1,153.7,72.1,154.1z"/>
	<path d="M75.3,150.5C75.4,150.5,75.4,150.5,75.3,150.5l0.1,1.5c0,0.1,0,0.1-0.1,0.1h-0.2c-0.1,0-0.1,0-0.1-0.1v-0.6h-2.7l0.4,0.8
		c0,0,0,0,0,0.1c0,0,0,0,0,0l-0.1,0.1c0,0,0,0-0.1,0c0,0,0,0,0,0l-0.7-1v-0.3c0-0.1,0-0.1,0.1-0.1H75v-0.5c0-0.1,0-0.1,0.1-0.1H75.3
		z"/>
	<path d="M75.3,147.7C75.4,147.7,75.4,147.7,75.3,147.7l0.1,1.9c0,0.1,0,0.1-0.1,0.1c-0.8,0-1.3-0.3-1.7-0.9
		c-0.2-0.4-0.3-0.4-0.4-0.5c-0.1-0.1-0.3-0.1-0.4-0.1c-0.4,0-0.6,0.2-0.6,0.5c0,0.3,0.2,0.5,0.5,0.6c0,0,0,0,0,0c0,0,0,0,0,0
		l-0.1,0.2c0,0,0,0,0,0c-0.1,0-0.3-0.1-0.5-0.2c-0.2-0.2-0.4-0.5-0.4-0.8c0-0.6,0.4-1,1-1c0.4,0,0.7,0.2,1,0.6
		c0.4,0.6,0.7,0.8,1.2,0.9v-1.4c0-0.1,0-0.1,0.1-0.1H75.3z"/>
	<path d="M85.2,156C85.3,156,85.3,156,85.2,156l0.1,1.9c0,0.1,0,0.1-0.1,0.1c-0.8,0-1.3-0.3-1.7-0.9c-0.2-0.4-0.3-0.4-0.4-0.5
		c-0.1-0.1-0.3-0.1-0.4-0.1c-0.4,0-0.6,0.2-0.6,0.5c0,0.3,0.2,0.5,0.5,0.6c0,0,0,0,0,0c0,0,0,0,0,0l-0.1,0.2c0,0,0,0,0,0
		c-0.1,0-0.3-0.1-0.5-0.2c-0.2-0.2-0.4-0.5-0.4-0.8c0-0.6,0.4-1,1-1c0.4,0,0.7,0.2,1,0.6c0.4,0.6,0.7,0.8,1.2,0.9v-1.4
		c0-0.1,0-0.1,0.1-0.1H85.2z"/>
	<path d="M85.3,154.2c0,0.3-0.1,0.6-0.4,0.7c-0.4,0.3-0.8,0.4-1.4,0.4c-1.2,0-1.9-0.4-1.9-1.2c0-0.7,0.6-1.1,1.8-1.1
		C84.7,153,85.3,153.4,85.3,154.2z M82,154.2c0,0.4,0.5,0.7,1.5,0.7c0.5,0,0.9-0.1,1.1-0.2c0.2-0.1,0.3-0.3,0.3-0.5
		c0-0.3-0.1-0.4-0.4-0.5c-0.3-0.1-0.7-0.2-1.1-0.2C82.5,153.5,82,153.7,82,154.2z"/>
	<path d="M85.2,150.5C85.3,150.5,85.3,150.5,85.2,150.5l0.1,1.5c0,0.1,0,0.1-0.1,0.1H85c-0.1,0-0.1,0-0.1-0.1v-0.6h-2.7l0.4,0.8
		c0,0,0,0,0,0.1c0,0,0,0,0,0l-0.1,0.1c0,0,0,0-0.1,0c0,0,0,0,0,0l-0.7-1v-0.3c0-0.1,0-0.1,0.1-0.1h3.1v-0.5c0-0.1,0-0.1,0.1-0.1
		H85.2z"/>
	<path d="M85.3,148.9c0,0.4-0.1,0.9-0.2,0.9c0,0,0,0,0,0l-0.2-0.1c0,0,0,0,0,0c0,0,0,0,0,0c0.1-0.3,0.2-0.5,0.2-0.7
		c0-0.5-0.3-0.7-0.7-0.7c-0.4,0-0.7,0.3-0.7,0.8v0.2c0,0.1,0,0.1-0.1,0.1h-0.2c-0.1,0-0.1,0-0.1-0.1V149c0-0.4-0.3-0.7-0.7-0.7
		c-0.3,0-0.5,0.2-0.5,0.5c0,0.2,0.1,0.4,0.3,0.5c0.1,0.1,0.1,0.1,0.1,0.1c0,0,0,0,0,0l-0.2,0.2c0,0,0,0,0,0c0,0-0.2-0.1-0.3-0.3
		c-0.1-0.2-0.2-0.4-0.2-0.7c0-0.6,0.4-0.9,0.9-0.9c0.4,0,0.7,0.2,0.8,0.6c0.1-0.2,0.1-0.3,0.2-0.4c0.2-0.2,0.4-0.3,0.8-0.3
		C84.9,147.7,85.3,148.2,85.3,148.9z"/>
	<path d="M95.1,155.9C95.2,155.9,95.2,155.9,95.1,155.9l0.1,1.9c0,0.1,0,0.1-0.1,0.1c-0.8,0-1.3-0.3-1.7-0.9
		c-0.2-0.4-0.3-0.4-0.4-0.5c-0.1-0.1-0.3-0.1-0.4-0.1c-0.4,0-0.6,0.2-0.6,0.5c0,0.3,0.2,0.5,0.5,0.6c0,0,0,0,0,0c0,0,0,0,0,0
		l-0.1,0.2c0,0,0,0,0,0c-0.1,0-0.3-0.1-0.5-0.2c-0.2-0.2-0.4-0.5-0.4-0.8c0-0.6,0.4-1,1-1c0.4,0,0.7,0.2,1,0.6
		c0.4,0.6,0.7,0.8,1.2,0.9v-1.4c0-0.1,0-0.1,0.1-0.1H95.1z"/>
	<path d="M95.2,154.1c0,0.3-0.1,0.6-0.4,0.7c-0.4,0.3-0.8,0.4-1.4,0.4c-1.2,0-1.9-0.4-1.9-1.2c0-0.7,0.6-1.1,1.8-1.1
		C94.6,152.9,95.2,153.3,95.2,154.1z M91.9,154c0,0.4,0.5,0.7,1.5,0.7c0.5,0,0.9-0.1,1.1-0.2c0.2-0.1,0.3-0.3,0.3-0.5
		c0-0.3-0.1-0.4-0.4-0.5c-0.3-0.1-0.7-0.2-1.1-0.2C92.4,153.4,91.9,153.6,91.9,154z"/>
	<path d="M95.1,150.4C95.2,150.4,95.2,150.4,95.1,150.4l0.1,1.5c0,0.1,0,0.1-0.1,0.1h-0.2c-0.1,0-0.1,0-0.1-0.1v-0.6h-2.7l0.4,0.8
		c0,0,0,0,0,0.1c0,0,0,0,0,0l-0.1,0.1c0,0,0,0-0.1,0c0,0,0,0,0,0l-0.7-1V151c0-0.1,0-0.1,0.1-0.1h3.1v-0.5c0-0.1,0-0.1,0.1-0.1H95.1
		z"/>
	<path d="M94.3,147.5C94.4,147.5,94.4,147.5,94.3,147.5l0.1,0.5h0.8c0.1,0,0.1,0,0.1,0.1v0.3c0,0.1,0,0.1-0.1,0.1h-0.8v1.4
		c0,0.1,0,0.1-0.1,0.1H94l-2.4-1.4c0,0,0,0,0-0.1v0v0l0-0.3c0,0,0-0.1,0-0.1c0,0,0,0,0,0l2.3,1.4v-1l-0.9-0.1c-0.1,0-0.1,0-0.1-0.1
		v-0.2c0-0.1,0-0.1,0.1-0.1H94v-0.4c0-0.1,0-0.1,0.1-0.1H94.3z"/>
	<path d="M105,156C105.1,156,105.1,156,105,156l0.1,1.9c0,0.1,0,0.1-0.1,0.1c-0.8,0-1.3-0.3-1.7-0.9c-0.2-0.4-0.3-0.4-0.4-0.5
		c-0.1-0.1-0.3-0.1-0.4-0.1c-0.4,0-0.6,0.2-0.6,0.5c0,0.3,0.2,0.5,0.5,0.6c0,0,0,0,0,0c0,0,0,0,0,0l-0.1,0.2c0,0,0,0,0,0
		c-0.1,0-0.3-0.1-0.5-0.2c-0.2-0.2-0.4-0.5-0.4-0.8c0-0.6,0.4-1,1-1c0.4,0,0.7,0.2,1,0.6c0.4,0.6,0.7,0.8,1.2,0.9V156
		c0-0.1,0-0.1,0.1-0.1H105z"/>
	<path d="M105.1,154.1c0,0.3-0.1,0.6-0.4,0.7c-0.4,0.3-0.8,0.4-1.4,0.4c-1.2,0-1.9-0.4-1.9-1.2c0-0.7,0.6-1.1,1.8-1.1
		C104.5,153,105.1,153.4,105.1,154.1z M101.8,154.1c0,0.4,0.5,0.7,1.5,0.7c0.5,0,0.9-0.1,1.1-0.2c0.2-0.1,0.3-0.3,0.3-0.5
		c0-0.3-0.1-0.4-0.4-0.5c-0.3-0.1-0.7-0.2-1.1-0.2C102.3,153.5,101.8,153.7,101.8,154.1z"/>
	<path d="M105,150.5C105.1,150.5,105.1,150.5,105,150.5l0.1,1.5c0,0.1,0,0.1-0.1,0.1h-0.2c-0.1,0-0.1,0-0.1-0.1v-0.6H102l0.4,0.8
		c0,0,0,0,0,0.1c0,0,0,0,0,0l-0.1,0.1c0,0,0,0-0.1,0c0,0,0,0,0,0l-0.7-1v-0.3c0-0.1,0-0.1,0.1-0.1h3.1v-0.5c0-0.1,0-0.1,0.1-0.1H105
		z"/>
	<path d="M105.1,149c0,0.2,0,0.5-0.1,0.7c0,0.1,0,0.1-0.1,0.1c0,0,0,0,0,0l-0.2-0.1c0,0,0,0,0,0c0,0,0,0,0-0.1
		c0.1-0.2,0.1-0.3,0.1-0.5c0-0.3-0.1-0.5-0.2-0.7c-0.2-0.1-0.4-0.2-0.6-0.2c-0.4,0-0.7,0.2-0.7,0.6c0,0.2,0.1,0.4,0.3,0.6
		c0,0,0,0,0,0.1l0,0l-0.1,0.2c0,0,0,0.1-0.1,0.1c0,0,0,0,0,0l-1.8-0.2c-0.1,0-0.1,0-0.1-0.1V148c0-0.1,0-0.1,0.1-0.1h0.2
		c0.1,0,0.1,0,0.1,0.1v1.1l1.1,0.1c-0.2-0.2-0.2-0.4-0.2-0.7c0-0.6,0.4-0.9,1.1-0.9C104.6,147.7,105.1,148.2,105.1,149z"/>
	<path d="M114.9,155.9C115,155.9,115,155.9,114.9,155.9l0.1,1.9c0,0.1,0,0.1-0.1,0.1c-0.8,0-1.3-0.3-1.7-0.9
		c-0.2-0.4-0.3-0.4-0.4-0.5c-0.1-0.1-0.3-0.1-0.4-0.1c-0.4,0-0.6,0.2-0.6,0.5c0,0.3,0.2,0.5,0.5,0.6c0,0,0,0,0,0c0,0,0,0,0,0
		l-0.1,0.2c0,0,0,0,0,0c-0.1,0-0.3-0.1-0.5-0.2c-0.2-0.2-0.4-0.5-0.4-0.8c0-0.6,0.4-1,1-1c0.4,0,0.7,0.2,1,0.6
		c0.4,0.6,0.7,0.8,1.2,0.9v-1.4c0-0.1,0-0.1,0.1-0.1H114.9z"/>
	<path d="M115,154c0,0.3-0.1,0.6-0.4,0.7c-0.4,0.3-0.8,0.4-1.4,0.4c-1.2,0-1.9-0.4-1.9-1.2c0-0.7,0.6-1.1,1.8-1.1
		C114.4,152.9,115,153.3,115,154z M111.7,154c0,0.4,0.5,0.7,1.5,0.7c0.5,0,0.9-0.1,1.1-0.2c0.2-0.1,0.3-0.3,0.3-0.5
		c0-0.3-0.1-0.4-0.4-0.5c-0.3-0.1-0.7-0.2-1.1-0.2C112.2,153.4,111.7,153.6,111.7,154z"/>
	<path d="M114.9,150.4C115,150.4,115,150.4,114.9,150.4l0.1,1.5c0,0.1,0,0.1-0.1,0.1h-0.2c-0.1,0-0.1,0-0.1-0.1v-0.6h-2.7l0.4,0.8
		c0,0,0,0,0,0.1c0,0,0,0,0,0l-0.1,0.1c0,0,0,0-0.1,0c0,0,0,0,0,0l-0.7-1V151c0-0.1,0-0.1,0.1-0.1h3.1v-0.5c0-0.1,0-0.1,0.1-0.1
		H114.9z"/>
	<path d="M115,148.7c0,0.4-0.2,0.7-0.5,0.8c-0.3,0.1-0.6,0.2-1,0.2c-1.3,0-2.2-0.6-2.2-1.5c0-0.2,0.1-0.5,0.1-0.5c0,0,0,0,0,0
		l0.3,0.1c0,0,0,0,0,0c0,0,0,0,0,0c0,0.1-0.1,0.2-0.1,0.3c0,0.3,0.1,0.5,0.4,0.7c0.2,0.2,0.5,0.2,0.8,0.3c-0.3-0.2-0.4-0.4-0.4-0.7
		c0-0.6,0.5-0.9,1.2-0.9C114.5,147.7,115,148.1,115,148.7z M112.9,148.7c0,0.4,0.3,0.6,0.8,0.6c0.6,0,0.9-0.2,0.9-0.6
		s-0.3-0.6-0.9-0.6C113.2,148.1,112.9,148.3,112.9,148.7z"/>
</g>
<line fill="none" stroke="#D71920" stroke-width="2" stroke-linecap="round" stroke-miterlimit="10" x1="10" y1="20.9" x2="15.4" y2="20.9"/>
<rect x="9.7" y="25.6" fill="#006F3B" width="5.7" height="5.7"/>
<rect x="45.1" y="25.6" fill="#78A384" width="5.7" height="5.7"/>
</svg>
